NotoSansGujarati-Light.ufo
<glyph name="comma.gujr" format="2">
  <advance width="208"/>
  <unicode hex="002C"/>
  <outline>
    <contour>
      <point x="57" y="-129" type="curve"/>
      <point x="79" y="-129" type="line"/>
      <point x="107" y="-60"/>
      <point x="129" y="30"/>
      <point x="144" y="104" type="curve"/>
      <point x="141" y="116" type="line"/>
      <point x="113" y="116" type="line"/>
      <point x="102" y="40"/>
      <point x="86" y="-32"/>
    </contour>
  </outline>
</glyph>
<glyph name="hyphen.gujr" format="2">
  <advance width="316"/>
  <unicode hex="002D"/>
  <outline>
    <contour>
      <point x="49" y="284" type="line"/>
      <point x="267" y="284" type="line"/>
      <point x="267" y="310" type="line"/>
      <point x="49" y="310" type="line"/>
    </contour>
  </outline>
</glyph>
<glyph name="period.gujr" format="2">
  <advance width="208"/>
  <unicode hex="002E"/>
  <outline>
    <contour>
      <point x="113" y="-8" type="curve" smooth="yes"/>
      <point x="137" y="-8"/>
      <point x="140" y="6"/>
      <point x="140" y="23" type="curve" smooth="yes"/>
      <point x="140" y="39"/>
      <point x="137" y="54"/>
      <point x="113" y="54" type="curve" smooth="yes"/>
      <point x="93" y="54"/>
      <point x="88" y="39"/>
      <point x="88" y="23" type="curve" smooth="yes"/>
      <point x="88" y="6"/>
      <point x="93" y="-8"/>
    </contour>
  </outline>
</glyph>
<glyph name="slash.gujr" format="2">
  <advance width="386"/>
  <unicode hex="002F"/>
  <outline>
    <contour>
      <point x="48" y="-166" type="line"/>
      <point x="75" y="-166" type="line"/>
      <point x="338" y="833" type="line"/>
      <point x="311" y="833" type="line"/>
    </contour>
  </outline>
</glyph>
<glyph name="seven.gujr" format="2">
  <advance width="551"/>
  <unicode hex="0037"/>
  <outline>
    <contour>
      <point x="168" y="0" type="line"/>
      <point x="198" y="0" type="line"/>
      <point x="491" y="692" type="line"/>
      <point x="491" y="714" type="line"/>
      <point x="56" y="714" type="line"/>
      <point x="56" y="688" type="line"/>
      <point x="461" y="688" type="line"/>
    </contour>
  </outline>
</glyph>
<glyph name="braceright.gujr" format="2">
  <advance width="379"/>
  <unicode hex="007D"/>
  <outline>
    <contour>
      <point x="60" y="-166" type="line"/>
      <point x="177" y="-166"/>
      <point x="223" y="-132"/>
      <point x="223" y="-34" type="curve" smooth="yes"/>
      <point x="223" y="205" type="line" smooth="yes"/>
      <point x="223" y="290"/>
      <point x="253" y="320"/>
      <point x="334" y="320" type="curve"/>
      <point x="334" y="344" type="line"/>
      <point x="253" y="344"/>
      <point x="223" y="376"/>
      <point x="223" y="462" type="curve" smooth="yes"/>
      <point x="223" y="697" type="line" smooth="yes"/>
      <point x="223" y="784"/>
      <point x="168" y="832"/>
      <point x="60" y="832" type="curve"/>
      <point x="60" y="807" type="line"/>
      <point x="156" y="807"/>
      <point x="198" y="772"/>
      <point x="198" y="691" type="curve" smooth="yes"/>
      <point x="198" y="458" type="line" smooth="yes"/>
      <point x="198" y="390"/>
      <point x="218" y="344"/>
      <point x="276" y="333" type="curve"/>
      <point x="276" y="331" type="line"/>
      <point x="219" y="318"/>
      <point x="198" y="284"/>
      <point x="198" y="209" type="curve" smooth="yes"/>
      <point x="198" y="-28" type="line" smooth="yes"/>
      <point x="198" y="-115"/>
      <point x="166" y="-141"/>
      <point x="60" y="-141" type="curve"/>
    </contour>
  </outline>
</glyph>
<glyph name="uni0952" format="2">
  <unicode hex="0952"/>
  <outline>
    <contour>
      <point x="-403" y="-89" type="line"/>
      <point x="-403" y="-115" type="line"/>
      <point x="-107" y="-115" type="line"/>
      <point x="-107" y="-89" type="line"/>
    </contour>
  </outline>
</glyph>
<glyph name="dbldanda.gujr" format="2">
  <advance width="527"/>
  <unicode hex="0965"/>
  <outline>
    <contour>
      <point x="392" y="0" type="line"/>
      <point x="418" y="0" type="line"/>
      <point x="418" y="597" type="line"/>
      <point x="392" y="597" type="line"/>
    </contour>
    <contour>
      <point x="200" y="0" type="line"/>
      <point x="226" y="0" type="line"/>
      <point x="226" y="597" type="line"/>
      <point x="200" y="597" type="line"/>
    </contour>
  </outline>
</glyph>
<glyph name="candrabindugujr" format="2">
  <unicode hex="0A81"/>
  <guideline x="-216" y="815" angle="0"/>
  <outline>
    <contour>
      <point x="-122" y="665" type="curve" smooth="yes"/>
      <point x="-42" y="665"/>
      <point x="27" y="715"/>
      <point x="59" y="806" type="curve"/>
      <point x="32" y="815" type="line"/>
      <point x="5" y="738"/>
      <point x="-45" y="691"/>
      <point x="-122" y="691" type="curve" smooth="yes"/>
      <point x="-199" y="691"/>
      <point x="-249" y="738"/>
      <point x="-276" y="815" type="curve"/>
      <point x="-303" y="806" type="line"/>
      <point x="-271" y="715"/>
      <point x="-202" y="665"/>
    </contour>
    <contour>
      <point x="-122" y="788" type="curve" smooth="yes"/>
      <point x="-105" y="788"/>
      <point x="-92" y="800"/>
      <point x="-92" y="826" type="curve" smooth="yes"/>
      <point x="-92" y="849"/>
      <point x="-103" y="864"/>
      <point x="-122" y="864" type="curve" smooth="yes"/>
      <point x="-140" y="864"/>
      <point x="-153" y="850"/>
      <point x="-153" y="826" type="curve" smooth="yes"/>
      <point x="-153" y="801"/>
      <point x="-138" y="788"/>
    </contour>
  </outline>
</glyph>
<glyph name="anusvaragujr" format="2">
  <unicode hex="0A82"/>
  <outline>
    <contour>
      <point x="-121" y="707" type="curve" smooth="yes"/>
      <point x="-104" y="707"/>
      <point x="-91" y="719"/>
      <point x="-91" y="745" type="curve" smooth="yes"/>
      <point x="-91" y="768"/>
      <point x="-102" y="783"/>
      <point x="-121" y="783" type="curve" smooth="yes"/>
      <point x="-139" y="783"/>
      <point x="-152" y="769"/>
      <point x="-152" y="745" type="curve" smooth="yes"/>
      <point x="-152" y="720"/>
      <point x="-137" y="707"/>
    </contour>
  </outline>
</glyph>
<glyph name="visargagujr" format="2">
  <advance width="199"/>
  <unicode hex="0A83"/>
  <outline>
    <contour>
      <point x="100" y="409" type="curve" smooth="yes"/>
      <point x="117" y="409"/>
      <point x="130" y="421"/>
      <point x="130" y="447" type="curve" smooth="yes"/>
      <point x="130" y="470"/>
      <point x="119" y="485"/>
      <point x="100" y="485" type="curve" smooth="yes"/>
      <point x="82" y="485"/>
      <point x="69" y="471"/>
      <point x="69" y="447" type="curve" smooth="yes"/>
      <point x="69" y="422"/>
      <point x="84" y="409"/>
    </contour>
    <contour>
      <point x="100" y="50" type="curve" smooth="yes"/>
      <point x="117" y="50"/>
      <point x="130" y="62"/>
      <point x="130" y="88" type="curve" smooth="yes"/>
      <point x="130" y="111"/>
      <point x="119" y="126"/>
      <point x="100" y="126" type="curve" smooth="yes"/>
      <point x="82" y="126"/>
      <point x="69" y="112"/>
      <point x="69" y="88" type="curve" smooth="yes"/>
      <point x="69" y="63"/>
      <point x="84" y="50"/>
    </contour>
  </outline>
</glyph>
<glyph name="agujr" format="2">
  <advance width="835"/>
  <unicode hex="0A85"/>
  <outline>
    <contour>
      <point x="329" y="124" type="curve" smooth="yes"/>
      <point x="450" y="124"/>
      <point x="520" y="204"/>
      <point x="520" y="329" type="curve" smooth="yes"/>
      <point x="520" y="440" type="line"/>
      <point x="494" y="444" type="line"/>
      <point x="494" y="329" type="line" smooth="yes"/>
      <point x="494" y="269"/>
      <point x="477" y="222"/>
      <point x="445" y="191" type="curve" smooth="yes"/>
      <point x="417" y="164"/>
      <point x="378" y="150"/>
      <point x="328" y="150" type="curve" smooth="yes"/>
      <point x="238" y="150"/>
      <point x="187" y="198"/>
      <point x="155" y="264" type="curve"/>
      <point x="155" y="274" type="line"/>
      <point x="139" y="304"/>
      <point x="115" y="326"/>
      <point x="81" y="326" type="curve" smooth="yes"/>
      <point x="55" y="326"/>
      <point x="42" y="313"/>
      <point x="42" y="294" type="curve" smooth="yes"/>
      <point x="42" y="268"/>
      <point x="64" y="254"/>
      <point x="109" y="254" type="curve" smooth="yes"/>
      <point x="232" y="254"/>
      <point x="325" y="330"/>
      <point x="325" y="435" type="curve" smooth="yes"/>
      <point x="325" y="528"/>
      <point x="259" y="602"/>
      <point x="146" y="602" type="curve" smooth="yes"/>
      <point x="107" y="602"/>
      <point x="72" y="595"/>
      <point x="38" y="582" type="curve"/>
      <point x="48" y="555" type="line"/>
      <point x="80" y="567"/>
      <point x="114" y="576"/>
      <point x="146" y="576" type="curve" smooth="yes"/>
      <point x="248" y="576"/>
      <point x="298" y="516"/>
      <point x="298" y="435" type="curve" smooth="yes"/>
      <point x="298" y="350"/>
      <point x="233" y="291"/>
      <point x="129" y="281" type="curve"/>
      <point x="128" y="261" type="line"/>
      <point x="166" y="176"/>
      <point x="235" y="124"/>
    </contour>
    <contour>
      <point x="597" y="253" type="curve" smooth="yes"/>
      <point x="652" y="253"/>
      <point x="689" y="282"/>
      <point x="711" y="314" type="curve"/>
      <point x="704" y="345" type="line"/>
      <point x="680" y="309"/>
      <point x="646" y="279"/>
      <point x="597" y="279" type="curve" smooth="yes"/>
      <point x="562" y="279"/>
      <point x="532" y="298"/>
      <point x="515" y="323" type="curve"/>
      <point x="499" y="303" type="line"/>
      <point x="521" y="269"/>
      <point x="561" y="253"/>
    </contour>
    <contour>
      <point x="821" y="0" type="curve" smooth="yes"/>
      <point x="830" y="0" type="line"/>
      <point x="833" y="26" type="line"/>
      <point x="800" y="26"/>
      <point x="777" y="29"/>
      <point x="759" y="41" type="curve" smooth="yes"/>
      <point x="737" y="56"/>
      <point x="727" y="80"/>
      <point x="727" y="129" type="curve" smooth="yes"/>
      <point x="727" y="598" type="line"/>
      <point x="701" y="602" type="line"/>
      <point x="701" y="128" type="line" smooth="yes"/>
      <point x="701" y="74"/>
      <point x="716" y="43"/>
      <point x="740" y="23" type="curve" smooth="yes"/>
      <point x="761" y="6"/>
      <point x="787" y="0"/>
    </contour>
  </outline>
</glyph>
<glyph name="igujr" format="2">
  <advance width="589"/>
  <unicode hex="0A87"/>
  <outline>
    <contour>
      <point x="304" y="-10" type="curve" smooth="yes"/>
      <point x="450" y="-10"/>
      <point x="541" y="84"/>
      <point x="541" y="222" type="curve" smooth="yes"/>
      <point x="541" y="296"/>
      <point x="511" y="357"/>
      <point x="469" y="436" type="curve" smooth="yes"/>
      <point x="444" y="483"/>
      <point x="425" y="528"/>
      <point x="425" y="578" type="curve" smooth="yes"/>
      <point x="425" y="635"/>
      <point x="450" y="669"/>
      <point x="504" y="707" type="curve"/>
      <point x="488" y="728" type="line"/>
      <point x="426" y="685"/>
      <point x="398" y="640"/>
      <point x="398" y="578" type="curve" smooth="yes"/>
      <point x="398" y="524"/>
      <point x="419" y="476"/>
      <point x="445" y="427" type="curve" smooth="yes"/>
      <point x="487" y="347"/>
      <point x="514" y="293"/>
      <point x="514" y="222" type="curve" smooth="yes"/>
      <point x="514" y="98"/>
      <point x="434" y="16"/>
      <point x="304" y="16" type="curve" smooth="yes"/>
      <point x="190" y="16"/>
      <point x="118" y="76"/>
      <point x="118" y="171" type="curve" smooth="yes"/>
      <point x="118" y="260"/>
      <point x="180" y="319"/>
      <point x="276" y="319" type="curve" smooth="yes"/>
      <point x="288" y="319"/>
      <point x="299" y="318"/>
      <point x="310" y="316" type="curve"/>
      <point x="314" y="342" type="line"/>
      <point x="302" y="344"/>
      <point x="290" y="345"/>
      <point x="276" y="345" type="curve" smooth="yes"/>
      <point x="167" y="345"/>
      <point x="91" y="273"/>
      <point x="91" y="171" type="curve" smooth="yes"/>
      <point x="91" y="63"/>
      <point x="174" y="-10"/>
    </contour>
    <contour>
      <point x="168" y="297" type="curve"/>
      <point x="183" y="317" type="line"/>
      <point x="117" y="347"/>
      <point x="75" y="391"/>
      <point x="75" y="459" type="curve" smooth="yes"/>
      <point x="75" y="535"/>
      <point x="132" y="576"/>
      <point x="211" y="576" type="curve" smooth="yes"/>
      <point x="238" y="576"/>
      <point x="259" y="573"/>
      <point x="281" y="568" type="curve"/>
      <point x="287" y="593" type="line"/>
      <point x="262" y="599"/>
      <point x="240" y="602"/>
      <point x="211" y="602" type="curve" smooth="yes"/>
      <point x="117" y="602"/>
      <point x="48" y="550"/>
      <point x="48" y="459" type="curve" smooth="yes"/>
      <point x="48" y="383"/>
      <point x="97" y="331"/>
    </contour>
  </outline>
</glyph>
<glyph name="iigujr" format="2">
  <advance width="589"/>
  <unicode hex="0A88"/>
  <outline>
    <contour>
      <point x="304" y="-10" type="curve" smooth="yes"/>
      <point x="450" y="-10"/>
      <point x="541" y="86"/>
      <point x="541" y="222" type="curve" smooth="yes"/>
      <point x="541" y="314"/>
      <point x="519" y="386"/>
      <point x="460" y="503" type="curve" smooth="yes"/>
      <point x="415" y="593"/>
      <point x="376" y="674"/>
      <point x="376" y="744" type="curve" smooth="yes"/>
      <point x="376" y="820"/>
      <point x="418" y="870"/>
      <point x="489" y="870" type="curve" smooth="yes"/>
      <point x="562" y="870"/>
      <point x="600" y="826"/>
      <point x="635" y="747" type="curve"/>
      <point x="658" y="755" type="line"/>
      <point x="623" y="839"/>
      <point x="574" y="896"/>
      <point x="489" y="896" type="curve" smooth="yes"/>
      <point x="404" y="896"/>
      <point x="349" y="833"/>
      <point x="349" y="744" type="curve" smooth="yes"/>
      <point x="349" y="672"/>
      <point x="376" y="614"/>
      <point x="436" y="492" type="curve" smooth="yes"/>
      <point x="495" y="372"/>
      <point x="514" y="309"/>
      <point x="514" y="222" type="curve" smooth="yes"/>
      <point x="514" y="98"/>
      <point x="434" y="16"/>
      <point x="304" y="16" type="curve" smooth="yes"/>
      <point x="190" y="16"/>
      <point x="118" y="76"/>
      <point x="118" y="171" type="curve" smooth="yes"/>
      <point x="118" y="260"/>
      <point x="180" y="319"/>
      <point x="276" y="319" type="curve" smooth="yes"/>
      <point x="288" y="319"/>
      <point x="299" y="318"/>
      <point x="310" y="316" type="curve"/>
      <point x="314" y="342" type="line"/>
      <point x="302" y="344"/>
      <point x="290" y="345"/>
      <point x="276" y="345" type="curve" smooth="yes"/>
      <point x="167" y="345"/>
      <point x="91" y="273"/>
      <point x="91" y="171" type="curve" smooth="yes"/>
      <point x="91" y="63"/>
      <point x="174" y="-10"/>
    </contour>
    <contour>
      <point x="168" y="297" type="curve"/>
      <point x="183" y="317" type="line"/>
      <point x="117" y="347"/>
      <point x="75" y="391"/>
      <point x="75" y="459" type="curve" smooth="yes"/>
      <point x="75" y="535"/>
      <point x="132" y="576"/>
      <point x="211" y="576" type="curve" smooth="yes"/>
      <point x="238" y="576"/>
      <point x="259" y="573"/>
      <point x="281" y="568" type="curve"/>
      <point x="287" y="593" type="line"/>
      <point x="262" y="599"/>
      <point x="240" y="602"/>
      <point x="211" y="602" type="curve" smooth="yes"/>
      <point x="117" y="602"/>
      <point x="48" y="550"/>
      <point x="48" y="459" type="curve" smooth="yes"/>
      <point x="48" y="383"/>
      <point x="97" y="331"/>
    </contour>
  </outline>
</glyph>
<glyph name="ugujr" format="2">
  <advance width="593"/>
  <unicode hex="0A89"/>
  <outline>
    <contour>
      <point x="349" y="-10" type="curve" smooth="yes"/>
      <point x="462" y="-10"/>
      <point x="534" y="60"/>
      <point x="534" y="158" type="curve" smooth="yes"/>
      <point x="534" y="225"/>
      <point x="503" y="286"/>
      <point x="440" y="338" type="curve"/>
      <point x="419" y="336" type="line"/>
      <point x="420" y="321" type="line"/>
      <point x="481" y="276"/>
      <point x="507" y="223"/>
      <point x="507" y="158" type="curve" smooth="yes"/>
      <point x="507" y="75"/>
      <point x="447" y="16"/>
      <point x="349" y="16" type="curve" smooth="yes"/>
      <point x="198" y="16"/>
      <point x="95" y="134"/>
      <point x="95" y="392" type="curve" smooth="yes"/>
      <point x="95" y="646"/>
      <point x="209" y="808"/>
      <point x="398" y="808" type="curve" smooth="yes"/>
      <point x="431" y="808"/>
      <point x="457" y="804"/>
      <point x="479" y="797" type="curve"/>
      <point x="485" y="822" type="line"/>
      <point x="460" y="830"/>
      <point x="433" y="834"/>
      <point x="398" y="834" type="curve" smooth="yes"/>
      <point x="194" y="834"/>
      <point x="68" y="662"/>
      <point x="68" y="392" type="curve" smooth="yes"/>
      <point x="68" y="117"/>
      <point x="183" y="-10"/>
    </contour>
    <contour>
      <point x="310" y="294" type="line"/>
      <point x="453" y="303"/>
      <point x="531" y="357"/>
      <point x="531" y="456" type="curve" smooth="yes"/>
      <point x="531" y="537"/>
      <point x="471" y="602"/>
      <point x="370" y="602" type="curve" smooth="yes"/>
      <point x="323" y="602"/>
      <point x="273" y="588"/>
      <point x="225" y="567" type="curve"/>
      <point x="236" y="542" type="line"/>
      <point x="282" y="562"/>
      <point x="328" y="576"/>
      <point x="370" y="576" type="curve" smooth="yes"/>
      <point x="458" y="576"/>
      <point x="504" y="525"/>
      <point x="504" y="456" type="curve" smooth="yes"/>
      <point x="504" y="368"/>
      <point x="432" y="327"/>
      <point x="304" y="320" type="curve"/>
    </contour>
  </outline>
</glyph>
<glyph name="uugujr" format="2">
  <advance width="837"/>
  <unicode hex="0A8A"/>
  <outline>
    <contour>
      <point x="349" y="-10" type="curve" smooth="yes"/>
      <point x="462" y="-10"/>
      <point x="534" y="60"/>
      <point x="534" y="158" type="curve" smooth="yes"/>
      <point x="534" y="225"/>
      <point x="503" y="286"/>
      <point x="440" y="338" type="curve"/>
      <point x="419" y="336" type="line"/>
      <point x="420" y="321" type="line"/>
      <point x="481" y="276"/>
      <point x="507" y="223"/>
      <point x="507" y="158" type="curve" smooth="yes"/>
      <point x="507" y="75"/>
      <point x="447" y="16"/>
      <point x="349" y="16" type="curve" smooth="yes"/>
      <point x="198" y="16"/>
      <point x="95" y="134"/>
      <point x="95" y="378" type="curve" smooth="yes"/>
      <point x="95" y="646"/>
      <point x="225" y="808"/>
      <point x="417" y="808" type="curve" smooth="yes"/>
      <point x="556" y="808"/>
      <point x="656" y="716"/>
      <point x="703" y="579" type="curve"/>
      <point x="703" y="128" type="line" smooth="yes"/>
      <point x="703" y="74"/>
      <point x="718" y="43"/>
      <point x="742" y="23" type="curve" smooth="yes"/>
      <point x="763" y="6"/>
      <point x="789" y="0"/>
      <point x="823" y="0" type="curve" smooth="yes"/>
      <point x="832" y="0" type="line"/>
      <point x="835" y="26" type="line"/>
      <point x="802" y="26"/>
      <point x="779" y="29"/>
      <point x="761" y="41" type="curve" smooth="yes"/>
      <point x="739" y="56"/>
      <point x="729" y="80"/>
      <point x="729" y="129" type="curve" smooth="yes"/>
      <point x="729" y="586" type="line"/>
      <point x="679" y="730"/>
      <point x="569" y="834"/>
      <point x="417" y="834" type="curve" smooth="yes"/>
      <point x="210" y="834"/>
      <point x="68" y="662"/>
      <point x="68" y="378" type="curve" smooth="yes"/>
      <point x="68" y="117"/>
      <point x="183" y="-10"/>
    </contour>
    <contour>
      <point x="310" y="294" type="line"/>
      <point x="453" y="303"/>
      <point x="531" y="357"/>
      <point x="531" y="456" type="curve" smooth="yes"/>
      <point x="531" y="537"/>
      <point x="471" y="602"/>
      <point x="370" y="602" type="curve" smooth="yes"/>
      <point x="323" y="602"/>
      <point x="273" y="588"/>
      <point x="225" y="567" type="curve"/>
      <point x="236" y="542" type="line"/>
      <point x="282" y="562"/>
      <point x="328" y="576"/>
      <point x="370" y="576" type="curve" smooth="yes"/>
      <point x="458" y="576"/>
      <point x="504" y="525"/>
      <point x="504" y="456" type="curve" smooth="yes"/>
      <point x="504" y="368"/>
      <point x="432" y="327"/>
      <point x="304" y="320" type="curve"/>
    </contour>
  </outline>
</glyph>
<glyph name="rvocalicgujr" format="2">
  <advance width="805"/>
  <unicode hex="0A8B"/>
  <outline>
    <contour>
      <point x="666" y="90" type="line"/>
      <point x="733" y="129"/>
      <point x="761" y="170"/>
      <point x="761" y="224" type="curve" smooth="yes"/>
      <point x="761" y="269"/>
      <point x="739" y="312"/>
      <point x="703" y="371" type="curve"/>
      <point x="686" y="383" type="line"/>
      <point x="665" y="370"/>
      <point x="637" y="363"/>
      <point x="608" y="363" type="curve" smooth="yes"/>
      <point x="553" y="363"/>
      <point x="495" y="389"/>
      <point x="449" y="431" type="curve"/>
      <point x="441" y="405" type="line"/>
      <point x="494" y="361"/>
      <point x="550" y="337"/>
      <point x="608" y="337" type="curve" smooth="yes"/>
      <point x="679" y="337"/>
      <point x="745" y="372"/>
      <point x="745" y="417" type="curve" smooth="yes"/>
      <point x="745" y="442"/>
      <point x="728" y="462"/>
      <point x="698" y="462" type="curve" smooth="yes"/>
      <point x="670" y="462"/>
      <point x="651" y="444"/>
      <point x="651" y="420" type="curve" smooth="yes"/>
      <point x="651" y="402"/>
      <point x="660" y="388"/>
      <point x="676" y="367" type="curve"/>
      <point x="683" y="355" type="line"/>
      <point x="716" y="304"/>
      <point x="734" y="265"/>
      <point x="734" y="224" type="curve" smooth="yes"/>
      <point x="734" y="179"/>
      <point x="708" y="144"/>
      <point x="651" y="112" type="curve"/>
    </contour>
    <contour>
      <point x="127" y="155" type="line"/>
      <point x="450" y="366" type="line"/>
      <point x="435" y="387" type="line"/>
      <point x="111" y="177" type="line"/>
    </contour>
    <contour>
      <point x="398" y="352" type="curve"/>
      <point x="420" y="366" type="line"/>
      <point x="320" y="494"/>
      <point x="254" y="533"/>
      <point x="156" y="533" type="curve" smooth="yes"/>
      <point x="107" y="533"/>
      <point x="57" y="517"/>
      <point x="10" y="494" type="curve"/>
      <point x="22" y="469" type="line"/>
      <point x="70" y="492"/>
      <point x="115" y="507"/>
      <point x="157" y="507" type="curve" smooth="yes"/>
      <point x="245" y="507"/>
      <point x="304" y="473"/>
    </contour>
    <contour>
      <point x="552" y="0" type="curve" smooth="yes"/>
      <point x="561" y="0" type="line"/>
      <point x="564" y="26" type="line"/>
      <point x="531" y="26"/>
      <point x="508" y="29"/>
      <point x="490" y="41" type="curve" smooth="yes"/>
      <point x="468" y="56"/>
      <point x="458" y="80"/>
      <point x="458" y="129" type="curve" smooth="yes"/>
      <point x="458" y="598" type="line"/>
      <point x="432" y="602" type="line"/>
      <point x="432" y="128" type="line" smooth="yes"/>
      <point x="432" y="74"/>
      <point x="447" y="43"/>
      <point x="471" y="23" type="curve" smooth="yes"/>
      <point x="492" y="6"/>
      <point x="518" y="0"/>
    </contour>
  </outline>
</glyph>
<glyph name="lvocalicgujr" format="2">
  <advance width="667"/>
  <unicode hex="0A8C"/>
  <outline>
    <contour>
      <point x="212" y="46" type="curve"/>
      <point x="229" y="67" type="line"/>
      <point x="130" y="150"/>
      <point x="79" y="215"/>
      <point x="79" y="302" type="curve" smooth="yes"/>
      <point x="79" y="378"/>
      <point x="124" y="424"/>
      <point x="199" y="424" type="curve" smooth="yes"/>
      <point x="264" y="424"/>
      <point x="306" y="395"/>
      <point x="347" y="354" type="curve"/>
      <point x="364" y="372" type="line"/>
      <point x="319" y="417"/>
      <point x="268" y="450"/>
      <point x="199" y="450" type="curve" smooth="yes"/>
      <point x="111" y="450"/>
      <point x="52" y="391"/>
      <point x="52" y="302" type="curve" smooth="yes"/>
      <point x="52" y="204"/>
      <point x="112" y="130"/>
    </contour>
    <contour>
      <point x="574" y="-73" type="curve" smooth="yes"/>
      <point x="620" y="-73"/>
      <point x="660" y="-58"/>
      <point x="698" y="-36" type="curve"/>
      <point x="687" y="-12" type="line"/>
      <point x="647" y="-35"/>
      <point x="615" y="-47"/>
      <point x="575" y="-47" type="curve" smooth="yes"/>
      <point x="498" y="-47"/>
      <point x="455" y="-5"/>
      <point x="455" y="54" type="curve" smooth="yes"/>
      <point x="455" y="118"/>
      <point x="499" y="153"/>
      <point x="575" y="156" type="curve"/>
      <point x="574" y="182" type="line"/>
      <point x="482" y="179"/>
      <point x="428" y="129"/>
      <point x="428" y="54" type="curve" smooth="yes"/>
      <point x="428" y="-16"/>
      <point x="481" y="-73"/>
    </contour>
    <contour>
      <point x="575" y="156" type="line"/>
      <point x="602" y="202"/>
      <point x="618" y="258"/>
      <point x="618" y="300" type="curve" smooth="yes"/>
      <point x="618" y="389"/>
      <point x="564" y="450"/>
      <point x="484" y="450" type="curve" smooth="yes"/>
      <point x="396" y="450"/>
      <point x="333" y="392"/>
      <point x="291" y="254" type="curve"/>
      <point x="320" y="245" type="line"/>
      <point x="357" y="371"/>
      <point x="408" y="424"/>
      <point x="484" y="424" type="curve" smooth="yes"/>
      <point x="549" y="424"/>
      <point x="591" y="376"/>
      <point x="591" y="301" type="curve" smooth="yes"/>
      <point x="591" y="257"/>
      <point x="578" y="212"/>
      <point x="551" y="168" type="curve"/>
    </contour>
    <contour>
      <point x="478" y="437" type="line"/>
      <point x="504" y="437" type="line"/>
      <point x="504" y="598" type="line"/>
      <point x="478" y="602" type="line"/>
    </contour>
  </outline>
</glyph>
<glyph name="kagujr" format="2">
  <advance width="460"/>
  <unicode hex="0A95"/>
  <outline>
    <contour>
      <point x="225" y="-10" type="curve" smooth="yes"/>
      <point x="336" y="-10"/>
      <point x="398" y="54"/>
      <point x="398" y="135" type="curve" smooth="yes"/>
      <point x="398" y="227"/>
      <point x="328" y="276"/>
      <point x="258" y="320" type="curve"/>
      <point x="244" y="329" type="line"/>
      <point x="180" y="369"/>
      <point x="121" y="407"/>
      <point x="121" y="472" type="curve" smooth="yes"/>
      <point x="121" y="539"/>
      <point x="169" y="576"/>
      <point x="255" y="576" type="curve" smooth="yes"/>
      <point x="293" y="576"/>
      <point x="326" y="571"/>
      <point x="360" y="562" type="curve"/>
      <point x="366" y="588" type="line"/>
      <point x="327" y="597"/>
      <point x="295" y="602"/>
      <point x="255" y="602" type="curve" smooth="yes"/>
      <point x="155" y="602"/>
      <point x="94" y="552"/>
      <point x="94" y="472" type="curve" smooth="yes"/>
      <point x="94" y="399"/>
      <point x="152" y="358"/>
      <point x="215" y="318" type="curve"/>
      <point x="226" y="311" type="line"/>
      <point x="298" y="267"/>
      <point x="371" y="222"/>
      <point x="371" y="135" type="curve" smooth="yes"/>
      <point x="371" y="67"/>
      <point x="323" y="16"/>
      <point x="225" y="16" type="curve" smooth="yes"/>
      <point x="154" y="16"/>
      <point x="99" y="41"/>
      <point x="37" y="85" type="curve"/>
      <point x="22" y="63" type="line"/>
      <point x="84" y="19"/>
      <point x="147" y="-10"/>
    </contour>
    <contour>
      <point x="51" y="238" type="line"/>
      <point x="248" y="308" type="line"/>
      <point x="448" y="379" type="line"/>
      <point x="439" y="404" type="line"/>
      <point x="225" y="327" type="line"/>
      <point x="42" y="262" type="line"/>
    </contour>
  </outline>
</glyph>
<glyph name="ghagujr" format="2">
  <advance width="594"/>
  <unicode hex="0A98"/>
  <outline>
    <contour>
      <point x="266" y="117" type="curve" smooth="yes"/>
      <point x="341" y="117"/>
      <point x="400" y="141"/>
      <point x="467" y="201" type="curve"/>
      <point x="467" y="237" type="line"/>
      <point x="401" y="170"/>
      <point x="343" y="143"/>
      <point x="266" y="143" type="curve" smooth="yes"/>
      <point x="176" y="143"/>
      <point x="119" y="189"/>
      <point x="119" y="261" type="curve" smooth="yes"/>
      <point x="119" y="327"/>
      <point x="171" y="374"/>
      <point x="247" y="374" type="curve" smooth="yes"/>
      <point x="267" y="374"/>
      <point x="284" y="372"/>
      <point x="299" y="369" type="curve"/>
      <point x="303" y="394" type="line"/>
      <point x="285" y="398"/>
      <point x="267" y="400"/>
      <point x="247" y="400" type="curve" smooth="yes"/>
      <point x="157" y="400"/>
      <point x="92" y="342"/>
      <point x="92" y="261" type="curve" smooth="yes"/>
      <point x="92" y="177"/>
      <point x="164" y="117"/>
    </contour>
    <contour>
      <point x="145" y="350" type="curve"/>
      <point x="167" y="366" type="line"/>
      <point x="116" y="390"/>
      <point x="81" y="428"/>
      <point x="81" y="481" type="curve" smooth="yes"/>
      <point x="81" y="537"/>
      <point x="122" y="577"/>
      <point x="198" y="577" type="curve" smooth="yes"/>
      <point x="222" y="577"/>
      <point x="249" y="574"/>
      <point x="278" y="566" type="curve"/>
      <point x="284" y="591" type="line"/>
      <point x="255" y="599"/>
      <point x="226" y="603"/>
      <point x="199" y="603" type="curve" smooth="yes"/>
      <point x="112" y="603"/>
      <point x="54" y="554"/>
      <point x="54" y="481" type="curve" smooth="yes"/>
      <point x="54" y="420"/>
      <point x="94" y="380"/>
    </contour>
    <contour>
      <point x="580" y="0" type="curve" smooth="yes"/>
      <point x="589" y="0" type="line"/>
      <point x="592" y="26" type="line"/>
      <point x="559" y="26"/>
      <point x="536" y="29"/>
      <point x="518" y="41" type="curve" smooth="yes"/>
      <point x="496" y="56"/>
      <point x="486" y="80"/>
      <point x="486" y="129" type="curve" smooth="yes"/>
      <point x="486" y="598" type="line"/>
      <point x="460" y="602" type="line"/>
      <point x="460" y="128" type="line" smooth="yes"/>
      <point x="460" y="74"/>
      <point x="475" y="43"/>
      <point x="499" y="23" type="curve" smooth="yes"/>
      <point x="520" y="6"/>
      <point x="546" y="0"/>
    </contour>
  </outline>
</glyph>
<glyph name="ngagujr" format="2">
  <advance width="435"/>
  <unicode hex="0A99"/>
  <outline>
    <contour>
      <point x="345" y="400" type="curve" smooth="yes"/>
      <point x="362" y="400"/>
      <point x="375" y="412"/>
      <point x="375" y="438" type="curve" smooth="yes"/>
      <point x="375" y="461"/>
      <point x="364" y="476"/>
      <point x="345" y="476" type="curve" smooth="yes"/>
      <point x="327" y="476"/>
      <point x="314" y="462"/>
      <point x="314" y="438" type="curve" smooth="yes"/>
      <point x="314" y="413"/>
      <point x="329" y="400"/>
    </contour>
    <contour>
      <point x="244" y="-10" type="curve" smooth="yes"/>
      <point x="337" y="-10"/>
      <point x="397" y="50"/>
      <point x="397" y="138" type="curve" smooth="yes"/>
      <point x="397" y="220"/>
      <point x="356" y="270"/>
      <point x="260" y="331" type="curve" smooth="yes"/>
      <point x="177" y="384"/>
      <point x="140" y="423"/>
      <point x="140" y="481" type="curve" smooth="yes"/>
      <point x="140" y="542"/>
      <point x="186" y="576"/>
      <point x="261" y="576" type="curve" smooth="yes"/>
      <point x="291" y="576"/>
      <point x="316" y="573"/>
      <point x="342" y="567" type="curve"/>
      <point x="348" y="593" type="line"/>
      <point x="317" y="599"/>
      <point x="292" y="602"/>
      <point x="261" y="602" type="curve" smooth="yes"/>
      <point x="170" y="602"/>
      <point x="113" y="556"/>
      <point x="113" y="481" type="curve" smooth="yes"/>
      <point x="113" y="412"/>
      <point x="154" y="367"/>
      <point x="246" y="308" type="curve" smooth="yes"/>
      <point x="338" y="249"/>
      <point x="370" y="211"/>
      <point x="370" y="138" type="curve" smooth="yes"/>
      <point x="370" y="63"/>
      <point x="321" y="16"/>
      <point x="245" y="16" type="curve" smooth="yes"/>
      <point x="150" y="16"/>
      <point x="91" y="72"/>
      <point x="37" y="162" type="curve"/>
      <point x="13" y="147" type="line"/>
      <point x="77" y="44"/>
      <point x="142" y="-10"/>
    </contour>
  </outline>
</glyph>
<glyph name="cagujr" format="2">
  <advance width="628"/>
  <unicode hex="0A9A"/>
  <outline>
    <contour>
      <point x="337" y="141" type="curve" smooth="yes"/>
      <point x="412" y="141"/>
      <point x="466" y="172"/>
      <point x="503" y="215" type="curve"/>
      <point x="503" y="250" type="line"/>
      <point x="459" y="198"/>
      <point x="414" y="167"/>
      <point x="337" y="167" type="curve" smooth="yes"/>
      <point x="253" y="167"/>
      <point x="194" y="201"/>
      <point x="156" y="269" type="curve"/>
      <point x="154" y="279" type="line"/>
      <point x="139" y="299"/>
      <point x="118" y="326"/>
      <point x="81" y="326" type="curve" smooth="yes"/>
      <point x="55" y="326"/>
      <point x="42" y="314"/>
      <point x="42" y="294" type="curve" smooth="yes"/>
      <point x="42" y="268"/>
      <point x="64" y="254"/>
      <point x="109" y="254" type="curve" smooth="yes"/>
      <point x="232" y="254"/>
      <point x="325" y="330"/>
      <point x="325" y="435" type="curve" smooth="yes"/>
      <point x="325" y="528"/>
      <point x="259" y="602"/>
      <point x="147" y="602" type="curve" smooth="yes"/>
      <point x="107" y="602"/>
      <point x="72" y="595"/>
      <point x="38" y="582" type="curve"/>
      <point x="48" y="555" type="line"/>
      <point x="80" y="567"/>
      <point x="114" y="576"/>
      <point x="146" y="576" type="curve" smooth="yes"/>
      <point x="248" y="576"/>
      <point x="298" y="516"/>
      <point x="298" y="435" type="curve" smooth="yes"/>
      <point x="298" y="350"/>
      <point x="233" y="291"/>
      <point x="129" y="281" type="curve"/>
      <point x="128" y="278" type="line"/>
      <point x="127" y="268" type="line"/>
      <point x="171" y="186"/>
      <point x="244" y="141"/>
    </contour>
    <contour>
      <point x="614" y="0" type="curve" smooth="yes"/>
      <point x="623" y="0" type="line"/>
      <point x="626" y="26" type="line"/>
      <point x="593" y="26"/>
      <point x="570" y="29"/>
      <point x="552" y="41" type="curve" smooth="yes"/>
      <point x="530" y="56"/>
      <point x="520" y="80"/>
      <point x="520" y="129" type="curve" smooth="yes"/>
      <point x="520" y="598" type="line"/>
      <point x="494" y="602" type="line"/>
      <point x="494" y="128" type="line" smooth="yes"/>
      <point x="494" y="74"/>
      <point x="509" y="43"/>
      <point x="533" y="23" type="curve" smooth="yes"/>
      <point x="554" y="6"/>
      <point x="580" y="0"/>
    </contour>
  </outline>
</glyph>
<glyph name="chagujr" format="2">
  <advance width="702"/>
  <unicode hex="0A9B"/>
  <outline>
    <contour>
      <point x="315" y="-10" type="curve" smooth="yes"/>
      <point x="511" y="-10"/>
      <point x="655" y="160"/>
      <point x="655" y="378" type="curve" smooth="yes"/>
      <point x="655" y="511"/>
      <point x="602" y="602"/>
      <point x="504" y="602" type="curve" smooth="yes"/>
      <point x="425" y="602"/>
      <point x="375" y="546"/>
      <point x="375" y="470" type="curve" smooth="yes"/>
      <point x="375" y="372"/>
      <point x="447" y="310"/>
      <point x="570" y="282" type="curve"/>
      <point x="578" y="307" type="line"/>
      <point x="475" y="328"/>
      <point x="402" y="376"/>
      <point x="402" y="470" type="curve" smooth="yes"/>
      <point x="402" y="531"/>
      <point x="438" y="576"/>
      <point x="504" y="576" type="curve" smooth="yes"/>
      <point x="587" y="576"/>
      <point x="628" y="497"/>
      <point x="628" y="378" type="curve" smooth="yes"/>
      <point x="628" y="174"/>
      <point x="497" y="16"/>
      <point x="315" y="16" type="curve" smooth="yes"/>
      <point x="203" y="16"/>
      <point x="124" y="76"/>
      <point x="124" y="171" type="curve" smooth="yes"/>
      <point x="124" y="260"/>
      <point x="186" y="319"/>
      <point x="282" y="319" type="curve" smooth="yes"/>
      <point x="294" y="319"/>
      <point x="305" y="318"/>
      <point x="316" y="316" type="curve"/>
      <point x="320" y="342" type="line"/>
      <point x="308" y="344"/>
      <point x="296" y="345"/>
      <point x="282" y="345" type="curve" smooth="yes"/>
      <point x="173" y="345"/>
      <point x="97" y="273"/>
      <point x="97" y="171" type="curve" smooth="yes"/>
      <point x="97" y="63"/>
      <point x="191" y="-10"/>
    </contour>
    <contour>
      <point x="174" y="297" type="curve"/>
      <point x="189" y="317" type="line"/>
      <point x="123" y="347"/>
      <point x="81" y="391"/>
      <point x="81" y="459" type="curve" smooth="yes"/>
      <point x="81" y="535"/>
      <point x="138" y="576"/>
      <point x="217" y="576" type="curve" smooth="yes"/>
      <point x="244" y="576"/>
      <point x="265" y="573"/>
      <point x="287" y="568" type="curve"/>
      <point x="293" y="593" type="line"/>
      <point x="268" y="599"/>
      <point x="246" y="602"/>
      <point x="217" y="602" type="curve" smooth="yes"/>
      <point x="123" y="602"/>
      <point x="54" y="550"/>
      <point x="54" y="459" type="curve" smooth="yes"/>
      <point x="54" y="383"/>
      <point x="103" y="331"/>
    </contour>
  </outline>
</glyph>
<glyph name="jagujr" format="2">
  <advance width="774"/>
  <unicode hex="0A9C"/>
  <outline>
    <contour>
      <point x="507" y="-10" type="curve" smooth="yes"/>
      <point x="599" y="-10"/>
      <point x="659" y="44"/>
      <point x="659" y="161" type="curve" smooth="yes"/>
      <point x="659" y="271"/>
      <point x="616" y="357"/>
      <point x="548" y="437" type="curve" smooth="yes"/>
      <point x="460" y="541"/>
      <point x="348" y="602"/>
      <point x="230" y="602" type="curve" smooth="yes"/>
      <point x="123" y="602"/>
      <point x="43" y="538"/>
      <point x="43" y="439" type="curve" smooth="yes"/>
      <point x="43" y="351"/>
      <point x="99" y="299"/>
      <point x="176" y="299" type="curve" smooth="yes"/>
      <point x="261" y="299"/>
      <point x="312" y="343"/>
      <point x="312" y="438" type="curve" smooth="yes"/>
      <point x="312" y="504"/>
      <point x="285" y="554"/>
      <point x="240" y="592" type="curve"/>
      <point x="209" y="592" type="line"/>
      <point x="260" y="548"/>
      <point x="285" y="499"/>
      <point x="285" y="438" type="curve" smooth="yes"/>
      <point x="285" y="361"/>
      <point x="246" y="325"/>
      <point x="176" y="325" type="curve" smooth="yes"/>
      <point x="119" y="325"/>
      <point x="70" y="361"/>
      <point x="70" y="439" type="curve" smooth="yes"/>
      <point x="70" y="525"/>
      <point x="138" y="577"/>
      <point x="228" y="577" type="curve" smooth="yes"/>
      <point x="337" y="577"/>
      <point x="445" y="520"/>
      <point x="529" y="421" type="curve" smooth="yes"/>
      <point x="593" y="346"/>
      <point x="632" y="266"/>
      <point x="632" y="161" type="curve" smooth="yes"/>
      <point x="632" y="64"/>
      <point x="585" y="16"/>
      <point x="508" y="16" type="curve" smooth="yes"/>
      <point x="428" y="16"/>
      <point x="382" y="71"/>
      <point x="382" y="159" type="curve" smooth="yes"/>
      <point x="382" y="259"/>
      <point x="443" y="334"/>
      <point x="544" y="412" type="curve"/>
      <point x="616" y="468"/>
      <point x="671" y="510"/>
      <point x="772" y="582" type="curve"/>
      <point x="756" y="603" type="line"/>
      <point x="656" y="530"/>
      <point x="600" y="488"/>
      <point x="526" y="431" type="curve" smooth="yes"/>
      <point x="421" y="349"/>
      <point x="355" y="267"/>
      <point x="355" y="159" type="curve" smooth="yes"/>
      <point x="355" y="61"/>
      <point x="409" y="-10"/>
    </contour>
  </outline>
</glyph>
<glyph name="jhagujr" format="2">
  <advance width="671"/>
  <unicode hex="0A9D"/>
  <outline>
    <contour>
      <point x="194" y="-10" type="curve" smooth="yes"/>
      <point x="321" y="-10"/>
      <point x="366" y="99"/>
      <point x="366" y="238" type="curve" smooth="yes"/>
      <point x="366" y="400"/>
      <point x="298" y="492"/>
      <point x="177" y="492" type="curve" smooth="yes"/>
      <point x="130" y="492"/>
      <point x="89" y="480"/>
      <point x="49" y="459" type="curve"/>
      <point x="60" y="436" type="line"/>
      <point x="99" y="456"/>
      <point x="139" y="466"/>
      <point x="177" y="466" type="curve" smooth="yes"/>
      <point x="282" y="466"/>
      <point x="339" y="386"/>
      <point x="339" y="238" type="curve" smooth="yes"/>
      <point x="339" y="122"/>
      <point x="311" y="16"/>
      <point x="194" y="16" type="curve" smooth="yes"/>
      <point x="124" y="16"/>
      <point x="73" y="59"/>
      <point x="35" y="140" type="curve"/>
      <point x="12" y="129" type="line"/>
      <point x="53" y="43"/>
      <point x="113" y="-10"/>
    </contour>
    <contour>
      <point x="485" y="-6" type="line"/>
      <point x="572" y="60"/>
      <point x="619" y="131"/>
      <point x="619" y="232" type="curve" smooth="yes"/>
      <point x="619" y="334"/>
      <point x="551" y="412"/>
      <point x="454" y="412" type="curve" smooth="yes"/>
      <point x="409" y="412"/>
      <point x="366" y="397"/>
      <point x="325" y="370" type="curve"/>
      <point x="338" y="346" type="line"/>
      <point x="376" y="373"/>
      <point x="413" y="386"/>
      <point x="455" y="386" type="curve" smooth="yes"/>
      <point x="537" y="386"/>
      <point x="592" y="323"/>
      <point x="592" y="232" type="curve" smooth="yes"/>
      <point x="592" y="139"/>
      <point x="548" y="75"/>
      <point x="466" y="15" type="curve"/>
    </contour>
    <contour>
      <point x="471" y="398" type="line"/>
      <point x="497" y="398" type="line"/>
      <point x="497" y="598" type="line"/>
      <point x="471" y="602" type="line"/>
    </contour>
  </outline>
</glyph>
<glyph name="nyagujr" format="2">
  <advance width="645"/>
  <unicode hex="0A9E"/>
  <outline>
    <contour>
      <point x="194" y="193" type="curve" smooth="yes"/>
      <point x="302" y="193"/>
      <point x="348" y="271"/>
      <point x="348" y="389" type="curve" smooth="yes"/>
      <point x="348" y="516"/>
      <point x="296" y="602"/>
      <point x="177" y="602" type="curve" smooth="yes"/>
      <point x="134" y="602"/>
      <point x="92" y="591"/>
      <point x="54" y="575" type="curve"/>
      <point x="64" y="549" type="line"/>
      <point x="100" y="564"/>
      <point x="139" y="576"/>
      <point x="177" y="576" type="curve" smooth="yes"/>
      <point x="282" y="576"/>
      <point x="321" y="503"/>
      <point x="321" y="389" type="curve" smooth="yes"/>
      <point x="321" y="285"/>
      <point x="288" y="219"/>
      <point x="194" y="219" type="curve" smooth="yes"/>
      <point x="126" y="219"/>
      <point x="78" y="259"/>
      <point x="35" y="332" type="curve"/>
      <point x="11" y="317" type="line"/>
      <point x="62" y="236"/>
      <point x="118" y="193"/>
    </contour>
    <contour>
      <point x="413" y="356" type="curve" smooth="yes"/>
      <point x="462" y="356"/>
      <point x="503" y="372"/>
      <point x="535" y="401" type="curve"/>
      <point x="535" y="440" type="line"/>
      <point x="505" y="403"/>
      <point x="462" y="382"/>
      <point x="409" y="382" type="curve" smooth="yes"/>
      <point x="381" y="382"/>
      <point x="353" y="389"/>
      <point x="328" y="404" type="curve"/>
      <point x="328" y="377" type="line"/>
      <point x="353" y="363"/>
      <point x="383" y="356"/>
    </contour>
    <contour>
      <point x="631" y="0" type="curve" smooth="yes"/>
      <point x="640" y="0" type="line"/>
      <point x="643" y="26" type="line"/>
      <point x="610" y="26"/>
      <point x="587" y="29"/>
      <point x="569" y="41" type="curve" smooth="yes"/>
      <point x="547" y="56"/>
      <point x="537" y="80"/>
      <point x="537" y="129" type="curve" smooth="yes"/>
      <point x="537" y="598" type="line"/>
      <point x="511" y="602" type="line"/>
      <point x="511" y="128" type="line" smooth="yes"/>
      <point x="511" y="74"/>
      <point x="526" y="43"/>
      <point x="550" y="23" type="curve" smooth="yes"/>
      <point x="571" y="6"/>
      <point x="597" y="0"/>
    </contour>
  </outline>
</glyph>
<glyph name="ttagujr" format="2">
  <advance width="420"/>
  <unicode hex="0A9F"/>
  <outline>
    <contour>
      <point x="237" y="-10" type="curve" smooth="yes"/>
      <point x="306" y="-10"/>
      <point x="350" y="5"/>
      <point x="414" y="44" type="curve"/>
      <point x="400" y="68" type="line"/>
      <point x="339" y="29"/>
      <point x="298" y="16"/>
      <point x="237" y="16" type="curve" smooth="yes"/>
      <point x="140" y="16"/>
      <point x="81" y="67"/>
      <point x="81" y="144" type="curve" smooth="yes"/>
      <point x="81" y="217"/>
      <point x="123" y="260"/>
      <point x="219" y="315" type="curve" smooth="yes"/>
      <point x="324" y="375"/>
      <point x="370" y="414"/>
      <point x="370" y="486" type="curve" smooth="yes"/>
      <point x="370" y="559"/>
      <point x="316" y="603"/>
      <point x="226" y="603" type="curve" smooth="yes"/>
      <point x="182" y="603"/>
      <point x="139" y="594"/>
      <point x="96" y="576" type="curve"/>
      <point x="105" y="551" type="line"/>
      <point x="149" y="569"/>
      <point x="189" y="577"/>
      <point x="226" y="577" type="curve" smooth="yes"/>
      <point x="302" y="577"/>
      <point x="343" y="546"/>
      <point x="343" y="486" type="curve" smooth="yes"/>
      <point x="343" y="425"/>
      <point x="301" y="393"/>
      <point x="203" y="337" type="curve" smooth="yes"/>
      <point x="97" y="276"/>
      <point x="54" y="227"/>
      <point x="54" y="144" type="curve" smooth="yes"/>
      <point x="54" y="53"/>
      <point x="126" y="-10"/>
    </contour>
  </outline>
</glyph>
<glyph name="tthagujr" format="2">
  <advance width="477"/>
  <unicode hex="0AA0"/>
  <outline>
    <contour>
      <point x="243" y="-10" type="curve" smooth="yes"/>
      <point x="362" y="-10"/>
      <point x="437" y="54"/>
      <point x="437" y="155" type="curve" smooth="yes"/>
      <point x="437" y="242"/>
      <point x="390" y="295"/>
      <point x="289" y="358" type="curve" smooth="yes"/>
      <point x="207" y="409"/>
      <point x="178" y="440"/>
      <point x="178" y="491" type="curve" smooth="yes"/>
      <point x="178" y="543"/>
      <point x="219" y="576"/>
      <point x="291" y="576" type="curve" smooth="yes"/>
      <point x="324" y="576"/>
      <point x="347" y="572"/>
      <point x="374" y="565" type="curve"/>
      <point x="380" y="591" type="line"/>
      <point x="345" y="599"/>
      <point x="320" y="602"/>
      <point x="291" y="602" type="curve" smooth="yes"/>
      <point x="206" y="602"/>
      <point x="151" y="559"/>
      <point x="151" y="491" type="curve" smooth="yes"/>
      <point x="151" y="425"/>
      <point x="196" y="386"/>
      <point x="265" y="344" type="curve"/>
      <point x="285" y="331" type="line"/>
      <point x="367" y="281"/>
      <point x="410" y="233"/>
      <point x="410" y="156" type="curve" smooth="yes"/>
      <point x="410" y="68"/>
      <point x="347" y="16"/>
      <point x="243" y="16" type="curve" smooth="yes"/>
      <point x="134" y="16"/>
      <point x="79" y="80"/>
      <point x="79" y="163" type="curve" smooth="yes"/>
      <point x="79" y="261"/>
      <point x="161" y="326"/>
      <point x="274" y="326" type="curve" smooth="yes"/>
      <point x="301" y="326"/>
      <point x="316" y="325"/>
      <point x="330" y="323" type="curve"/>
      <point x="314" y="339" type="line"/>
      <point x="274" y="350" type="line"/>
      <point x="146" y="350"/>
      <point x="52" y="275"/>
      <point x="52" y="163" type="curve" smooth="yes"/>
      <point x="52" y="62"/>
      <point x="123" y="-10"/>
    </contour>
  </outline>
</glyph>
<glyph name="ddhagujr" format="2">
  <advance width="480"/>
  <unicode hex="0AA2"/>
  <outline>
    <contour>
      <point x="259" y="-10" type="curve" smooth="yes"/>
      <point x="384" y="-10"/>
      <point x="450" y="46"/>
      <point x="450" y="133" type="curve" smooth="yes"/>
      <point x="450" y="208"/>
      <point x="400" y="246"/>
      <point x="340" y="246" type="curve" smooth="yes"/>
      <point x="268" y="246"/>
      <point x="221" y="196"/>
      <point x="221" y="130" type="curve" smooth="yes"/>
      <point x="221" y="79"/>
      <point x="240" y="43"/>
      <point x="268" y="2" type="curve"/>
      <point x="292" y="12" type="line"/>
      <point x="263" y="51"/>
      <point x="248" y="88"/>
      <point x="248" y="128" type="curve" smooth="yes"/>
      <point x="248" y="180"/>
      <point x="281" y="220"/>
      <point x="340" y="220" type="curve" smooth="yes"/>
      <point x="386" y="220"/>
      <point x="423" y="192"/>
      <point x="423" y="133" type="curve" smooth="yes"/>
      <point x="423" y="62"/>
      <point x="365" y="15"/>
      <point x="268" y="15" type="curve" smooth="yes"/>
      <point x="254" y="15" type="line" smooth="yes"/>
      <point x="146" y="15"/>
      <point x="81" y="62"/>
      <point x="81" y="152" type="curve" smooth="yes"/>
      <point x="81" y="230"/>
      <point x="124" y="265"/>
      <point x="195" y="308" type="curve" smooth="yes"/>
      <point x="258" y="346" type="line" smooth="yes"/>
      <point x="335" y="392"/>
      <point x="368" y="427"/>
      <point x="368" y="490" type="curve" smooth="yes"/>
      <point x="368" y="559"/>
      <point x="323" y="603"/>
      <point x="229" y="603" type="curve" smooth="yes"/>
      <point x="186" y="603"/>
      <point x="137" y="592"/>
      <point x="99" y="578" type="curve"/>
      <point x="109" y="552" type="line"/>
      <point x="146" y="566"/>
      <point x="190" y="577"/>
      <point x="227" y="577" type="curve" smooth="yes"/>
      <point x="306" y="577"/>
      <point x="341" y="546"/>
      <point x="341" y="490" type="curve" smooth="yes"/>
      <point x="341" y="439"/>
      <point x="315" y="412"/>
      <point x="243" y="368" type="curve" smooth="yes"/>
      <point x="180" y="330" type="line" smooth="yes"/>
      <point x="100" y="282"/>
      <point x="54" y="235"/>
      <point x="54" y="153" type="curve" smooth="yes"/>
      <point x="54" y="44"/>
      <point x="131" y="-10"/>
    </contour>
  </outline>
</glyph>
<glyph name="thagujr" format="2">
  <advance width="587"/>
  <unicode hex="0AA5"/>
  <outline>
    <contour>
      <point x="276" y="156" type="curve" smooth="yes"/>
      <point x="362" y="156"/>
      <point x="430" y="193"/>
      <point x="469" y="239" type="curve"/>
      <point x="469" y="277" type="line"/>
      <point x="424" y="220"/>
      <point x="361" y="182"/>
      <point x="276" y="182" type="curve" smooth="yes"/>
      <point x="183" y="182"/>
      <point x="127" y="216"/>
      <point x="89" y="301" type="curve"/>
      <point x="80" y="286" type="line"/>
      <point x="216" y="331"/>
      <point x="278" y="389"/>
      <point x="278" y="485" type="curve" smooth="yes"/>
      <point x="278" y="555"/>
      <point x="231" y="602"/>
      <point x="163" y="602" type="curve" smooth="yes"/>
      <point x="92" y="602"/>
      <point x="46" y="558"/>
      <point x="46" y="493" type="curve" smooth="yes"/>
      <point x="46" y="447"/>
      <point x="70" y="414"/>
      <point x="109" y="388" type="curve"/>
      <point x="125" y="408" type="line"/>
      <point x="92" y="428"/>
      <point x="73" y="455"/>
      <point x="73" y="493" type="curve" smooth="yes"/>
      <point x="73" y="543"/>
      <point x="108" y="576"/>
      <point x="163" y="576" type="curve" smooth="yes"/>
      <point x="216" y="576"/>
      <point x="251" y="540"/>
      <point x="251" y="485" type="curve" smooth="yes"/>
      <point x="251" y="397"/>
      <point x="189" y="347"/>
      <point x="60" y="307" type="curve"/>
      <point x="99" y="201"/>
      <point x="169" y="156"/>
    </contour>
    <contour>
      <point x="573" y="0" type="curve" smooth="yes"/>
      <point x="582" y="0" type="line"/>
      <point x="585" y="26" type="line"/>
      <point x="552" y="26"/>
      <point x="529" y="29"/>
      <point x="511" y="41" type="curve" smooth="yes"/>
      <point x="489" y="56"/>
      <point x="479" y="80"/>
      <point x="479" y="129" type="curve" smooth="yes"/>
      <point x="479" y="598" type="line"/>
      <point x="453" y="602" type="line"/>
      <point x="453" y="128" type="line" smooth="yes"/>
      <point x="453" y="74"/>
      <point x="468" y="43"/>
      <point x="492" y="23" type="curve" smooth="yes"/>
      <point x="513" y="6"/>
      <point x="539" y="0"/>
    </contour>
  </outline>
</glyph>
<glyph name="dagujr" format="2">
  <advance width="446"/>
  <unicode hex="0AA6"/>
  <outline>
    <contour>
      <point x="292" y="-10" type="curve" smooth="yes"/>
      <point x="380" y="-10"/>
      <point x="455" y="32"/>
      <point x="455" y="90" type="curve" smooth="yes"/>
      <point x="455" y="116"/>
      <point x="437" y="134"/>
      <point x="410" y="134" type="curve" smooth="yes"/>
      <point x="384" y="134"/>
      <point x="365" y="115"/>
      <point x="365" y="89" type="curve" smooth="yes"/>
      <point x="365" y="69"/>
      <point x="378" y="52"/>
      <point x="400" y="43" type="curve"/>
      <point x="400" y="48" type="line"/>
      <point x="373" y="26"/>
      <point x="336" y="16"/>
      <point x="292" y="16" type="curve" smooth="yes"/>
      <point x="199" y="16"/>
      <point x="125" y="74"/>
      <point x="125" y="168" type="curve" smooth="yes"/>
      <point x="125" y="266"/>
      <point x="203" y="317"/>
      <point x="295" y="317" type="curve" smooth="yes"/>
      <point x="316" y="317"/>
      <point x="339" y="315"/>
      <point x="361" y="310" type="curve"/>
      <point x="366" y="335" type="line"/>
      <point x="343" y="340"/>
      <point x="320" y="343"/>
      <point x="295" y="343" type="curve" smooth="yes"/>
      <point x="189" y="343"/>
      <point x="98" y="280"/>
      <point x="98" y="168" type="curve" smooth="yes"/>
      <point x="98" y="60"/>
      <point x="185" y="-10"/>
    </contour>
    <contour>
      <point x="175" y="290" type="curve"/>
      <point x="191" y="310" type="line"/>
      <point x="122" y="344"/>
      <point x="81" y="392"/>
      <point x="81" y="457" type="curve" smooth="yes"/>
      <point x="81" y="534"/>
      <point x="141" y="577"/>
      <point x="225" y="577" type="curve" smooth="yes"/>
      <point x="258" y="577"/>
      <point x="289" y="573"/>
      <point x="321" y="565" type="curve"/>
      <point x="326" y="591" type="line"/>
      <point x="294" y="598"/>
      <point x="261" y="603"/>
      <point x="225" y="603" type="curve" smooth="yes"/>
      <point x="127" y="603"/>
      <point x="54" y="548"/>
      <point x="54" y="457" type="curve" smooth="yes"/>
      <point x="54" y="384"/>
      <point x="103" y="327"/>
    </contour>
  </outline>
</glyph>
<glyph name="dhagujr" format="2">
  <advance width="569"/>
  <unicode hex="0AA7"/>
  <outline>
    <contour>
      <point x="265" y="117" type="curve" smooth="yes"/>
      <point x="336" y="117"/>
      <point x="391" y="138"/>
      <point x="454" y="189" type="curve"/>
      <point x="454" y="226" type="line"/>
      <point x="392" y="167"/>
      <point x="338" y="143"/>
      <point x="265" y="143" type="curve" smooth="yes"/>
      <point x="176" y="143"/>
      <point x="120" y="189"/>
      <point x="120" y="261" type="curve" smooth="yes"/>
      <point x="120" y="327"/>
      <point x="172" y="374"/>
      <point x="248" y="374" type="curve" smooth="yes"/>
      <point x="268" y="374"/>
      <point x="285" y="372"/>
      <point x="300" y="369" type="curve"/>
      <point x="304" y="394" type="line"/>
      <point x="286" y="398"/>
      <point x="268" y="400"/>
      <point x="248" y="400" type="curve" smooth="yes"/>
      <point x="158" y="400"/>
      <point x="93" y="342"/>
      <point x="93" y="261" type="curve" smooth="yes"/>
      <point x="93" y="177"/>
      <point x="164" y="117"/>
    </contour>
    <contour>
      <point x="143" y="350" type="curve"/>
      <point x="165" y="366" type="line"/>
      <point x="112" y="393"/>
      <point x="81" y="436"/>
      <point x="81" y="484" type="curve" smooth="yes"/>
      <point x="81" y="551"/>
      <point x="137" y="589"/>
      <point x="215" y="614" type="curve"/>
      <point x="206" y="638" type="line"/>
      <point x="113" y="607"/>
      <point x="54" y="562"/>
      <point x="54" y="484" type="curve" smooth="yes"/>
      <point x="54" y="426"/>
      <point x="88" y="385"/>
    </contour>
    <contour>
      <point x="555" y="0" type="curve" smooth="yes"/>
      <point x="564" y="0" type="line"/>
      <point x="567" y="26" type="line"/>
      <point x="534" y="26"/>
      <point x="511" y="29"/>
      <point x="493" y="41" type="curve" smooth="yes"/>
      <point x="471" y="56"/>
      <point x="461" y="80"/>
      <point x="461" y="129" type="curve" smooth="yes"/>
      <point x="461" y="598" type="line"/>
      <point x="435" y="602" type="line"/>
      <point x="435" y="128" type="line" smooth="yes"/>
      <point x="435" y="74"/>
      <point x="450" y="43"/>
      <point x="474" y="23" type="curve" smooth="yes"/>
      <point x="495" y="6"/>
      <point x="521" y="0"/>
    </contour>
  </outline>
</glyph>
<glyph name="pagujr" format="2">
  <advance width="543"/>
  <unicode hex="0AAA"/>
  <outline>
    <contour>
      <point x="263" y="171" type="curve" smooth="yes"/>
      <point x="321" y="171"/>
      <point x="378" y="195"/>
      <point x="420" y="234" type="curve"/>
      <point x="420" y="269" type="line"/>
      <point x="369" y="220"/>
      <point x="321" y="197"/>
      <point x="263" y="197" type="curve" smooth="yes"/>
      <point x="227" y="197"/>
      <point x="198" y="206"/>
      <point x="176" y="224" type="curve" smooth="yes"/>
      <point x="149" y="247"/>
      <point x="134" y="282"/>
      <point x="134" y="330" type="curve" smooth="yes"/>
      <point x="134" y="464" type="line" smooth="yes"/>
      <point x="134" y="505"/>
      <point x="127" y="536"/>
      <point x="110" y="557" type="curve" smooth="yes"/>
      <point x="92" y="580"/>
      <point x="63" y="592"/>
      <point x="22" y="592" type="curve" smooth="yes"/>
      <point x="15" y="592" type="line"/>
      <point x="12" y="566" type="line"/>
      <point x="52" y="566"/>
      <point x="77" y="558"/>
      <point x="91" y="539" type="curve" smooth="yes"/>
      <point x="103" y="523"/>
      <point x="108" y="499"/>
      <point x="108" y="464" type="curve" smooth="yes"/>
      <point x="108" y="330" type="line" smooth="yes"/>
      <point x="108" y="275"/>
      <point x="127" y="231"/>
      <point x="160" y="204" type="curve" smooth="yes"/>
      <point x="186" y="183"/>
      <point x="221" y="171"/>
    </contour>
    <contour>
      <point x="529" y="0" type="curve" smooth="yes"/>
      <point x="538" y="0" type="line"/>
      <point x="541" y="26" type="line"/>
      <point x="508" y="26"/>
      <point x="485" y="29"/>
      <point x="467" y="41" type="curve" smooth="yes"/>
      <point x="445" y="56"/>
      <point x="435" y="80"/>
      <point x="435" y="129" type="curve" smooth="yes"/>
      <point x="435" y="598" type="line"/>
      <point x="409" y="602" type="line"/>
      <point x="409" y="128" type="line" smooth="yes"/>
      <point x="409" y="74"/>
      <point x="424" y="43"/>
      <point x="448" y="23" type="curve" smooth="yes"/>
      <point x="469" y="6"/>
      <point x="495" y="0"/>
    </contour>
  </outline>
</glyph>
<glyph name="phagujr" format="2">
  <advance width="460"/>
  <unicode hex="0AAB"/>
  <outline>
    <contour>
      <point x="345" y="-153" type="curve" smooth="yes"/>
      <point x="363" y="-153" type="line"/>
      <point x="366" y="-127" type="line"/>
      <point x="345" y="-127" type="line" smooth="yes"/>
      <point x="262" y="-127"/>
      <point x="214" y="-85"/>
      <point x="150" y="15" type="curve"/>
      <point x="153" y="19" type="line"/>
      <point x="127" y="67"/>
      <point x="98" y="98"/>
      <point x="64" y="98" type="curve" smooth="yes"/>
      <point x="44" y="98"/>
      <point x="33" y="86"/>
      <point x="33" y="69" type="curve" smooth="yes"/>
      <point x="33" y="30"/>
      <point x="93" y="7"/>
      <point x="143" y="-2" type="curve" smooth="yes"/>
      <point x="168" y="-7"/>
      <point x="196" y="-10"/>
      <point x="225" y="-10" type="curve" smooth="yes"/>
      <point x="336" y="-10"/>
      <point x="398" y="54"/>
      <point x="398" y="135" type="curve" smooth="yes"/>
      <point x="398" y="227"/>
      <point x="328" y="276"/>
      <point x="258" y="320" type="curve"/>
      <point x="244" y="329" type="line"/>
      <point x="180" y="369"/>
      <point x="121" y="407"/>
      <point x="121" y="472" type="curve" smooth="yes"/>
      <point x="121" y="539"/>
      <point x="169" y="576"/>
      <point x="255" y="576" type="curve" smooth="yes"/>
      <point x="293" y="576"/>
      <point x="326" y="571"/>
      <point x="360" y="562" type="curve"/>
      <point x="366" y="588" type="line"/>
      <point x="327" y="597"/>
      <point x="295" y="602"/>
      <point x="255" y="602" type="curve" smooth="yes"/>
      <point x="155" y="602"/>
      <point x="94" y="552"/>
      <point x="94" y="472" type="curve" smooth="yes"/>
      <point x="94" y="399"/>
      <point x="152" y="358"/>
      <point x="215" y="318" type="curve"/>
      <point x="226" y="311" type="line"/>
      <point x="298" y="267"/>
      <point x="371" y="222"/>
      <point x="371" y="135" type="curve" smooth="yes"/>
      <point x="371" y="67"/>
      <point x="323" y="16"/>
      <point x="225" y="16" type="curve" smooth="yes"/>
      <point x="187" y="16"/>
      <point x="156" y="20"/>
      <point x="118" y="32" type="curve"/>
      <point x="113" y="27" type="line"/>
      <point x="196" y="-109"/>
      <point x="252" y="-153"/>
    </contour>
    <contour>
      <point x="51" y="238" type="line"/>
      <point x="248" y="308" type="line"/>
      <point x="448" y="379" type="line"/>
      <point x="439" y="403" type="line"/>
      <point x="225" y="327" type="line"/>
      <point x="42" y="262" type="line"/>
    </contour>
  </outline>
</glyph>
<glyph name="bhagujr" format="2">
  <advance width="764"/>
  <unicode hex="0AAD"/>
  <outline>
    <contour>
      <point x="235" y="66" type="curve"/>
      <point x="253" y="84" type="line"/>
      <point x="138" y="172"/>
      <point x="81" y="278"/>
      <point x="81" y="396" type="curve" smooth="yes"/>
      <point x="81" y="513"/>
      <point x="145" y="576"/>
      <point x="231" y="576" type="curve" smooth="yes"/>
      <point x="288" y="576"/>
      <point x="315" y="557"/>
      <point x="338" y="525" type="curve" smooth="yes"/>
      <point x="361" y="493"/>
      <point x="371" y="448"/>
      <point x="371" y="387" type="curve" smooth="yes"/>
      <point x="371" y="332" type="line"/>
      <point x="397" y="332" type="line"/>
      <point x="397" y="387" type="line" smooth="yes"/>
      <point x="397" y="456"/>
      <point x="384" y="509"/>
      <point x="355" y="546" type="curve" smooth="yes"/>
      <point x="329" y="579"/>
      <point x="293" y="602"/>
      <point x="231" y="602" type="curve" smooth="yes"/>
      <point x="125" y="602"/>
      <point x="54" y="518"/>
      <point x="54" y="396" type="curve" smooth="yes"/>
      <point x="54" y="268"/>
      <point x="117" y="159"/>
    </contour>
    <contour>
      <point x="365" y="233" type="curve" smooth="yes"/>
      <point x="385" y="233"/>
      <point x="397" y="245"/>
      <point x="397" y="274" type="curve" smooth="yes"/>
      <point x="397" y="306" type="line"/>
      <point x="645" y="306" type="line"/>
      <point x="645" y="332" type="line"/>
      <point x="337" y="332" type="line" smooth="yes"/>
      <point x="309" y="332"/>
      <point x="299" y="319"/>
      <point x="299" y="303" type="curve" smooth="yes"/>
      <point x="299" y="276"/>
      <point x="334" y="233"/>
    </contour>
    <contour>
      <point x="750" y="0" type="curve" smooth="yes"/>
      <point x="759" y="0" type="line"/>
      <point x="762" y="26" type="line"/>
      <point x="729" y="26"/>
      <point x="706" y="29"/>
      <point x="688" y="41" type="curve" smooth="yes"/>
      <point x="666" y="56"/>
      <point x="656" y="80"/>
      <point x="656" y="129" type="curve" smooth="yes"/>
      <point x="656" y="598" type="line"/>
      <point x="630" y="602" type="line"/>
      <point x="630" y="128" type="line" smooth="yes"/>
      <point x="630" y="74"/>
      <point x="645" y="43"/>
      <point x="669" y="23" type="curve" smooth="yes"/>
      <point x="690" y="6"/>
      <point x="716" y="0"/>
    </contour>
  </outline>
</glyph>
<glyph name="yagujr" format="2">
  <advance width="548"/>
  <unicode hex="0AAF"/>
  <outline>
    <contour>
      <point x="243" y="186" type="curve" smooth="yes"/>
      <point x="310" y="186"/>
      <point x="376" y="212"/>
      <point x="423" y="258" type="curve"/>
      <point x="423" y="297" type="line"/>
      <point x="378" y="243"/>
      <point x="312" y="212"/>
      <point x="243" y="212" type="curve" smooth="yes"/>
      <point x="161" y="212"/>
      <point x="117" y="250"/>
      <point x="81" y="318" type="curve"/>
      <point x="73" y="302" type="line"/>
      <point x="163" y="336"/>
      <point x="210" y="384"/>
      <point x="210" y="463" type="curve" smooth="yes"/>
      <point x="210" y="546"/>
      <point x="153" y="602"/>
      <point x="69" y="602" type="curve" smooth="yes"/>
      <point x="47" y="602"/>
      <point x="27" y="600"/>
      <point x="8" y="595" type="curve"/>
      <point x="16" y="569" type="line"/>
      <point x="31" y="573"/>
      <point x="47" y="576"/>
      <point x="69" y="576" type="curve" smooth="yes"/>
      <point x="139" y="576"/>
      <point x="183" y="532"/>
      <point x="183" y="463" type="curve" smooth="yes"/>
      <point x="183" y="390"/>
      <point x="134" y="351"/>
      <point x="49" y="324" type="curve"/>
      <point x="97" y="220"/>
      <point x="161" y="186"/>
    </contour>
    <contour>
      <point x="534" y="0" type="curve" smooth="yes"/>
      <point x="543" y="0" type="line"/>
      <point x="546" y="26" type="line"/>
      <point x="513" y="26"/>
      <point x="490" y="29"/>
      <point x="472" y="41" type="curve" smooth="yes"/>
      <point x="450" y="56"/>
      <point x="440" y="80"/>
      <point x="440" y="129" type="curve" smooth="yes"/>
      <point x="440" y="598" type="line"/>
      <point x="414" y="602" type="line"/>
      <point x="414" y="128" type="line" smooth="yes"/>
      <point x="414" y="74"/>
      <point x="429" y="43"/>
      <point x="453" y="23" type="curve" smooth="yes"/>
      <point x="474" y="6"/>
      <point x="500" y="0"/>
    </contour>
  </outline>
</glyph>
<glyph name="ragujr" format="2">
  <advance width="421"/>
  <unicode hex="0AB0"/>
  <guideline x="51" y="341" angle="270"/>
  <guideline x="364" y="416" angle="90"/>
  <outline>
    <contour>
      <point x="384" y="0" type="curve" smooth="yes"/>
      <point x="400" y="0" type="line"/>
      <point x="404" y="26" type="line"/>
      <point x="388" y="26" type="line" smooth="yes"/>
      <point x="296" y="26"/>
      <point x="241" y="87"/>
      <point x="156" y="224" type="curve"/>
      <point x="158" y="233" type="line"/>
      <point x="133" y="265"/>
      <point x="104" y="281"/>
      <point x="73" y="281" type="curve" smooth="yes"/>
      <point x="47" y="281"/>
      <point x="32" y="270"/>
      <point x="32" y="249" type="curve" smooth="yes"/>
      <point x="32" y="224"/>
      <point x="57" y="207"/>
      <point x="110" y="207" type="curve" smooth="yes"/>
      <point x="263" y="207"/>
      <point x="364" y="290"/>
      <point x="364" y="416" type="curve" smooth="yes"/>
      <point x="364" y="529"/>
      <point x="289" y="602"/>
      <point x="173" y="602" type="curve" smooth="yes"/>
      <point x="125" y="602"/>
      <point x="79" y="592"/>
      <point x="30" y="572" type="curve"/>
      <point x="40" y="547" type="line"/>
      <point x="88" y="566"/>
      <point x="131" y="576"/>
      <point x="173" y="576" type="curve" smooth="yes"/>
      <point x="277" y="576"/>
      <point x="337" y="517"/>
      <point x="337" y="416" type="curve" smooth="yes"/>
      <point x="337" y="309"/>
      <point x="256" y="238"/>
      <point x="127" y="233" type="curve"/>
      <point x="129" y="219" type="line"/>
      <point x="216" y="77"/>
      <point x="285" y="0"/>
    </contour>
  </outline>
</glyph>
<glyph name="lagujr" format="2">
  <advance width="605"/>
  <unicode hex="0AB2"/>
  <outline>
    <contour>
      <point x="269" y="113" type="curve" smooth="yes"/>
      <point x="313" y="113"/>
      <point x="358" y="124"/>
      <point x="393" y="141" type="curve"/>
      <point x="382" y="166" type="line"/>
      <point x="347" y="148"/>
      <point x="308" y="139"/>
      <point x="269" y="139" type="curve" smooth="yes"/>
      <point x="154" y="139"/>
      <point x="81" y="216"/>
      <point x="81" y="336" type="curve" smooth="yes"/>
      <point x="81" y="451"/>
      <point x="156" y="531"/>
      <point x="299" y="578" type="curve"/>
      <point x="289" y="602" type="line"/>
      <point x="135" y="551"/>
      <point x="54" y="461"/>
      <point x="54" y="336" type="curve" smooth="yes"/>
      <point x="54" y="202"/>
      <point x="139" y="113"/>
    </contour>
    <contour>
      <point x="210" y="328" type="line"/>
      <point x="480" y="384" type="line"/>
      <point x="480" y="410" type="line"/>
      <point x="203" y="354" type="line"/>
    </contour>
    <contour>
      <point x="591" y="0" type="curve" smooth="yes"/>
      <point x="600" y="0" type="line"/>
      <point x="603" y="26" type="line"/>
      <point x="570" y="26"/>
      <point x="547" y="29"/>
      <point x="529" y="41" type="curve" smooth="yes"/>
      <point x="507" y="56"/>
      <point x="497" y="80"/>
      <point x="497" y="129" type="curve" smooth="yes"/>
      <point x="497" y="598" type="line"/>
      <point x="471" y="602" type="line"/>
      <point x="471" y="128" type="line" smooth="yes"/>
      <point x="471" y="74"/>
      <point x="486" y="43"/>
      <point x="510" y="23" type="curve" smooth="yes"/>
      <point x="531" y="6"/>
      <point x="557" y="0"/>
    </contour>
  </outline>
</glyph>
<glyph name="vagujr" format="2">
  <advance width="547"/>
  <unicode hex="0AB5"/>
  <outline>
    <contour>
      <point x="244" y="171" type="curve" smooth="yes"/>
      <point x="317" y="171"/>
      <point x="379" y="200"/>
      <point x="421" y="243" type="curve"/>
      <point x="421" y="281" type="line"/>
      <point x="367" y="220"/>
      <point x="310" y="197"/>
      <point x="244" y="197" type="curve" smooth="yes"/>
      <point x="148" y="197"/>
      <point x="81" y="253"/>
      <point x="81" y="352" type="curve" smooth="yes"/>
      <point x="81" y="451"/>
      <point x="149" y="513"/>
      <point x="252" y="513" type="curve" smooth="yes"/>
      <point x="286" y="513"/>
      <point x="313" y="510"/>
      <point x="337" y="503" type="curve"/>
      <point x="342" y="528" type="line"/>
      <point x="315" y="535"/>
      <point x="287" y="539"/>
      <point x="252" y="539" type="curve" smooth="yes"/>
      <point x="134" y="539"/>
      <point x="54" y="465"/>
      <point x="54" y="352" type="curve" smooth="yes"/>
      <point x="54" y="239"/>
      <point x="133" y="171"/>
    </contour>
    <contour>
      <point x="533" y="0" type="curve" smooth="yes"/>
      <point x="542" y="0" type="line"/>
      <point x="545" y="26" type="line"/>
      <point x="512" y="26"/>
      <point x="489" y="29"/>
      <point x="471" y="41" type="curve" smooth="yes"/>
      <point x="449" y="56"/>
      <point x="439" y="80"/>
      <point x="439" y="129" type="curve" smooth="yes"/>
      <point x="439" y="598" type="line"/>
      <point x="413" y="602" type="line"/>
      <point x="413" y="128" type="line" smooth="yes"/>
      <point x="413" y="74"/>
      <point x="428" y="43"/>
      <point x="452" y="23" type="curve" smooth="yes"/>
      <point x="473" y="6"/>
      <point x="499" y="0"/>
    </contour>
  </outline>
</glyph>
<glyph name="ssagujr" format="2">
  <advance width="553"/>
  <unicode hex="0AB7"/>
  <outline>
    <contour>
      <point x="263" y="171" type="curve" smooth="yes"/>
      <point x="321" y="171"/>
      <point x="378" y="195"/>
      <point x="420" y="234" type="curve"/>
      <point x="420" y="269" type="line"/>
      <point x="369" y="220"/>
      <point x="321" y="197"/>
      <point x="263" y="197" type="curve" smooth="yes"/>
      <point x="227" y="197"/>
      <point x="198" y="206"/>
      <point x="176" y="224" type="curve" smooth="yes"/>
      <point x="149" y="246"/>
      <point x="134" y="282"/>
      <point x="134" y="330" type="curve" smooth="yes"/>
      <point x="134" y="441" type="line" smooth="yes"/>
      <point x="134" y="488"/>
      <point x="131" y="516"/>
      <point x="115" y="544" type="curve"/>
      <point x="107" y="537" type="line"/>
      <point x="153" y="493"/>
      <point x="181" y="468"/>
      <point x="217" y="438" type="curve" smooth="yes"/>
      <point x="425" y="261" type="line"/>
      <point x="432" y="285" type="line"/>
      <point x="399" y="315"/>
      <point x="369" y="341"/>
      <point x="332" y="372" type="curve" smooth="yes"/>
      <point x="120" y="553" type="line" smooth="yes"/>
      <point x="84" y="583"/>
      <point x="56" y="592"/>
      <point x="21" y="592" type="curve" smooth="yes"/>
      <point x="15" y="592" type="line"/>
      <point x="12" y="566" type="line"/>
      <point x="53" y="566"/>
      <point x="78" y="558"/>
      <point x="92" y="539" type="curve" smooth="yes"/>
      <point x="104" y="523"/>
      <point x="108" y="499"/>
      <point x="108" y="441" type="curve" smooth="yes"/>
      <point x="108" y="330" type="line" smooth="yes"/>
      <point x="108" y="275"/>
      <point x="127" y="231"/>
      <point x="160" y="204" type="curve" smooth="yes"/>
      <point x="186" y="183"/>
      <point x="221" y="171"/>
    </contour>
    <contour>
      <point x="539" y="0" type="curve" smooth="yes"/>
      <point x="548" y="0" type="line"/>
      <point x="551" y="26" type="line"/>
      <point x="518" y="26"/>
      <point x="495" y="29"/>
      <point x="477" y="41" type="curve" smooth="yes"/>
      <point x="455" y="56"/>
      <point x="445" y="80"/>
      <point x="445" y="129" type="curve" smooth="yes"/>
      <point x="445" y="598" type="line"/>
      <point x="419" y="602" type="line"/>
      <point x="419" y="128" type="line" smooth="yes"/>
      <point x="419" y="74"/>
      <point x="434" y="43"/>
      <point x="458" y="23" type="curve" smooth="yes"/>
      <point x="479" y="6"/>
      <point x="505" y="0"/>
    </contour>
  </outline>
</glyph>
<glyph name="hagujr" format="2">
  <advance width="600"/>
  <unicode hex="0AB9"/>
  <outline>
    <contour>
      <point x="383" y="-10" type="curve" smooth="yes"/>
      <point x="459" y="-10"/>
      <point x="517" y="1"/>
      <point x="586" y="27" type="curve"/>
      <point x="576" y="53" type="line"/>
      <point x="510" y="27"/>
      <point x="455" y="16"/>
      <point x="383" y="16" type="curve" smooth="yes"/>
      <point x="201" y="16"/>
      <point x="83" y="125"/>
      <point x="83" y="295" type="curve" smooth="yes"/>
      <point x="83" y="355"/>
      <point x="95" y="403"/>
      <point x="125" y="459" type="curve"/>
      <point x="99" y="470" type="line"/>
      <point x="70" y="413"/>
      <point x="56" y="356"/>
      <point x="56" y="295" type="curve" smooth="yes"/>
      <point x="56" y="111"/>
      <point x="186" y="-10"/>
    </contour>
    <contour>
      <point x="388" y="164" type="curve" smooth="yes"/>
      <point x="475" y="164"/>
      <point x="532" y="207"/>
      <point x="532" y="278" type="curve" smooth="yes"/>
      <point x="532" y="349"/>
      <point x="488" y="380"/>
      <point x="412" y="412" type="curve" smooth="yes"/>
      <point x="346" y="440"/>
      <point x="308" y="462"/>
      <point x="308" y="509" type="curve" smooth="yes"/>
      <point x="308" y="555"/>
      <point x="344" y="576"/>
      <point x="404" y="576" type="curve" smooth="yes"/>
      <point x="431" y="576"/>
      <point x="460" y="572"/>
      <point x="483" y="566" type="curve"/>
      <point x="489" y="591" type="line"/>
      <point x="461" y="598"/>
      <point x="433" y="602"/>
      <point x="404" y="602" type="curve" smooth="yes"/>
      <point x="331" y="602"/>
      <point x="282" y="567"/>
      <point x="282" y="509" type="curve" smooth="yes"/>
      <point x="282" y="449"/>
      <point x="327" y="420"/>
      <point x="400" y="389" type="curve" smooth="yes"/>
      <point x="470" y="359"/>
      <point x="506" y="335"/>
      <point x="506" y="278" type="curve" smooth="yes"/>
      <point x="506" y="224"/>
      <point x="466" y="190"/>
      <point x="388" y="190" type="curve" smooth="yes"/>
      <point x="320" y="190"/>
      <point x="255" y="221"/>
      <point x="207" y="292" type="curve"/>
      <point x="184" y="277" type="line"/>
      <point x="230" y="208"/>
      <point x="307" y="164"/>
    </contour>
  </outline>
</glyph>
<glyph name="nuktagujr" format="2">
  <unicode hex="0ABC"/>
  <outline>
    <contour>
      <point x="-267" y="-172" type="curve" smooth="yes"/>
      <point x="-250" y="-172"/>
      <point x="-237" y="-160"/>
      <point x="-237" y="-134" type="curve" smooth="yes"/>
      <point x="-237" y="-111"/>
      <point x="-248" y="-96"/>
      <point x="-267" y="-96" type="curve" smooth="yes"/>
      <point x="-285" y="-96"/>
      <point x="-298" y="-110"/>
      <point x="-298" y="-134" type="curve" smooth="yes"/>
      <point x="-298" y="-159"/>
      <point x="-283" y="-172"/>
    </contour>
  </outline>
</glyph>
<glyph name="avagrahagujr" format="2">
  <advance width="448"/>
  <unicode hex="0ABD"/>
  <outline>
    <contour>
      <point x="256" y="38" type="curve" smooth="yes"/>
      <point x="345" y="38"/>
      <point x="402" y="82"/>
      <point x="402" y="161" type="curve" smooth="yes"/>
      <point x="402" y="233"/>
      <point x="367" y="277"/>
      <point x="270" y="359" type="curve" smooth="yes"/>
      <point x="186" y="430"/>
      <point x="159" y="462"/>
      <point x="159" y="505" type="curve" smooth="yes"/>
      <point x="159" y="523"/>
      <point x="164" y="538"/>
      <point x="178" y="550" type="curve" smooth="yes"/>
      <point x="192" y="562"/>
      <point x="213" y="566"/>
      <point x="250" y="566" type="curve" smooth="yes"/>
      <point x="389" y="566" type="line"/>
      <point x="389" y="592" type="line"/>
      <point x="250" y="592" type="line" smooth="yes"/>
      <point x="201" y="592"/>
      <point x="177" y="584"/>
      <point x="157" y="566" type="curve" smooth="yes"/>
      <point x="141" y="551"/>
      <point x="132" y="531"/>
      <point x="132" y="505" type="curve" smooth="yes"/>
      <point x="132" y="458"/>
      <point x="157" y="421"/>
      <point x="253" y="340" type="curve" smooth="yes"/>
      <point x="341" y="265"/>
      <point x="375" y="227"/>
      <point x="375" y="161" type="curve" smooth="yes"/>
      <point x="375" y="99"/>
      <point x="332" y="64"/>
      <point x="256" y="64" type="curve" smooth="yes"/>
      <point x="177" y="64"/>
      <point x="110" y="105"/>
      <point x="41" y="217" type="curve"/>
      <point x="19" y="204" type="line"/>
      <point x="93" y="87"/>
      <point x="169" y="38"/>
    </contour>
  </outline>
</glyph>
<glyph name="aavowelsigngujr" format="2">
  <advance width="237"/>
  <unicode hex="0ABE"/>
  <guideline x="233" y="12" angle="263.746"/>
  <outline>
    <contour>
      <point x="223" y="0" type="curve" smooth="yes"/>
      <point x="232" y="0" type="line"/>
      <point x="235" y="26" type="line"/>
      <point x="202" y="26"/>
      <point x="179" y="29"/>
      <point x="161" y="41" type="curve" smooth="yes"/>
      <point x="139" y="56"/>
      <point x="129" y="80"/>
      <point x="129" y="129" type="curve" smooth="yes"/>
      <point x="129" y="598" type="line"/>
      <point x="103" y="602" type="line"/>
      <point x="103" y="128" type="line" smooth="yes"/>
      <point x="103" y="74"/>
      <point x="118" y="43"/>
      <point x="142" y="23" type="curve" smooth="yes"/>
      <point x="163" y="6"/>
      <point x="189" y="0"/>
    </contour>
  </outline>
</glyph>
<glyph name="iivowelsigngujr" format="2">
  <advance width="237"/>
  <unicode hex="0AC0"/>
  <guideline x="-162" y="596" angle="90"/>
  <outline>
    <contour>
      <point x="223" y="0" type="curve" smooth="yes"/>
      <point x="232" y="0" type="line"/>
      <point x="235" y="26" type="line"/>
      <point x="202" y="26"/>
      <point x="179" y="29"/>
      <point x="161" y="41" type="curve" smooth="yes"/>
      <point x="139" y="56"/>
      <point x="129" y="80"/>
      <point x="129" y="129" type="curve" smooth="yes"/>
      <point x="129" y="601" type="line"/>
      <point x="116" y="751"/>
      <point x="73" y="883"/>
      <point x="-43" y="883" type="curve" smooth="yes"/>
      <point x="-114" y="883"/>
      <point x="-151" y="828"/>
      <point x="-151" y="749" type="curve" smooth="yes"/>
      <point x="-151" y="720"/>
      <point x="-147" y="689"/>
      <point x="-143" y="667" type="curve"/>
      <point x="-117" y="667" type="line"/>
      <point x="-122" y="690"/>
      <point x="-125" y="716"/>
      <point x="-125" y="746" type="curve" smooth="yes"/>
      <point x="-125" y="816"/>
      <point x="-98" y="857"/>
      <point x="-43" y="857" type="curve" smooth="yes"/>
      <point x="41" y="857"/>
      <point x="88" y="769"/>
      <point x="103" y="599" type="curve"/>
      <point x="103" y="128" type="line" smooth="yes"/>
      <point x="103" y="74"/>
      <point x="118" y="43"/>
      <point x="142" y="23" type="curve" smooth="yes"/>
      <point x="163" y="6"/>
      <point x="189" y="0"/>
    </contour>
  </outline>
</glyph>
<glyph name="uvowelsigngujr" format="2">
  <unicode hex="0AC1"/>
  <outline>
    <contour>
      <point x="-152" y="-267" type="curve" smooth="yes"/>
      <point x="-61" y="-267"/>
      <point x="3" y="-221"/>
      <point x="3" y="-136" type="curve" smooth="yes"/>
      <point x="3" y="-59"/>
      <point x="-49" y="-10"/>
      <point x="-136" y="-10" type="curve" smooth="yes"/>
      <point x="-174" y="-10"/>
      <point x="-204" y="-18"/>
      <point x="-237" y="-31" type="curve"/>
      <point x="-227" y="-55" type="line"/>
      <point x="-196" y="-43"/>
      <point x="-165" y="-36"/>
      <point x="-136" y="-36" type="curve" smooth="yes"/>
      <point x="-63" y="-36"/>
      <point x="-23" y="-71"/>
      <point x="-23" y="-136" type="curve" smooth="yes"/>
      <point x="-23" y="-205"/>
      <point x="-75" y="-241"/>
      <point x="-152" y="-241" type="curve" smooth="yes"/>
      <point x="-274" y="-241"/>
      <point x="-347" y="-163"/>
      <point x="-405" y="-81" type="curve"/>
      <point x="-427" y="-97" type="line"/>
      <point x="-365" y="-183"/>
      <point x="-287" y="-267"/>
    </contour>
  </outline>
</glyph>
<glyph name="uuvowelsigngujr" format="2">
  <unicode hex="0AC2"/>
  <outline>
    <contour>
      <point x="-172" y="-263" type="curve" smooth="yes"/>
      <point x="-134" y="-263"/>
      <point x="-100" y="-255"/>
      <point x="-66" y="-241" type="curve"/>
      <point x="-75" y="-216" type="line"/>
      <point x="-105" y="-229"/>
      <point x="-138" y="-237"/>
      <point x="-172" y="-237" type="curve" smooth="yes"/>
      <point x="-243" y="-237"/>
      <point x="-284" y="-200"/>
      <point x="-284" y="-137" type="curve" smooth="yes"/>
      <point x="-284" y="-79"/>
      <point x="-245" y="-36"/>
      <point x="-160" y="-36" type="curve" smooth="yes"/>
      <point x="-33" y="-36"/>
      <point x="33" y="-119"/>
      <point x="105" y="-218" type="curve"/>
      <point x="127" y="-204" type="line"/>
      <point x="59" y="-108"/>
      <point x="-19" y="-10"/>
      <point x="-159" y="-10" type="curve" smooth="yes"/>
      <point x="-261" y="-10"/>
      <point x="-311" y="-66"/>
      <point x="-311" y="-137" type="curve" smooth="yes"/>
      <point x="-311" y="-212"/>
      <point x="-258" y="-263"/>
    </contour>
  </outline>
</glyph>
<glyph name="rvocalicvowelsigngujr" format="2">
  <unicode hex="0AC3"/>
  <outline>
    <contour>
      <point x="9" y="-227" type="curve"/>
      <point x="-2" y="-202" type="line"/>
      <point x="-41" y="-224"/>
      <point x="-75" y="-237"/>
      <point x="-122" y="-237" type="curve" smooth="yes"/>
      <point x="-197" y="-237"/>
      <point x="-238" y="-197"/>
      <point x="-238" y="-135" type="curve" smooth="yes"/>
      <point x="-238" y="-73"/>
      <point x="-190" y="-29"/>
      <point x="-108" y="-23" type="curve"/>
      <point x="-108" y="3" type="line"/>
      <point x="-206" y="-4"/>
      <point x="-265" y="-61"/>
      <point x="-265" y="-135" type="curve" smooth="yes"/>
      <point x="-265" y="-214"/>
      <point x="-212" y="-263"/>
      <point x="-122" y="-263" type="curve" smooth="yes"/>
      <point x="-75" y="-263"/>
      <point x="-32" y="-250"/>
    </contour>
  </outline>
</glyph>
<glyph name="ecandravowelsigngujr" format="2">
  <unicode hex="0AC5"/>
  <outline>
    <contour>
      <point x="-117" y="664" type="curve" smooth="yes"/>
      <point x="-90" y="664"/>
      <point x="-67" y="668"/>
      <point x="-41" y="677" type="curve"/>
      <point x="-50" y="702" type="line"/>
      <point x="-73" y="694"/>
      <point x="-92" y="690"/>
      <point x="-117" y="690" type="curve" smooth="yes"/>
      <point x="-203" y="690"/>
      <point x="-271" y="746"/>
      <point x="-362" y="872" type="curve"/>
      <point x="-385" y="857" type="line"/>
      <point x="-284" y="722"/>
      <point x="-213" y="664"/>
    </contour>
  </outline>
</glyph>
<glyph name="evowelsigngujr" format="2">
  <unicode hex="0AC7"/>
  <outline>
    <contour>
      <point x="-136" y="641" type="curve"/>
      <point x="-110" y="641" type="line"/>
      <point x="-162" y="837"/>
      <point x="-201" y="896"/>
      <point x="-298" y="896" type="curve" smooth="yes"/>
      <point x="-321" y="896"/>
      <point x="-344" y="892"/>
      <point x="-370" y="884" type="curve"/>
      <point x="-362" y="860" type="line"/>
      <point x="-338" y="867"/>
      <point x="-317" y="870"/>
      <point x="-298" y="870" type="curve" smooth="yes"/>
      <point x="-212" y="870"/>
      <point x="-184" y="811"/>
    </contour>
  </outline>
</glyph>
<glyph name="aivowelsigngujr" format="2">
  <unicode hex="0AC8"/>
  <outline>
    <contour>
      <point x="-134" y="641" type="curve"/>
      <point x="-110" y="641" type="line"/>
      <point x="-156" y="837"/>
      <point x="-197" y="896"/>
      <point x="-289" y="896" type="curve" smooth="yes"/>
      <point x="-310" y="896"/>
      <point x="-328" y="893"/>
      <point x="-353" y="886" type="curve"/>
      <point x="-345" y="861" type="line"/>
      <point x="-322" y="868"/>
      <point x="-306" y="870"/>
      <point x="-289" y="870" type="curve" smooth="yes"/>
      <point x="-208" y="870"/>
      <point x="-177" y="811"/>
    </contour>
    <contour>
      <point x="-163" y="635" type="curve"/>
      <point x="-147" y="652" type="line"/>
      <point x="-246" y="743"/>
      <point x="-293" y="777"/>
      <point x="-371" y="777" type="curve" smooth="yes"/>
      <point x="-396" y="777"/>
      <point x="-422" y="774"/>
      <point x="-449" y="767" type="curve"/>
      <point x="-441" y="742" type="line"/>
      <point x="-416" y="749"/>
      <point x="-393" y="751"/>
      <point x="-371" y="751" type="curve" smooth="yes"/>
      <point x="-300" y="751"/>
      <point x="-252" y="718"/>
    </contour>
  </outline>
</glyph>
<glyph name="viramagujr" format="2">
  <unicode hex="0ACD"/>
  <outline>
    <contour>
      <point x="153" y="-246" type="curve"/>
      <point x="176" y="-232" type="line"/>
      <point x="99" y="-115"/>
      <point x="29" y="-59"/>
      <point x="-64" y="-59" type="curve" smooth="yes"/>
      <point x="-90" y="-59"/>
      <point x="-112" y="-62"/>
      <point x="-139" y="-70" type="curve"/>
      <point x="-130" y="-95" type="line"/>
      <point x="-109" y="-88"/>
      <point x="-89" y="-85"/>
      <point x="-68" y="-85" type="curve" smooth="yes"/>
      <point x="21" y="-85"/>
      <point x="83" y="-134"/>
    </contour>
  </outline>
</glyph>
<glyph name="omgujr" format="2">
  <advance width="888"/>
  <unicode hex="0AD0"/>
  <outline>
    <contour>
      <point x="247" y="-10" type="curve" smooth="yes"/>
      <point x="371" y="-10"/>
      <point x="432" y="65"/>
      <point x="432" y="158" type="curve" smooth="yes"/>
      <point x="432" y="193"/>
      <point x="424" y="226"/>
      <point x="406" y="258" type="curve"/>
      <point x="403" y="252" type="line"/>
      <point x="414" y="248"/>
      <point x="429" y="245"/>
      <point x="445" y="245" type="curve" smooth="yes"/>
      <point x="508" y="245"/>
      <point x="541" y="284"/>
      <point x="568" y="327" type="curve" smooth="yes"/>
      <point x="612" y="397" type="line" smooth="yes"/>
      <point x="638" y="439"/>
      <point x="667" y="459"/>
      <point x="708" y="459" type="curve" smooth="yes"/>
      <point x="776" y="459"/>
      <point x="808" y="396"/>
      <point x="808" y="314" type="curve" smooth="yes"/>
      <point x="808" y="232"/>
      <point x="768" y="169"/>
      <point x="685" y="169" type="curve" smooth="yes"/>
      <point x="635" y="169"/>
      <point x="602" y="190"/>
      <point x="568" y="223" type="curve"/>
      <point x="548" y="202" type="line"/>
      <point x="585" y="166"/>
      <point x="627" y="143"/>
      <point x="685" y="143" type="curve" smooth="yes"/>
      <point x="779" y="143"/>
      <point x="835" y="216"/>
      <point x="835" y="314" type="curve" smooth="yes"/>
      <point x="835" y="418"/>
      <point x="785" y="485"/>
      <point x="708" y="485" type="curve" smooth="yes"/>
      <point x="653" y="485"/>
      <point x="622" y="460"/>
      <point x="590" y="409" type="curve" smooth="yes"/>
      <point x="546" y="339" type="line" smooth="yes"/>
      <point x="519" y="296"/>
      <point x="492" y="271"/>
      <point x="445" y="271" type="curve" smooth="yes"/>
      <point x="418" y="271"/>
      <point x="402" y="277"/>
      <point x="385" y="290" type="curve"/>
      <point x="375" y="303"/>
      <point x="361" y="318"/>
      <point x="347" y="331" type="curve"/>
      <point x="395" y="359"/>
      <point x="419" y="401"/>
      <point x="419" y="456" type="curve" smooth="yes"/>
      <point x="419" y="556"/>
      <point x="344" y="602"/>
      <point x="253" y="602" type="curve" smooth="yes"/>
      <point x="201" y="602"/>
      <point x="148" y="587"/>
      <point x="94" y="561" type="curve"/>
      <point x="104" y="536" type="line"/>
      <point x="155" y="560"/>
      <point x="207" y="576"/>
      <point x="255" y="576" type="curve" smooth="yes"/>
      <point x="331" y="576"/>
      <point x="392" y="539"/>
      <point x="392" y="456" type="curve" smooth="yes"/>
      <point x="392" y="368"/>
      <point x="320" y="324"/>
      <point x="181" y="318" type="curve"/>
      <point x="187" y="292" type="line"/>
      <point x="241" y="295"/>
      <point x="286" y="304"/>
      <point x="321" y="318" type="curve"/>
      <point x="380" y="274"/>
      <point x="405" y="222"/>
      <point x="405" y="158" type="curve" smooth="yes"/>
      <point x="405" y="72"/>
      <point x="348" y="16"/>
      <point x="249" y="16" type="curve" smooth="yes"/>
      <point x="152" y="16"/>
      <point x="97" y="69"/>
      <point x="43" y="167" type="curve"/>
      <point x="20" y="154" type="line"/>
      <point x="77" y="51"/>
      <point x="142" y="-10"/>
    </contour>
    <contour>
      <point x="462" y="645" type="curve" smooth="yes"/>
      <point x="542" y="645"/>
      <point x="611" y="695"/>
      <point x="643" y="786" type="curve"/>
      <point x="616" y="795" type="line"/>
      <point x="589" y="718"/>
      <point x="539" y="671"/>
      <point x="462" y="671" type="curve" smooth="yes"/>
      <point x="385" y="671"/>
      <point x="335" y="718"/>
      <point x="308" y="795" type="curve"/>
      <point x="281" y="786" type="line"/>
      <point x="313" y="695"/>
      <point x="382" y="645"/>
    </contour>
    <contour>
      <point x="462" y="768" type="curve" smooth="yes"/>
      <point x="479" y="768"/>
      <point x="492" y="780"/>
      <point x="492" y="806" type="curve" smooth="yes"/>
      <point x="492" y="829"/>
      <point x="481" y="844"/>
      <point x="462" y="844" type="curve" smooth="yes"/>
      <point x="444" y="844"/>
      <point x="431" y="830"/>
      <point x="431" y="806" type="curve" smooth="yes"/>
      <point x="431" y="781"/>
      <point x="446" y="768"/>
    </contour>
  </outline>
</glyph>
<glyph name="rrvocalicgujr" format="2">
  <advance width="866"/>
  <unicode hex="0AE0"/>
  <outline>
    <contour>
      <point x="552" y="0" type="curve" smooth="yes"/>
      <point x="561" y="0" type="line"/>
      <point x="564" y="26" type="line"/>
      <point x="531" y="26"/>
      <point x="508" y="29"/>
      <point x="490" y="41" type="curve" smooth="yes"/>
      <point x="468" y="56"/>
      <point x="458" y="80"/>
      <point x="458" y="129" type="curve" smooth="yes"/>
      <point x="458" y="598" type="line"/>
      <point x="432" y="602" type="line"/>
      <point x="432" y="128" type="line" smooth="yes"/>
      <point x="432" y="74"/>
      <point x="447" y="43"/>
      <point x="471" y="23" type="curve" smooth="yes"/>
      <point x="492" y="6"/>
      <point x="518" y="0"/>
    </contour>
    <contour>
      <point x="127" y="155" type="line"/>
      <point x="450" y="366" type="line"/>
      <point x="435" y="387" type="line"/>
      <point x="111" y="177" type="line"/>
    </contour>
    <contour>
      <point x="398" y="352" type="curve"/>
      <point x="420" y="366" type="line"/>
      <point x="320" y="494"/>
      <point x="254" y="533"/>
      <point x="156" y="533" type="curve" smooth="yes"/>
      <point x="107" y="533"/>
      <point x="57" y="517"/>
      <point x="10" y="494" type="curve"/>
      <point x="22" y="469" type="line"/>
      <point x="70" y="492"/>
      <point x="115" y="507"/>
      <point x="157" y="507" type="curve" smooth="yes"/>
      <point x="245" y="507"/>
      <point x="304" y="473"/>
    </contour>
    <contour>
      <point x="772" y="0" type="curve" smooth="yes"/>
      <point x="813" y="0"/>
      <point x="849" y="11"/>
      <point x="886" y="30" type="curve"/>
      <point x="876" y="55" type="line"/>
      <point x="841" y="35"/>
      <point x="810" y="26"/>
      <point x="773" y="26" type="curve" smooth="yes"/>
      <point x="698" y="26"/>
      <point x="653" y="66"/>
      <point x="653" y="123" type="curve" smooth="yes"/>
      <point x="653" y="182"/>
      <point x="690" y="216"/>
      <point x="769" y="229" type="curve"/>
      <point x="748" y="251" type="line"/>
      <point x="673" y="236"/>
      <point x="626" y="193"/>
      <point x="626" y="123" type="curve" smooth="yes"/>
      <point x="626" y="55"/>
      <point x="679" y="0"/>
    </contour>
    <contour>
      <point x="769" y="229" type="line"/>
      <point x="759" y="268"/>
      <point x="733" y="326"/>
      <point x="712" y="363" type="curve"/>
      <point x="734" y="377"/>
      <point x="749" y="396"/>
      <point x="749" y="417" type="curve" smooth="yes"/>
      <point x="749" y="442"/>
      <point x="732" y="462"/>
      <point x="702" y="462" type="curve" smooth="yes"/>
      <point x="673" y="462"/>
      <point x="655" y="445"/>
      <point x="655" y="420" type="curve" smooth="yes"/>
      <point x="655" y="400"/>
      <point x="664" y="387"/>
      <point x="681" y="365" type="curve"/>
      <point x="678" y="377" type="line"/>
      <point x="662" y="368"/>
      <point x="638" y="363"/>
      <point x="612" y="363" type="curve" smooth="yes"/>
      <point x="558" y="363"/>
      <point x="499" y="389"/>
      <point x="453" y="431" type="curve"/>
      <point x="445" y="405" type="line"/>
      <point x="498" y="361"/>
      <point x="555" y="337"/>
      <point x="612" y="337" type="curve" smooth="yes"/>
      <point x="642" y="337"/>
      <point x="672" y="343"/>
      <point x="695" y="354" type="curve"/>
      <point x="684" y="357" type="line"/>
      <point x="706" y="327"/>
      <point x="727" y="284"/>
      <point x="739" y="239" type="curve"/>
    </contour>
  </outline>
</glyph>
<glyph name="llvocalicgujr" format="2">
  <advance width="667"/>
  <unicode hex="0AE1"/>
  <outline>
    <contour>
      <point x="569" y="-13" type="curve" smooth="yes"/>
      <point x="617" y="-13"/>
      <point x="656" y="-2"/>
      <point x="694" y="18" type="curve"/>
      <point x="684" y="42" type="line"/>
      <point x="647" y="22"/>
      <point x="612" y="13"/>
      <point x="570" y="13" type="curve" smooth="yes"/>
      <point x="498" y="13"/>
      <point x="453" y="48"/>
      <point x="453" y="104" type="curve" smooth="yes"/>
      <point x="453" y="164"/>
      <point x="504" y="197"/>
      <point x="600" y="200" type="curve"/>
      <point x="611" y="232"/>
      <point x="618" y="271"/>
      <point x="618" y="307" type="curve" smooth="yes"/>
      <point x="618" y="389"/>
      <point x="564" y="450"/>
      <point x="484" y="450" type="curve" smooth="yes"/>
      <point x="396" y="450"/>
      <point x="333" y="392"/>
      <point x="291" y="254" type="curve"/>
      <point x="320" y="245" type="line"/>
      <point x="357" y="371"/>
      <point x="408" y="424"/>
      <point x="484" y="424" type="curve" smooth="yes"/>
      <point x="549" y="424"/>
      <point x="591" y="376"/>
      <point x="591" y="307" type="curve" smooth="yes"/>
      <point x="591" y="276"/>
      <point x="586" y="250"/>
      <point x="580" y="225" type="curve"/>
      <point x="477" y="215"/>
      <point x="426" y="171"/>
      <point x="426" y="104" type="curve" smooth="yes"/>
      <point x="426" y="37"/>
      <point x="481" y="-13"/>
    </contour>
    <contour>
      <point x="212" y="46" type="curve"/>
      <point x="229" y="67" type="line"/>
      <point x="130" y="150"/>
      <point x="79" y="215"/>
      <point x="79" y="302" type="curve" smooth="yes"/>
      <point x="79" y="378"/>
      <point x="124" y="424"/>
      <point x="199" y="424" type="curve" smooth="yes"/>
      <point x="264" y="424"/>
      <point x="306" y="395"/>
      <point x="347" y="354" type="curve"/>
      <point x="364" y="372" type="line"/>
      <point x="319" y="417"/>
      <point x="268" y="450"/>
      <point x="199" y="450" type="curve" smooth="yes"/>
      <point x="111" y="450"/>
      <point x="52" y="391"/>
      <point x="52" y="302" type="curve" smooth="yes"/>
      <point x="52" y="204"/>
      <point x="112" y="130"/>
    </contour>
    <contour>
      <point x="609" y="-168" type="curve" smooth="yes"/>
      <point x="657" y="-168"/>
      <point x="696" y="-157"/>
      <point x="734" y="-137" type="curve"/>
      <point x="724" y="-113" type="line"/>
      <point x="687" y="-133"/>
      <point x="652" y="-142"/>
      <point x="610" y="-142" type="curve" smooth="yes"/>
      <point x="538" y="-142"/>
      <point x="493" y="-107"/>
      <point x="493" y="-51" type="curve" smooth="yes"/>
      <point x="493" y="-29"/>
      <point x="500" y="-12"/>
      <point x="513" y="3" type="curve"/>
      <point x="487" y="13" type="line"/>
      <point x="473" y="-5"/>
      <point x="466" y="-26"/>
      <point x="466" y="-51" type="curve" smooth="yes"/>
      <point x="466" y="-118"/>
      <point x="521" y="-168"/>
    </contour>
    <contour>
      <point x="478" y="437" type="line"/>
      <point x="504" y="437" type="line"/>
      <point x="504" y="598" type="line"/>
      <point x="478" y="602" type="line"/>
    </contour>
  </outline>
</glyph>
<glyph name="llvocalicvowelsigngujr" format="2">
  <unicode hex="0AE3"/>
  <outline>
    <contour>
      <point x="-17" y="-265" type="curve" smooth="yes"/>
      <point x="18" y="-265"/>
      <point x="47" y="-259"/>
      <point x="80" y="-242" type="curve"/>
      <point x="72" y="-216" type="line"/>
      <point x="40" y="-234"/>
      <point x="18" y="-239"/>
      <point x="-17" y="-239" type="curve" smooth="yes"/>
      <point x="-63" y="-239"/>
      <point x="-91" y="-217"/>
      <point x="-91" y="-180" type="curve" smooth="yes"/>
      <point x="-91" y="-145"/>
      <point x="-66" y="-123"/>
      <point x="-10" y="-107" type="curve"/>
      <point x="-10" y="-41"/>
      <point x="-54" y="0"/>
      <point x="-117" y="0" type="curve" smooth="yes"/>
      <point x="-203" y="0"/>
      <point x="-251" y="-72"/>
      <point x="-275" y="-160" type="curve"/>
      <point x="-250" y="-168" type="line"/>
      <point x="-223" y="-74"/>
      <point x="-181" y="-26"/>
      <point x="-117" y="-26" type="curve" smooth="yes"/>
      <point x="-63" y="-26"/>
      <point x="-37" y="-56"/>
      <point x="-37" y="-107" type="curve"/>
      <point x="-30" y="-85" type="line"/>
      <point x="-85" y="-102"/>
      <point x="-118" y="-135"/>
      <point x="-118" y="-180" type="curve" smooth="yes"/>
      <point x="-118" y="-228"/>
      <point x="-77" y="-265"/>
    </contour>
    <contour>
      <point x="-328" y="-332" type="curve"/>
      <point x="-309" y="-312" type="line"/>
      <point x="-389" y="-244"/>
      <point x="-430" y="-193"/>
      <point x="-430" y="-120" type="curve" smooth="yes"/>
      <point x="-430" y="-64"/>
      <point x="-397" y="-26"/>
      <point x="-338" y="-26" type="curve" smooth="yes"/>
      <point x="-295" y="-26"/>
      <point x="-263" y="-42"/>
      <point x="-231" y="-76" type="curve"/>
      <point x="-213" y="-58" type="line"/>
      <point x="-249" y="-19"/>
      <point x="-289" y="0"/>
      <point x="-338" y="0" type="curve" smooth="yes"/>
      <point x="-411" y="0"/>
      <point x="-457" y="-50"/>
      <point x="-457" y="-120" type="curve" smooth="yes"/>
      <point x="-457" y="-197"/>
      <point x="-411" y="-257"/>
    </contour>
    <contour>
      <point x="24" y="-381" type="curve" smooth="yes"/>
      <point x="56" y="-381"/>
      <point x="83" y="-374"/>
      <point x="115" y="-358" type="curve"/>
      <point x="107" y="-332" type="line"/>
      <point x="77" y="-350"/>
      <point x="50" y="-355"/>
      <point x="24" y="-355" type="curve" smooth="yes"/>
      <point x="-25" y="-355"/>
      <point x="-56" y="-330"/>
      <point x="-56" y="-283" type="curve" smooth="yes"/>
      <point x="-56" y="-272"/>
      <point x="-54" y="-263"/>
      <point x="-51" y="-255" type="curve"/>
      <point x="-76" y="-242" type="line"/>
      <point x="-81" y="-254"/>
      <point x="-83" y="-266"/>
      <point x="-83" y="-281" type="curve" smooth="yes"/>
      <point x="-83" y="-339"/>
      <point x="-44" y="-381"/>
    </contour>
  </outline>
</glyph>
<glyph name="zerogujr" format="2">
  <advance width="551"/>
  <unicode hex="0AE6"/>
  <outline>
    <contour>
      <point x="275" y="108" type="curve" smooth="yes"/>
      <point x="385" y="108"/>
      <point x="465" y="191"/>
      <point x="465" y="305" type="curve" smooth="yes"/>
      <point x="465" y="419"/>
      <point x="385" y="503"/>
      <point x="275" y="503" type="curve" smooth="yes"/>
      <point x="165" y="503"/>
      <point x="85" y="419"/>
      <point x="85" y="306" type="curve" smooth="yes"/>
      <point x="85" y="193"/>
      <point x="165" y="108"/>
    </contour>
    <contour>
      <point x="275" y="134" type="curve" smooth="yes"/>
      <point x="181" y="134"/>
      <point x="112" y="205"/>
      <point x="112" y="306" type="curve" smooth="yes"/>
      <point x="112" y="407"/>
      <point x="181" y="477"/>
      <point x="275" y="477" type="curve" smooth="yes"/>
      <point x="369" y="477"/>
      <point x="438" y="407"/>
      <point x="438" y="305" type="curve" smooth="yes"/>
      <point x="438" y="203"/>
      <point x="369" y="134"/>
    </contour>
  </outline>
</glyph>
<glyph name="onegujr" format="2">
  <advance width="551"/>
  <unicode hex="0AE7"/>
  <outline>
    <contour>
      <point x="478" y="0" type="curve" smooth="yes"/>
      <point x="487" y="0" type="line"/>
      <point x="490" y="26" type="line"/>
      <point x="457" y="26"/>
      <point x="434" y="29"/>
      <point x="416" y="41" type="curve" smooth="yes"/>
      <point x="394" y="56"/>
      <point x="384" y="80"/>
      <point x="384" y="129" type="curve" smooth="yes"/>
      <point x="384" y="443" type="line" smooth="yes"/>
      <point x="384" y="486"/>
      <point x="374" y="522"/>
      <point x="356" y="549" type="curve" smooth="yes"/>
      <point x="333" y="583"/>
      <point x="296" y="602"/>
      <point x="249" y="602" type="curve" smooth="yes"/>
      <point x="166" y="602"/>
      <point x="107" y="537"/>
      <point x="107" y="444" type="curve" smooth="yes"/>
      <point x="107" y="353"/>
      <point x="168" y="289"/>
      <point x="253" y="289" type="curve" smooth="yes"/>
      <point x="302" y="289"/>
      <point x="339" y="304"/>
      <point x="375" y="335" type="curve"/>
      <point x="362" y="360" type="line"/>
      <point x="330" y="330"/>
      <point x="297" y="315"/>
      <point x="253" y="315" type="curve" smooth="yes"/>
      <point x="183" y="315"/>
      <point x="134" y="368"/>
      <point x="134" y="444" type="curve" smooth="yes"/>
      <point x="134" y="523"/>
      <point x="180" y="576"/>
      <point x="249" y="576" type="curve" smooth="yes"/>
      <point x="286" y="576"/>
      <point x="315" y="563"/>
      <point x="333" y="538" type="curve" smooth="yes"/>
      <point x="349" y="516"/>
      <point x="358" y="484"/>
      <point x="358" y="443" type="curve" smooth="yes"/>
      <point x="358" y="128" type="line" smooth="yes"/>
      <point x="358" y="74"/>
      <point x="373" y="43"/>
      <point x="397" y="23" type="curve" smooth="yes"/>
      <point x="418" y="6"/>
      <point x="444" y="0"/>
    </contour>
  </outline>
</glyph>
<glyph name="twogujr" format="2">
  <advance width="551"/>
  <unicode hex="0AE8"/>
  <outline>
    <contour>
      <point x="431" y="0" type="curve" smooth="yes"/>
      <point x="469" y="0"/>
      <point x="499" y="10"/>
      <point x="521" y="21" type="curve"/>
      <point x="509" y="46" type="line"/>
      <point x="487" y="34"/>
      <point x="461" y="26"/>
      <point x="431" y="26" type="curve" smooth="yes"/>
      <point x="335" y="26"/>
      <point x="288" y="90"/>
      <point x="229" y="224" type="curve"/>
      <point x="227" y="233" type="line"/>
      <point x="210" y="260"/>
      <point x="178" y="281"/>
      <point x="143" y="281" type="curve" smooth="yes"/>
      <point x="118" y="281"/>
      <point x="103" y="271"/>
      <point x="103" y="248" type="curve" smooth="yes"/>
      <point x="103" y="223"/>
      <point x="130" y="207"/>
      <point x="183" y="207" type="curve" smooth="yes"/>
      <point x="336" y="207"/>
      <point x="437" y="290"/>
      <point x="437" y="416" type="curve" smooth="yes"/>
      <point x="437" y="529"/>
      <point x="362" y="602"/>
      <point x="246" y="602" type="curve" smooth="yes"/>
      <point x="200" y="602"/>
      <point x="155" y="593"/>
      <point x="103" y="572" type="curve"/>
      <point x="113" y="547" type="line"/>
      <point x="164" y="567"/>
      <point x="205" y="576"/>
      <point x="246" y="576" type="curve" smooth="yes"/>
      <point x="349" y="576"/>
      <point x="410" y="517"/>
      <point x="410" y="416" type="curve" smooth="yes"/>
      <point x="410" y="309"/>
      <point x="329" y="238"/>
      <point x="200" y="233" type="curve"/>
      <point x="203" y="220" type="line"/>
      <point x="267" y="70"/>
      <point x="326" y="0"/>
    </contour>
  </outline>
</glyph>
<glyph name="threegujr" format="2">
  <advance width="551"/>
  <unicode hex="0AE9"/>
  <outline>
    <contour>
      <point x="277" y="-10" type="curve" smooth="yes"/>
      <point x="383" y="-10"/>
      <point x="454" y="57"/>
      <point x="454" y="156" type="curve" smooth="yes"/>
      <point x="454" y="230"/>
      <point x="417" y="285"/>
      <point x="362" y="334" type="curve"/>
      <point x="342" y="325" type="line"/>
      <point x="342" y="317" type="line"/>
      <point x="395" y="270"/>
      <point x="427" y="224"/>
      <point x="427" y="156" type="curve" smooth="yes"/>
      <point x="427" y="71"/>
      <point x="368" y="16"/>
      <point x="277" y="16" type="curve" smooth="yes"/>
      <point x="195" y="16"/>
      <point x="130" y="61"/>
      <point x="71" y="159" type="curve"/>
      <point x="49" y="145" type="line"/>
      <point x="112" y="40"/>
      <point x="186" y="-10"/>
    </contour>
    <contour>
      <point x="214" y="278" type="line"/>
      <point x="362" y="287"/>
      <point x="441" y="350"/>
      <point x="441" y="452" type="curve" smooth="yes"/>
      <point x="441" y="543"/>
      <point x="378" y="602"/>
      <point x="275" y="602" type="curve" smooth="yes"/>
      <point x="225" y="602"/>
      <point x="169" y="589"/>
      <point x="121" y="566" type="curve"/>
      <point x="130" y="541" type="line"/>
      <point x="176" y="563"/>
      <point x="230" y="576"/>
      <point x="275" y="576" type="curve" smooth="yes"/>
      <point x="363" y="576"/>
      <point x="414" y="528"/>
      <point x="414" y="452" type="curve" smooth="yes"/>
      <point x="414" y="363"/>
      <point x="344" y="312"/>
      <point x="209" y="304" type="curve"/>
    </contour>
  </outline>
</glyph>
<glyph name="fourgujr" format="2">
  <advance width="551"/>
  <unicode hex="0AEA"/>
  <outline>
    <contour>
      <point x="268" y="-10" type="curve" smooth="yes"/>
      <point x="363" y="-10"/>
      <point x="409" y="56"/>
      <point x="409" y="133" type="curve" smooth="yes"/>
      <point x="409" y="206"/>
      <point x="378" y="260"/>
      <point x="295" y="351" type="curve"/>
      <point x="354" y="411"/>
      <point x="428" y="486"/>
      <point x="529" y="584" type="curve"/>
      <point x="512" y="602" type="line"/>
      <point x="410" y="504"/>
      <point x="336" y="430"/>
      <point x="277" y="370" type="curve"/>
      <point x="220" y="431"/>
      <point x="145" y="505"/>
      <point x="40" y="602" type="curve"/>
      <point x="22" y="583" type="line"/>
      <point x="128" y="488"/>
      <point x="203" y="413"/>
      <point x="260" y="353" type="curve"/>
      <point x="164" y="262"/>
      <point x="128" y="199"/>
      <point x="128" y="128" type="curve" smooth="yes"/>
      <point x="128" y="54"/>
      <point x="173" y="-10"/>
    </contour>
    <contour>
      <point x="268" y="16" type="curve" smooth="yes"/>
      <point x="194" y="16"/>
      <point x="155" y="60"/>
      <point x="155" y="128" type="curve" smooth="yes"/>
      <point x="155" y="194"/>
      <point x="191" y="252"/>
      <point x="278" y="334" type="curve"/>
      <point x="355" y="251"/>
      <point x="382" y="199"/>
      <point x="382" y="133" type="curve" smooth="yes"/>
      <point x="382" y="62"/>
      <point x="342" y="16"/>
    </contour>
  </outline>
</glyph>
<glyph name="fivegujr" format="2">
  <advance width="551"/>
  <unicode hex="0AEB"/>
  <outline>
    <contour>
      <point x="259" y="171" type="curve" smooth="yes"/>
      <point x="317" y="171"/>
      <point x="369" y="199"/>
      <point x="402" y="240" type="curve"/>
      <point x="402" y="275" type="line"/>
      <point x="363" y="226"/>
      <point x="317" y="197"/>
      <point x="259" y="197" type="curve" smooth="yes"/>
      <point x="217" y="197"/>
      <point x="182" y="211"/>
      <point x="162" y="236" type="curve" smooth="yes"/>
      <point x="146" y="256"/>
      <point x="137" y="283"/>
      <point x="137" y="316" type="curve" smooth="yes"/>
      <point x="137" y="464" type="line" smooth="yes"/>
      <point x="137" y="505"/>
      <point x="130" y="536"/>
      <point x="113" y="557" type="curve" smooth="yes"/>
      <point x="95" y="580"/>
      <point x="66" y="592"/>
      <point x="25" y="592" type="curve" smooth="yes"/>
      <point x="18" y="592" type="line"/>
      <point x="15" y="566" type="line"/>
      <point x="55" y="566"/>
      <point x="80" y="558"/>
      <point x="94" y="539" type="curve" smooth="yes"/>
      <point x="106" y="523"/>
      <point x="111" y="499"/>
      <point x="111" y="464" type="curve" smooth="yes"/>
      <point x="111" y="316" type="line" smooth="yes"/>
      <point x="111" y="277"/>
      <point x="122" y="245"/>
      <point x="142" y="220" type="curve" smooth="yes"/>
      <point x="167" y="188"/>
      <point x="209" y="171"/>
    </contour>
    <contour>
      <point x="512" y="0" type="curve" smooth="yes"/>
      <point x="521" y="0" type="line"/>
      <point x="524" y="26" type="line"/>
      <point x="491" y="26"/>
      <point x="468" y="29"/>
      <point x="450" y="41" type="curve" smooth="yes"/>
      <point x="428" y="56"/>
      <point x="418" y="80"/>
      <point x="418" y="129" type="curve" smooth="yes"/>
      <point x="418" y="598" type="line"/>
      <point x="392" y="602" type="line"/>
      <point x="392" y="128" type="line" smooth="yes"/>
      <point x="392" y="74"/>
      <point x="407" y="43"/>
      <point x="431" y="23" type="curve" smooth="yes"/>
      <point x="452" y="6"/>
      <point x="478" y="0"/>
    </contour>
  </outline>
</glyph>
<glyph name="sixgujr" format="2">
  <advance width="551"/>
  <unicode hex="0AEC"/>
  <outline>
    <contour>
      <point x="445" y="-150" type="line"/>
      <point x="472" y="-115"/>
      <point x="485" y="-89"/>
      <point x="485" y="-55" type="curve" smooth="yes"/>
      <point x="485" y="2"/>
      <point x="442" y="29"/>
      <point x="337" y="71" type="curve" smooth="yes"/>
      <point x="231" y="113"/>
      <point x="189" y="154"/>
      <point x="189" y="224" type="curve" smooth="yes"/>
      <point x="189" y="303"/>
      <point x="247" y="348"/>
      <point x="347" y="348" type="curve" smooth="yes"/>
      <point x="374" y="348"/>
      <point x="396" y="346"/>
      <point x="423" y="340" type="curve"/>
      <point x="428" y="366" type="line"/>
      <point x="402" y="371"/>
      <point x="377" y="374"/>
      <point x="347" y="374" type="curve" smooth="yes"/>
      <point x="232" y="374"/>
      <point x="162" y="317"/>
      <point x="162" y="224" type="curve" smooth="yes"/>
      <point x="162" y="143"/>
      <point x="210" y="95"/>
      <point x="327" y="48" type="curve" smooth="yes"/>
      <point x="433" y="5"/>
      <point x="458" y="-9"/>
      <point x="458" y="-55" type="curve" smooth="yes"/>
      <point x="458" y="-81"/>
      <point x="447" y="-104"/>
      <point x="423" y="-134" type="curve"/>
    </contour>
    <contour>
      <point x="219" y="317" type="curve"/>
      <point x="234" y="337" type="line"/>
      <point x="182" y="371"/>
      <point x="148" y="410"/>
      <point x="148" y="469" type="curve" smooth="yes"/>
      <point x="148" y="532"/>
      <point x="199" y="576"/>
      <point x="297" y="576" type="curve" smooth="yes"/>
      <point x="337" y="576"/>
      <point x="367" y="571"/>
      <point x="399" y="562" type="curve"/>
      <point x="404" y="587" type="line"/>
      <point x="371" y="596"/>
      <point x="339" y="602"/>
      <point x="297" y="602" type="curve" smooth="yes"/>
      <point x="187" y="602"/>
      <point x="121" y="549"/>
      <point x="121" y="469" type="curve" smooth="yes"/>
      <point x="121" y="401"/>
      <point x="162" y="356"/>
    </contour>
  </outline>
</glyph>
<glyph name="sevengujr" format="2">
  <advance width="551"/>
  <unicode hex="0AED"/>
  <outline>
    <contour>
      <point x="278" y="-10" type="curve" smooth="yes"/>
      <point x="426" y="-10"/>
      <point x="486" y="114"/>
      <point x="486" y="297" type="curve" smooth="yes"/>
      <point x="486" y="461"/>
      <point x="426" y="602"/>
      <point x="278" y="602" type="curve" smooth="yes"/>
      <point x="189" y="602"/>
      <point x="130" y="547"/>
      <point x="130" y="466" type="curve" smooth="yes"/>
      <point x="130" y="351"/>
      <point x="236" y="284"/>
      <point x="434" y="284" type="curve"/>
      <point x="435" y="310" type="line"/>
      <point x="252" y="310"/>
      <point x="157" y="365"/>
      <point x="157" y="466" type="curve" smooth="yes"/>
      <point x="157" y="534"/>
      <point x="206" y="576"/>
      <point x="278" y="576" type="curve" smooth="yes"/>
      <point x="412" y="576"/>
      <point x="459" y="442"/>
      <point x="459" y="297" type="curve" smooth="yes"/>
      <point x="459" y="131"/>
      <point x="412" y="16"/>
      <point x="278" y="16" type="curve" smooth="yes"/>
      <point x="156" y="16"/>
      <point x="91" y="107"/>
      <point x="66" y="276" type="curve"/>
      <point x="40" y="272" type="line"/>
      <point x="69" y="90"/>
      <point x="140" y="-10"/>
    </contour>
  </outline>
</glyph>
<glyph name="eightgujr" format="2">
  <advance width="551"/>
  <unicode hex="0AEE"/>
  <outline>
    <contour>
      <point x="279" y="-10" type="curve" smooth="yes"/>
      <point x="357" y="-10"/>
      <point x="422" y="13"/>
      <point x="486" y="52" type="curve"/>
      <point x="474" y="75" type="line"/>
      <point x="413" y="37"/>
      <point x="351" y="16"/>
      <point x="280" y="16" type="curve" smooth="yes"/>
      <point x="175" y="16"/>
      <point x="112" y="69"/>
      <point x="112" y="157" type="curve" smooth="yes"/>
      <point x="112" y="234"/>
      <point x="153" y="286"/>
      <point x="241" y="370" type="curve" smooth="yes"/>
      <point x="463" y="582" type="line"/>
      <point x="444" y="602" type="line"/>
      <point x="222" y="388" type="line" smooth="yes"/>
      <point x="127" y="296"/>
      <point x="85" y="241"/>
      <point x="85" y="157" type="curve" smooth="yes"/>
      <point x="85" y="57"/>
      <point x="161" y="-10"/>
    </contour>
  </outline>
</glyph>
<glyph name="ninegujr" format="2">
  <advance width="551"/>
  <unicode hex="0AEF"/>
  <outline>
    <contour>
      <point x="350" y="-10" type="curve" smooth="yes"/>
      <point x="407" y="-10"/>
      <point x="456" y="0"/>
      <point x="508" y="22" type="curve"/>
      <point x="498" y="47" type="line"/>
      <point x="446" y="25"/>
      <point x="402" y="16"/>
      <point x="350" y="16" type="curve" smooth="yes"/>
      <point x="199" y="16"/>
      <point x="93" y="121"/>
      <point x="93" y="270" type="curve" smooth="yes"/>
      <point x="93" y="417"/>
      <point x="193" y="518"/>
      <point x="362" y="578" type="curve"/>
      <point x="352" y="602" type="line"/>
      <point x="170" y="537"/>
      <point x="66" y="428"/>
      <point x="66" y="270" type="curve" smooth="yes"/>
      <point x="66" y="107"/>
      <point x="184" y="-10"/>
    </contour>
    <contour>
      <point x="231" y="251" type="line"/>
      <point x="480" y="317" type="line"/>
      <point x="473" y="343" type="line"/>
      <point x="224" y="277" type="line"/>
    </contour>
  </outline>
</glyph>
<glyph name="uni0AF0" format="2">
  <advance width="366"/>
  <unicode hex="0AF0"/>
  <outline>
    <contour>
      <point x="183" y="210" type="curve" smooth="yes"/>
      <point x="260" y="210"/>
      <point x="316" y="262"/>
      <point x="316" y="338" type="curve" smooth="yes"/>
      <point x="316" y="414"/>
      <point x="260" y="466"/>
      <point x="183" y="466" type="curve" smooth="yes"/>
      <point x="106" y="466"/>
      <point x="50" y="414"/>
      <point x="50" y="338" type="curve" smooth="yes"/>
      <point x="50" y="262"/>
      <point x="106" y="210"/>
    </contour>
    <contour>
      <point x="183" y="236" type="curve" smooth="yes"/>
      <point x="122" y="236"/>
      <point x="77" y="275"/>
      <point x="77" y="338" type="curve" smooth="yes"/>
      <point x="77" y="401"/>
      <point x="122" y="440"/>
      <point x="183" y="440" type="curve" smooth="yes"/>
      <point x="244" y="440"/>
      <point x="289" y="400"/>
      <point x="289" y="338" type="curve" smooth="yes"/>
      <point x="289" y="276"/>
      <point x="244" y="236"/>
    </contour>
  </outline>
</glyph>
<glyph name="uni0AFA" format="2">
  <unicode hex="0AFA"/>
  <outline>
    <contour>
      <point x="-151" y="644" type="line"/>
      <point x="-86" y="676"/>
      <point x="-46" y="710"/>
      <point x="-46" y="781" type="curve" smooth="yes"/>
      <point x="-46" y="828"/>
      <point x="-79" y="888"/>
      <point x="-167" y="888" type="curve" smooth="yes"/>
      <point x="-210" y="888"/>
      <point x="-242" y="878"/>
      <point x="-272" y="865" type="curve"/>
      <point x="-263" y="840" type="line"/>
      <point x="-233" y="853"/>
      <point x="-205" y="862"/>
      <point x="-167" y="862" type="curve" smooth="yes"/>
      <point x="-99" y="862"/>
      <point x="-73" y="818"/>
      <point x="-73" y="781" type="curve" smooth="yes"/>
      <point x="-73" y="722"/>
      <point x="-106" y="694"/>
      <point x="-164" y="667" type="curve"/>
    </contour>
  </outline>
</glyph>
<glyph name="uni0AFB" format="2">
  <unicode hex="0AFB"/>
  <outline>
    <contour>
      <point x="-171" y="829" type="curve"/>
      <point x="-194" y="829" type="line"/>
      <point x="-197" y="746"/>
      <point x="-218" y="711"/>
      <point x="-270" y="711" type="curve" smooth="yes"/>
      <point x="-314" y="711"/>
      <point x="-342" y="736"/>
      <point x="-344" y="830" type="curve"/>
      <point x="-370" y="829" type="line"/>
      <point x="-366" y="722"/>
      <point x="-330" y="685"/>
      <point x="-270" y="685" type="curve" smooth="yes"/>
      <point x="-211" y="685"/>
      <point x="-181" y="722"/>
    </contour>
    <contour>
      <point x="-168" y="829" type="curve"/>
      <point x="-191" y="829" type="line"/>
      <point x="-182" y="722"/>
      <point x="-150" y="685"/>
      <point x="-91" y="685" type="curve" smooth="yes"/>
      <point x="-32" y="685"/>
      <point x="4" y="720"/>
      <point x="7" y="829" type="curve"/>
      <point x="-19" y="830" type="line"/>
      <point x="-21" y="735"/>
      <point x="-48" y="711"/>
      <point x="-92" y="711" type="curve" smooth="yes"/>
      <point x="-144" y="711"/>
      <point x="-166" y="748"/>
    </contour>
  </outline>
</glyph>
<glyph name="uni0AFD" format="2">
  <unicode hex="0AFD"/>
  <outline>
    <contour>
      <point x="-253" y="788" type="curve" smooth="yes"/>
      <point x="-236" y="788"/>
      <point x="-223" y="800"/>
      <point x="-223" y="826" type="curve" smooth="yes"/>
      <point x="-223" y="849"/>
      <point x="-234" y="864"/>
      <point x="-253" y="864" type="curve" smooth="yes"/>
      <point x="-271" y="864"/>
      <point x="-284" y="850"/>
      <point x="-284" y="826" type="curve" smooth="yes"/>
      <point x="-284" y="801"/>
      <point x="-269" y="788"/>
    </contour>
    <contour>
      <point x="-329" y="666" type="curve" smooth="yes"/>
      <point x="-312" y="666"/>
      <point x="-299" y="678"/>
      <point x="-299" y="704" type="curve" smooth="yes"/>
      <point x="-299" y="727"/>
      <point x="-310" y="742"/>
      <point x="-329" y="742" type="curve" smooth="yes"/>
      <point x="-347" y="742"/>
      <point x="-360" y="728"/>
      <point x="-360" y="704" type="curve" smooth="yes"/>
      <point x="-360" y="679"/>
      <point x="-345" y="666"/>
    </contour>
    <contour>
      <point x="-180" y="666" type="curve" smooth="yes"/>
      <point x="-163" y="666"/>
      <point x="-150" y="678"/>
      <point x="-150" y="704" type="curve" smooth="yes"/>
      <point x="-150" y="727"/>
      <point x="-161" y="742"/>
      <point x="-180" y="742" type="curve" smooth="yes"/>
      <point x="-198" y="742"/>
      <point x="-211" y="728"/>
      <point x="-211" y="704" type="curve" smooth="yes"/>
      <point x="-211" y="679"/>
      <point x="-196" y="666"/>
    </contour>
  </outline>
</glyph>
<glyph name="uni0AFE" format="2">
  <unicode hex="0AFE"/>
  <outline>
    <contour>
      <point x="-351" y="761" type="curve" smooth="yes"/>
      <point x="-351" y="705"/>
      <point x="-313" y="666"/>
      <point x="-255" y="666" type="curve" smooth="yes"/>
      <point x="-197" y="666"/>
      <point x="-159" y="707"/>
      <point x="-159" y="761" type="curve" smooth="yes"/>
      <point x="-159" y="818"/>
      <point x="-198" y="857"/>
      <point x="-255" y="857" type="curve" smooth="yes"/>
      <point x="-311" y="857"/>
      <point x="-351" y="817"/>
    </contour>
    <contour>
      <point x="-326" y="761" type="curve" smooth="yes"/>
      <point x="-326" y="803"/>
      <point x="-298" y="833"/>
      <point x="-255" y="833" type="curve" smooth="yes"/>
      <point x="-210" y="833"/>
      <point x="-184" y="804"/>
      <point x="-184" y="761" type="curve" smooth="yes"/>
      <point x="-184" y="720"/>
      <point x="-212" y="690"/>
      <point x="-255" y="690" type="curve" smooth="yes"/>
      <point x="-300" y="690"/>
      <point x="-326" y="719"/>
    </contour>
  </outline>
</glyph>
<glyph name="uni0AFF" format="2">
  <unicode hex="0AFF"/>
  <outline>
    <contour>
      <point x="-448" y="761" type="curve" smooth="yes"/>
      <point x="-448" y="705"/>
      <point x="-414" y="666"/>
      <point x="-357" y="666" type="curve" smooth="yes"/>
      <point x="-300" y="666"/>
      <point x="-266" y="707"/>
      <point x="-266" y="761" type="curve" smooth="yes"/>
      <point x="-266" y="818"/>
      <point x="-301" y="857"/>
      <point x="-357" y="857" type="curve" smooth="yes"/>
      <point x="-412" y="857"/>
      <point x="-448" y="817"/>
    </contour>
    <contour>
      <point x="-423" y="761" type="curve" smooth="yes"/>
      <point x="-423" y="803"/>
      <point x="-399" y="833"/>
      <point x="-357" y="833" type="curve" smooth="yes"/>
      <point x="-313" y="833"/>
      <point x="-291" y="804"/>
      <point x="-291" y="761" type="curve" smooth="yes"/>
      <point x="-291" y="720"/>
      <point x="-315" y="690"/>
      <point x="-357" y="690" type="curve" smooth="yes"/>
      <point x="-401" y="690"/>
      <point x="-423" y="719"/>
    </contour>
    <contour>
      <point x="-244" y="761" type="curve" smooth="yes"/>
      <point x="-244" y="705"/>
      <point x="-210" y="666"/>
      <point x="-153" y="666" type="curve" smooth="yes"/>
      <point x="-96" y="666"/>
      <point x="-62" y="707"/>
      <point x="-62" y="761" type="curve" smooth="yes"/>
      <point x="-62" y="818"/>
      <point x="-97" y="857"/>
      <point x="-153" y="857" type="curve" smooth="yes"/>
      <point x="-208" y="857"/>
      <point x="-244" y="817"/>
    </contour>
    <contour>
      <point x="-219" y="761" type="curve" smooth="yes"/>
      <point x="-219" y="803"/>
      <point x="-195" y="833"/>
      <point x="-153" y="833" type="curve" smooth="yes"/>
      <point x="-109" y="833"/>
      <point x="-87" y="804"/>
      <point x="-87" y="761" type="curve" smooth="yes"/>
      <point x="-87" y="720"/>
      <point x="-111" y="690"/>
      <point x="-153" y="690" type="curve" smooth="yes"/>
      <point x="-197" y="690"/>
      <point x="-219" y="719"/>
    </contour>
  </outline>
</glyph>
<glyph name="uni200C" format="2">
  <unicode hex="200C"/>
  <outline>
    <contour>
      <point x="-26" y="-166" type="line"/>
      <point x="26" y="-166" type="line"/>
      <point x="26" y="788" type="line"/>
      <point x="-26" y="788" type="line"/>
    </contour>
  </outline>
</glyph>
<glyph name="endash.gujr" format="2">
  <advance width="500"/>
  <unicode hex="2013"/>
  <outline>
    <contour>
      <point x="40" y="284" type="line"/>
      <point x="460" y="284" type="line"/>
      <point x="460" y="310" type="line"/>
      <point x="40" y="310" type="line"/>
    </contour>
  </outline>
</glyph>
<glyph name="minus.gujr" format="2">
  <advance width="551"/>
  <unicode hex="2212"/>
  <outline>
    <contour>
      <point x="58" y="309" type="line"/>
      <point x="494" y="309" type="line"/>
      <point x="494" y="335" type="line"/>
      <point x="58" y="335" type="line"/>
    </contour>
  </outline>
</glyph>
<glyph name="aivowelsignrephanusvaragujr" format="2">
  <outline>
    <contour>
      <point x="-134" y="641" type="curve"/>
      <point x="-110" y="641" type="line"/>
      <point x="-127" y="709"/>
      <point x="-141" y="753"/>
      <point x="-158" y="796" type="curve"/>
      <point x="-165" y="804" type="line"/>
      <point x="-194" y="873"/>
      <point x="-231" y="896"/>
      <point x="-289" y="896" type="curve" smooth="yes"/>
      <point x="-310" y="896"/>
      <point x="-328" y="893"/>
      <point x="-353" y="886" type="curve"/>
      <point x="-345" y="861" type="line"/>
      <point x="-322" y="868"/>
      <point x="-306" y="870"/>
      <point x="-289" y="870" type="curve" smooth="yes"/>
      <point x="-208" y="870"/>
      <point x="-177" y="811"/>
    </contour>
    <contour>
      <point x="-163" y="635" type="curve"/>
      <point x="-147" y="652" type="line"/>
      <point x="-246" y="743"/>
      <point x="-293" y="777"/>
      <point x="-371" y="777" type="curve" smooth="yes"/>
      <point x="-396" y="777"/>
      <point x="-422" y="774"/>
      <point x="-449" y="767" type="curve"/>
      <point x="-441" y="742" type="line"/>
      <point x="-416" y="749"/>
      <point x="-393" y="751"/>
      <point x="-371" y="751" type="curve" smooth="yes"/>
      <point x="-300" y="751"/>
      <point x="-252" y="718"/>
    </contour>
    <contour>
      <point x="-47" y="700" type="curve" smooth="yes"/>
      <point x="-30" y="700"/>
      <point x="-17" y="712"/>
      <point x="-17" y="738" type="curve" smooth="yes"/>
      <point x="-17" y="761"/>
      <point x="-28" y="776"/>
      <point x="-47" y="776" type="curve" smooth="yes"/>
      <point x="-65" y="776"/>
      <point x="-78" y="762"/>
      <point x="-78" y="738" type="curve" smooth="yes"/>
      <point x="-78" y="713"/>
      <point x="-63" y="700"/>
    </contour>
    <contour>
      <point x="-149" y="714" type="line"/>
      <point x="-152" y="724"/>
      <point x="-153" y="751"/>
      <point x="-153" y="757" type="curve" smooth="yes"/>
      <point x="-153" y="834"/>
      <point x="-104" y="862"/>
      <point x="-51" y="862" type="curve" smooth="yes"/>
      <point x="-20" y="862"/>
      <point x="3" y="856"/>
      <point x="37" y="840" type="curve"/>
      <point x="46" y="865" type="line"/>
      <point x="15" y="880"/>
      <point x="-11" y="888"/>
      <point x="-51" y="888" type="curve" smooth="yes"/>
      <point x="-121" y="888"/>
      <point x="-174" y="844"/>
      <point x="-174" y="777" type="curve"/>
    </contour>
  </outline>
</glyph>
<glyph name="badagujr" format="2">
  <advance width="903"/>
  <outline>
    <contour>
      <point x="217" y="167" type="curve" smooth="yes"/>
      <point x="308" y="167"/>
      <point x="370" y="236"/>
      <point x="370" y="338" type="curve" smooth="yes"/>
      <point x="370" y="435" type="line"/>
      <point x="344" y="439" type="line"/>
      <point x="344" y="338" type="line" smooth="yes"/>
      <point x="344" y="291"/>
      <point x="329" y="252"/>
      <point x="304" y="227" type="curve" smooth="yes"/>
      <point x="282" y="205"/>
      <point x="252" y="193"/>
      <point x="217" y="193" type="curve" smooth="yes"/>
      <point x="135" y="193"/>
      <point x="79" y="254"/>
      <point x="79" y="345" type="curve" smooth="yes"/>
      <point x="79" y="454"/>
      <point x="145" y="530"/>
      <point x="274" y="578" type="curve"/>
      <point x="264" y="602" type="line"/>
      <point x="126" y="548"/>
      <point x="52" y="465"/>
      <point x="52" y="345" type="curve" smooth="yes"/>
      <point x="52" y="239"/>
      <point x="120" y="167"/>
    </contour>
    <contour>
      <point x="459" y="241" type="curve" smooth="yes"/>
      <point x="502" y="241"/>
      <point x="527" y="248"/>
      <point x="560" y="265" type="curve"/>
      <point x="552" y="291" type="line"/>
      <point x="522" y="273"/>
      <point x="495" y="267"/>
      <point x="459" y="267" type="curve" smooth="yes"/>
      <point x="409" y="267"/>
      <point x="382" y="288"/>
      <point x="368" y="322" type="curve"/>
      <point x="349" y="310" type="line"/>
      <point x="367" y="262"/>
      <point x="403" y="241"/>
    </contour>
    <contour>
      <point x="749" y="-10" type="curve" smooth="yes"/>
      <point x="837" y="-10"/>
      <point x="912" y="32"/>
      <point x="912" y="90" type="curve" smooth="yes"/>
      <point x="912" y="116"/>
      <point x="894" y="134"/>
      <point x="867" y="134" type="curve" smooth="yes"/>
      <point x="841" y="134"/>
      <point x="822" y="115"/>
      <point x="822" y="89" type="curve" smooth="yes"/>
      <point x="822" y="69"/>
      <point x="835" y="52"/>
      <point x="857" y="43" type="curve"/>
      <point x="857" y="48" type="line"/>
      <point x="830" y="26"/>
      <point x="793" y="16"/>
      <point x="749" y="16" type="curve" smooth="yes"/>
      <point x="656" y="16"/>
      <point x="582" y="74"/>
      <point x="582" y="168" type="curve" smooth="yes"/>
      <point x="582" y="266"/>
      <point x="660" y="317"/>
      <point x="752" y="317" type="curve" smooth="yes"/>
      <point x="773" y="317"/>
      <point x="796" y="315"/>
      <point x="818" y="310" type="curve"/>
      <point x="823" y="335" type="line"/>
      <point x="800" y="340"/>
      <point x="777" y="343"/>
      <point x="752" y="343" type="curve" smooth="yes"/>
      <point x="646" y="343"/>
      <point x="555" y="280"/>
      <point x="555" y="168" type="curve" smooth="yes"/>
      <point x="555" y="60"/>
      <point x="642" y="-10"/>
    </contour>
    <contour>
      <point x="632" y="290" type="curve"/>
      <point x="648" y="310" type="line"/>
      <point x="579" y="344"/>
      <point x="538" y="392"/>
      <point x="538" y="457" type="curve" smooth="yes"/>
      <point x="538" y="534"/>
      <point x="598" y="577"/>
      <point x="682" y="577" type="curve" smooth="yes"/>
      <point x="715" y="577"/>
      <point x="746" y="573"/>
      <point x="778" y="565" type="curve"/>
      <point x="783" y="591" type="line"/>
      <point x="751" y="598"/>
      <point x="718" y="603"/>
      <point x="682" y="603" type="curve" smooth="yes"/>
      <point x="584" y="603"/>
      <point x="511" y="548"/>
      <point x="511" y="457" type="curve" smooth="yes"/>
      <point x="511" y="384"/>
      <point x="560" y="327"/>
    </contour>
  </outline>
</glyph>
<glyph name="baragujr" format="2">
  <advance width="685"/>
  <outline>
    <contour>
      <point x="217" y="167" type="curve" smooth="yes"/>
      <point x="308" y="167"/>
      <point x="370" y="236"/>
      <point x="370" y="338" type="curve" smooth="yes"/>
      <point x="370" y="435" type="line"/>
      <point x="344" y="439" type="line"/>
      <point x="344" y="338" type="line" smooth="yes"/>
      <point x="344" y="291"/>
      <point x="329" y="252"/>
      <point x="304" y="227" type="curve" smooth="yes"/>
      <point x="282" y="205"/>
      <point x="252" y="193"/>
      <point x="217" y="193" type="curve" smooth="yes"/>
      <point x="135" y="193"/>
      <point x="79" y="254"/>
      <point x="79" y="345" type="curve" smooth="yes"/>
      <point x="79" y="454"/>
      <point x="145" y="530"/>
      <point x="274" y="578" type="curve"/>
      <point x="264" y="602" type="line"/>
      <point x="126" y="548"/>
      <point x="52" y="466"/>
      <point x="52" y="345" type="curve" smooth="yes"/>
      <point x="52" y="239"/>
      <point x="120" y="167"/>
    </contour>
    <contour>
      <point x="310" y="18" type="line"/>
      <point x="571" y="191" type="line"/>
      <point x="560" y="213" type="line"/>
      <point x="551" y="207" type="line"/>
      <point x="294" y="40" type="line"/>
    </contour>
    <contour>
      <point x="447" y="261" type="curve" smooth="yes"/>
      <point x="502" y="261"/>
      <point x="539" y="290"/>
      <point x="561" y="322" type="curve"/>
      <point x="554" y="353" type="line"/>
      <point x="530" y="317"/>
      <point x="496" y="287"/>
      <point x="447" y="287" type="curve" smooth="yes"/>
      <point x="412" y="287"/>
      <point x="382" y="306"/>
      <point x="365" y="331" type="curve"/>
      <point x="352" y="311" type="line"/>
      <point x="372" y="277"/>
      <point x="411" y="261"/>
    </contour>
    <contour>
      <point x="671" y="0" type="curve" smooth="yes"/>
      <point x="680" y="0" type="line"/>
      <point x="683" y="26" type="line"/>
      <point x="650" y="26"/>
      <point x="627" y="29"/>
      <point x="609" y="41" type="curve" smooth="yes"/>
      <point x="587" y="56"/>
      <point x="577" y="80"/>
      <point x="577" y="129" type="curve" smooth="yes"/>
      <point x="577" y="598" type="line"/>
      <point x="551" y="602" type="line"/>
      <point x="551" y="128" type="line" smooth="yes"/>
      <point x="551" y="74"/>
      <point x="566" y="43"/>
      <point x="590" y="23" type="curve" smooth="yes"/>
      <point x="611" y="6"/>
      <point x="637" y="0"/>
    </contour>
  </outline>
</glyph>
<glyph name="baraprehalfgujr" format="2">
  <advance width="528"/>
  <outline>
    <contour>
      <point x="217" y="167" type="curve" smooth="yes"/>
      <point x="308" y="167"/>
      <point x="370" y="236"/>
      <point x="370" y="338" type="curve" smooth="yes"/>
      <point x="370" y="435" type="line"/>
      <point x="344" y="439" type="line"/>
      <point x="344" y="338" type="line" smooth="yes"/>
      <point x="344" y="291"/>
      <point x="329" y="252"/>
      <point x="304" y="227" type="curve" smooth="yes"/>
      <point x="282" y="205"/>
      <point x="252" y="193"/>
      <point x="217" y="193" type="curve" smooth="yes"/>
      <point x="135" y="193"/>
      <point x="79" y="254"/>
      <point x="79" y="345" type="curve" smooth="yes"/>
      <point x="79" y="454"/>
      <point x="145" y="530"/>
      <point x="274" y="578" type="curve"/>
      <point x="264" y="602" type="line"/>
      <point x="126" y="548"/>
      <point x="52" y="466"/>
      <point x="52" y="345" type="curve" smooth="yes"/>
      <point x="52" y="239"/>
      <point x="120" y="167"/>
    </contour>
    <contour>
      <point x="310" y="18" type="line"/>
      <point x="551" y="177" type="line"/>
      <point x="551" y="207" type="line"/>
      <point x="294" y="40" type="line"/>
    </contour>
    <contour>
      <point x="447" y="251" type="curve" smooth="yes"/>
      <point x="502" y="251"/>
      <point x="534" y="272"/>
      <point x="558" y="298" type="curve"/>
      <point x="546" y="325" type="line"/>
      <point x="526" y="300"/>
      <point x="496" y="277"/>
      <point x="449" y="277" type="curve" smooth="yes"/>
      <point x="412" y="277"/>
      <point x="382" y="298"/>
      <point x="368" y="332" type="curve"/>
      <point x="349" y="320" type="line"/>
      <point x="367" y="272"/>
      <point x="403" y="251"/>
    </contour>
  </outline>
</glyph>
<glyph name="bastemgujr" format="2">
  <advance width="685"/>
  <outline>
    <contour>
      <point x="217" y="167" type="curve" smooth="yes"/>
      <point x="308" y="167"/>
      <point x="370" y="236"/>
      <point x="370" y="338" type="curve" smooth="yes"/>
      <point x="370" y="435" type="line"/>
      <point x="344" y="439" type="line"/>
      <point x="344" y="338" type="line" smooth="yes"/>
      <point x="344" y="291"/>
      <point x="329" y="252"/>
      <point x="304" y="227" type="curve" smooth="yes"/>
      <point x="282" y="205"/>
      <point x="252" y="193"/>
      <point x="217" y="193" type="curve" smooth="yes"/>
      <point x="135" y="193"/>
      <point x="79" y="254"/>
      <point x="79" y="345" type="curve" smooth="yes"/>
      <point x="79" y="454"/>
      <point x="145" y="530"/>
      <point x="274" y="578" type="curve"/>
      <point x="264" y="602" type="line"/>
      <point x="126" y="548"/>
      <point x="52" y="466"/>
      <point x="52" y="345" type="curve" smooth="yes"/>
      <point x="52" y="239"/>
      <point x="120" y="167"/>
    </contour>
    <contour>
      <point x="450" y="251" type="curve" smooth="yes"/>
      <point x="503" y="251"/>
      <point x="538" y="277"/>
      <point x="561" y="304" type="curve"/>
      <point x="554" y="335" type="line"/>
      <point x="531" y="303"/>
      <point x="498" y="277"/>
      <point x="450" y="277" type="curve" smooth="yes"/>
      <point x="409" y="277"/>
      <point x="382" y="298"/>
      <point x="368" y="332" type="curve"/>
      <point x="349" y="320" type="line"/>
      <point x="367" y="272"/>
      <point x="404" y="251"/>
    </contour>
    <contour>
      <point x="551" y="-15" type="line"/>
      <point x="577" y="-15" type="line"/>
      <point x="577" y="598" type="line"/>
      <point x="551" y="602" type="line"/>
    </contour>
  </outline>
</glyph>
<glyph name="bharastemgujr" format="2">
  <advance width="764"/>
  <outline>
    <contour>
      <point x="235" y="66" type="curve"/>
      <point x="253" y="84" type="line"/>
      <point x="138" y="172"/>
      <point x="81" y="279"/>
      <point x="81" y="397" type="curve" smooth="yes"/>
      <point x="81" y="514"/>
      <point x="145" y="577"/>
      <point x="231" y="577" type="curve" smooth="yes"/>
      <point x="288" y="577"/>
      <point x="315" y="558"/>
      <point x="338" y="526" type="curve" smooth="yes"/>
      <point x="361" y="494"/>
      <point x="371" y="449"/>
      <point x="371" y="388" type="curve" smooth="yes"/>
      <point x="371" y="325" type="line"/>
      <point x="397" y="325" type="line"/>
      <point x="397" y="388" type="line" smooth="yes"/>
      <point x="397" y="457"/>
      <point x="384" y="510"/>
      <point x="355" y="547" type="curve" smooth="yes"/>
      <point x="329" y="580"/>
      <point x="293" y="603"/>
      <point x="231" y="603" type="curve" smooth="yes"/>
      <point x="125" y="603"/>
      <point x="54" y="519"/>
      <point x="54" y="397" type="curve" smooth="yes"/>
      <point x="54" y="269"/>
      <point x="117" y="159"/>
    </contour>
    <contour>
      <point x="389" y="18" type="line"/>
      <point x="650" y="191" type="line"/>
      <point x="639" y="213" type="line"/>
      <point x="630" y="207" type="line"/>
      <point x="373" y="40" type="line"/>
    </contour>
    <contour>
      <point x="365" y="233" type="curve" smooth="yes"/>
      <point x="385" y="233"/>
      <point x="397" y="245"/>
      <point x="397" y="274" type="curve" smooth="yes"/>
      <point x="397" y="306" type="line"/>
      <point x="645" y="306" type="line"/>
      <point x="645" y="332" type="line"/>
      <point x="337" y="332" type="line" smooth="yes"/>
      <point x="309" y="332"/>
      <point x="299" y="319"/>
      <point x="299" y="303" type="curve" smooth="yes"/>
      <point x="299" y="276"/>
      <point x="334" y="233"/>
    </contour>
    <contour>
      <point x="630" y="-15" type="line"/>
      <point x="656" y="-15" type="line"/>
      <point x="656" y="599" type="line"/>
      <point x="630" y="603" type="line"/>
    </contour>
  </outline>
</glyph>
<glyph name="bhastemgujr" format="2">
  <advance width="764"/>
  <outline>
    <contour>
      <point x="235" y="66" type="curve"/>
      <point x="253" y="84" type="line"/>
      <point x="138" y="172"/>
      <point x="81" y="278"/>
      <point x="81" y="396" type="curve" smooth="yes"/>
      <point x="81" y="513"/>
      <point x="145" y="576"/>
      <point x="231" y="576" type="curve" smooth="yes"/>
      <point x="288" y="576"/>
      <point x="315" y="557"/>
      <point x="338" y="525" type="curve" smooth="yes"/>
      <point x="361" y="493"/>
      <point x="371" y="448"/>
      <point x="371" y="387" type="curve" smooth="yes"/>
      <point x="371" y="332" type="line"/>
      <point x="397" y="332" type="line"/>
      <point x="397" y="387" type="line" smooth="yes"/>
      <point x="397" y="456"/>
      <point x="384" y="509"/>
      <point x="355" y="546" type="curve" smooth="yes"/>
      <point x="329" y="579"/>
      <point x="293" y="602"/>
      <point x="231" y="602" type="curve" smooth="yes"/>
      <point x="125" y="602"/>
      <point x="54" y="518"/>
      <point x="54" y="396" type="curve" smooth="yes"/>
      <point x="54" y="268"/>
      <point x="117" y="159"/>
    </contour>
    <contour>
      <point x="365" y="233" type="curve" smooth="yes"/>
      <point x="385" y="233"/>
      <point x="397" y="245"/>
      <point x="397" y="274" type="curve" smooth="yes"/>
      <point x="397" y="306" type="line"/>
      <point x="645" y="306" type="line"/>
      <point x="645" y="332" type="line"/>
      <point x="337" y="332" type="line" smooth="yes"/>
      <point x="309" y="332"/>
      <point x="299" y="319"/>
      <point x="299" y="303" type="curve" smooth="yes"/>
      <point x="299" y="276"/>
      <point x="334" y="233"/>
    </contour>
    <contour>
      <point x="630" y="-15" type="line"/>
      <point x="656" y="-15" type="line"/>
      <point x="656" y="598" type="line"/>
      <point x="630" y="602" type="line"/>
    </contour>
  </outline>
</glyph>
<glyph name="caprehalfgujr" format="2">
  <advance width="460"/>
  <outline>
    <contour>
      <point x="337" y="141" type="curve" smooth="yes"/>
      <point x="412" y="141"/>
      <point x="462" y="171"/>
      <point x="502" y="212" type="curve"/>
      <point x="488" y="233" type="line"/>
      <point x="447" y="192"/>
      <point x="408" y="167"/>
      <point x="337" y="167" type="curve" smooth="yes"/>
      <point x="253" y="167"/>
      <point x="194" y="201"/>
      <point x="156" y="269" type="curve"/>
      <point x="154" y="279" type="line"/>
      <point x="139" y="299"/>
      <point x="118" y="326"/>
      <point x="81" y="326" type="curve" smooth="yes"/>
      <point x="55" y="326"/>
      <point x="42" y="314"/>
      <point x="42" y="294" type="curve" smooth="yes"/>
      <point x="42" y="268"/>
      <point x="64" y="254"/>
      <point x="109" y="254" type="curve" smooth="yes"/>
      <point x="232" y="254"/>
      <point x="325" y="330"/>
      <point x="325" y="435" type="curve" smooth="yes"/>
      <point x="325" y="528"/>
      <point x="259" y="602"/>
      <point x="147" y="602" type="curve" smooth="yes"/>
      <point x="107" y="602"/>
      <point x="72" y="595"/>
      <point x="38" y="582" type="curve"/>
      <point x="48" y="555" type="line"/>
      <point x="80" y="567"/>
      <point x="114" y="576"/>
      <point x="146" y="576" type="curve" smooth="yes"/>
      <point x="248" y="576"/>
      <point x="298" y="516"/>
      <point x="298" y="435" type="curve" smooth="yes"/>
      <point x="298" y="350"/>
      <point x="233" y="291"/>
      <point x="129" y="281" type="curve"/>
      <point x="128" y="278" type="line"/>
      <point x="127" y="268" type="line"/>
      <point x="171" y="186"/>
      <point x="244" y="141"/>
    </contour>
  </outline>
</glyph>
<glyph name="caragujr" format="2">
  <advance width="628"/>
  <outline>
    <contour>
      <point x="337" y="143" type="curve" smooth="yes"/>
      <point x="403" y="143"/>
      <point x="451" y="173"/>
      <point x="503" y="208" type="curve"/>
      <point x="503" y="233" type="line"/>
      <point x="447" y="190"/>
      <point x="395" y="167"/>
      <point x="337" y="167" type="curve" smooth="yes"/>
      <point x="253" y="167"/>
      <point x="194" y="201"/>
      <point x="156" y="269" type="curve"/>
      <point x="154" y="279" type="line"/>
      <point x="139" y="299"/>
      <point x="118" y="326"/>
      <point x="81" y="326" type="curve" smooth="yes"/>
      <point x="55" y="326"/>
      <point x="42" y="314"/>
      <point x="42" y="294" type="curve" smooth="yes"/>
      <point x="42" y="268"/>
      <point x="64" y="254"/>
      <point x="109" y="254" type="curve" smooth="yes"/>
      <point x="232" y="254"/>
      <point x="325" y="330"/>
      <point x="325" y="435" type="curve" smooth="yes"/>
      <point x="325" y="528"/>
      <point x="259" y="602"/>
      <point x="147" y="602" type="curve" smooth="yes"/>
      <point x="107" y="602"/>
      <point x="72" y="595"/>
      <point x="38" y="582" type="curve"/>
      <point x="48" y="555" type="line"/>
      <point x="80" y="567"/>
      <point x="114" y="576"/>
      <point x="146" y="576" type="curve" smooth="yes"/>
      <point x="248" y="576"/>
      <point x="298" y="516"/>
      <point x="298" y="435" type="curve" smooth="yes"/>
      <point x="298" y="350"/>
      <point x="233" y="291"/>
      <point x="129" y="281" type="curve"/>
      <point x="128" y="278" type="line"/>
      <point x="127" y="268" type="line"/>
      <point x="171" y="187"/>
      <point x="244" y="143"/>
    </contour>
    <contour>
      <point x="148" y="-2" type="line"/>
      <point x="498" y="198" type="line"/>
      <point x="498" y="213" type="line"/>
      <point x="393" y="165" type="line"/>
      <point x="132" y="18" type="line"/>
    </contour>
    <contour>
      <point x="614" y="0" type="curve" smooth="yes"/>
      <point x="623" y="0" type="line"/>
      <point x="626" y="26" type="line"/>
      <point x="593" y="26"/>
      <point x="570" y="29"/>
      <point x="552" y="41" type="curve" smooth="yes"/>
      <point x="530" y="56"/>
      <point x="520" y="80"/>
      <point x="520" y="129" type="curve" smooth="yes"/>
      <point x="520" y="598" type="line"/>
      <point x="494" y="602" type="line"/>
      <point x="494" y="128" type="line" smooth="yes"/>
      <point x="494" y="74"/>
      <point x="509" y="43"/>
      <point x="533" y="23" type="curve" smooth="yes"/>
      <point x="554" y="6"/>
      <point x="580" y="0"/>
    </contour>
  </outline>
</glyph>
<glyph name="caraprehalfgujr" format="2">
  <advance width="460"/>
  <outline>
    <contour>
      <point x="337" y="143" type="curve" smooth="yes"/>
      <point x="399" y="143"/>
      <point x="446" y="170"/>
      <point x="498" y="205" type="curve"/>
      <point x="494" y="225" type="line"/>
      <point x="440" y="188"/>
      <point x="397" y="167"/>
      <point x="337" y="167" type="curve" smooth="yes"/>
      <point x="253" y="167"/>
      <point x="194" y="201"/>
      <point x="156" y="269" type="curve"/>
      <point x="154" y="279" type="line"/>
      <point x="139" y="299"/>
      <point x="118" y="326"/>
      <point x="81" y="326" type="curve" smooth="yes"/>
      <point x="55" y="326"/>
      <point x="42" y="314"/>
      <point x="42" y="294" type="curve" smooth="yes"/>
      <point x="42" y="268"/>
      <point x="64" y="254"/>
      <point x="109" y="254" type="curve" smooth="yes"/>
      <point x="232" y="254"/>
      <point x="325" y="330"/>
      <point x="325" y="435" type="curve" smooth="yes"/>
      <point x="325" y="528"/>
      <point x="259" y="602"/>
      <point x="147" y="602" type="curve" smooth="yes"/>
      <point x="107" y="602"/>
      <point x="72" y="595"/>
      <point x="38" y="582" type="curve"/>
      <point x="48" y="555" type="line"/>
      <point x="80" y="567"/>
      <point x="114" y="576"/>
      <point x="146" y="576" type="curve" smooth="yes"/>
      <point x="248" y="576"/>
      <point x="298" y="516"/>
      <point x="298" y="435" type="curve" smooth="yes"/>
      <point x="298" y="350"/>
      <point x="233" y="291"/>
      <point x="129" y="281" type="curve"/>
      <point x="128" y="278" type="line"/>
      <point x="127" y="268" type="line"/>
      <point x="171" y="187"/>
      <point x="244" y="143"/>
    </contour>
    <contour>
      <point x="148" y="-2" type="line"/>
      <point x="507" y="202" type="line"/>
      <point x="494" y="225" type="line"/>
      <point x="462" y="196" type="line"/>
      <point x="393" y="165" type="line"/>
      <point x="132" y="18" type="line"/>
    </contour>
  </outline>
</glyph>
<glyph name="chasquishgujr" format="2">
  <advance width="692"/>
  <outline>
    <contour>
      <point x="312" y="118" type="curve" smooth="yes"/>
      <point x="508" y="118"/>
      <point x="645" y="251"/>
      <point x="645" y="428" type="curve" smooth="yes"/>
      <point x="645" y="537"/>
      <point x="589" y="602"/>
      <point x="499" y="602" type="curve" smooth="yes"/>
      <point x="426" y="602"/>
      <point x="377" y="557"/>
      <point x="377" y="491" type="curve" smooth="yes"/>
      <point x="377" y="410"/>
      <point x="439" y="359"/>
      <point x="560" y="335" type="curve"/>
      <point x="568" y="359" type="line"/>
      <point x="456" y="381"/>
      <point x="404" y="423"/>
      <point x="404" y="491" type="curve" smooth="yes"/>
      <point x="404" y="543"/>
      <point x="441" y="576"/>
      <point x="499" y="576" type="curve" smooth="yes"/>
      <point x="574" y="576"/>
      <point x="618" y="523"/>
      <point x="618" y="428" type="curve" smooth="yes"/>
      <point x="618" y="267"/>
      <point x="495" y="144"/>
      <point x="312" y="144" type="curve" smooth="yes"/>
      <point x="192" y="144"/>
      <point x="124" y="187"/>
      <point x="124" y="265" type="curve" smooth="yes"/>
      <point x="124" y="349"/>
      <point x="185" y="375"/>
      <point x="265" y="375" type="curve" smooth="yes"/>
      <point x="287" y="375"/>
      <point x="298" y="374"/>
      <point x="309" y="372" type="curve"/>
      <point x="313" y="397" type="line"/>
      <point x="301" y="399"/>
      <point x="289" y="400"/>
      <point x="265" y="400" type="curve" smooth="yes"/>
      <point x="172" y="400"/>
      <point x="97" y="364"/>
      <point x="97" y="265" type="curve" smooth="yes"/>
      <point x="97" y="174"/>
      <point x="174" y="118"/>
    </contour>
    <contour>
      <point x="145" y="353" type="curve"/>
      <point x="162" y="371" type="line"/>
      <point x="113" y="395"/>
      <point x="81" y="427"/>
      <point x="81" y="480" type="curve" smooth="yes"/>
      <point x="81" y="542"/>
      <point x="138" y="576"/>
      <point x="212" y="576" type="curve" smooth="yes"/>
      <point x="244" y="576"/>
      <point x="265" y="574"/>
      <point x="287" y="569" type="curve"/>
      <point x="293" y="594" type="line"/>
      <point x="268" y="599"/>
      <point x="246" y="602"/>
      <point x="212" y="602" type="curve" smooth="yes"/>
      <point x="123" y="602"/>
      <point x="54" y="558"/>
      <point x="54" y="480" type="curve" smooth="yes"/>
      <point x="54" y="419"/>
      <point x="93" y="381"/>
    </contour>
  </outline>
</glyph>
<glyph name="chavagujr" format="2">
  <advance width="696"/>
  <outline>
    <contour>
      <point x="305" y="67" type="curve" smooth="yes"/>
      <point x="511" y="67"/>
      <point x="649" y="215"/>
      <point x="649" y="406" type="curve" smooth="yes"/>
      <point x="649" y="520"/>
      <point x="595" y="602"/>
      <point x="495" y="602" type="curve" smooth="yes"/>
      <point x="420" y="602"/>
      <point x="369" y="554"/>
      <point x="369" y="482" type="curve" smooth="yes"/>
      <point x="369" y="394"/>
      <point x="438" y="336"/>
      <point x="564" y="311" type="curve"/>
      <point x="572" y="335" type="line"/>
      <point x="468" y="355"/>
      <point x="396" y="398"/>
      <point x="396" y="482" type="curve" smooth="yes"/>
      <point x="396" y="539"/>
      <point x="433" y="576"/>
      <point x="495" y="576" type="curve" smooth="yes"/>
      <point x="580" y="576"/>
      <point x="622" y="508"/>
      <point x="622" y="406" type="curve" smooth="yes"/>
      <point x="622" y="229"/>
      <point x="497" y="93"/>
      <point x="305" y="93" type="curve" smooth="yes"/>
      <point x="197" y="93"/>
      <point x="124" y="141"/>
      <point x="124" y="229" type="curve" smooth="yes"/>
      <point x="124" y="309"/>
      <point x="184" y="352"/>
      <point x="277" y="352" type="curve" smooth="yes"/>
      <point x="294" y="352"/>
      <point x="305" y="351"/>
      <point x="316" y="349" type="curve"/>
      <point x="320" y="375" type="line"/>
      <point x="308" y="377"/>
      <point x="296" y="378"/>
      <point x="277" y="378" type="curve" smooth="yes"/>
      <point x="173" y="378"/>
      <point x="97" y="323"/>
      <point x="97" y="229" type="curve" smooth="yes"/>
      <point x="97" y="127"/>
      <point x="182" y="67"/>
    </contour>
    <contour>
      <point x="165" y="328" type="curve"/>
      <point x="181" y="347" type="line"/>
      <point x="121" y="375"/>
      <point x="81" y="414"/>
      <point x="81" y="475" type="curve" smooth="yes"/>
      <point x="81" y="540"/>
      <point x="138" y="576"/>
      <point x="214" y="576" type="curve" smooth="yes"/>
      <point x="244" y="576"/>
      <point x="265" y="574"/>
      <point x="287" y="569" type="curve"/>
      <point x="293" y="594" type="line"/>
      <point x="268" y="599"/>
      <point x="246" y="602"/>
      <point x="214" y="602" type="curve" smooth="yes"/>
      <point x="123" y="602"/>
      <point x="54" y="556"/>
      <point x="54" y="475" type="curve" smooth="yes"/>
      <point x="54" y="406"/>
      <point x="101" y="360"/>
    </contour>
    <contour>
      <point x="372" y="-209" type="curve" smooth="yes"/>
      <point x="440" y="-209"/>
      <point x="483" y="-181"/>
      <point x="523" y="-142" type="curve"/>
      <point x="510" y="-119" type="line"/>
      <point x="477" y="-154"/>
      <point x="433" y="-183"/>
      <point x="372" y="-183" type="curve" smooth="yes"/>
      <point x="303" y="-183"/>
      <point x="266" y="-150"/>
      <point x="266" y="-92" type="curve" smooth="yes"/>
      <point x="266" y="-38"/>
      <point x="303" y="-2"/>
      <point x="372" y="-2" type="curve" smooth="yes"/>
      <point x="398" y="-2"/>
      <point x="422" y="-5"/>
      <point x="443" y="-12" type="curve"/>
      <point x="449" y="14" type="line"/>
      <point x="424" y="22"/>
      <point x="399" y="24"/>
      <point x="372" y="24" type="curve" smooth="yes"/>
      <point x="284" y="24"/>
      <point x="239" y="-28"/>
      <point x="239" y="-91" type="curve" smooth="yes"/>
      <point x="239" y="-163"/>
      <point x="286" y="-209"/>
    </contour>
    <contour>
      <point x="615" y="-268" type="curve" smooth="yes"/>
      <point x="624" y="-268" type="line"/>
      <point x="627" y="-242" type="line"/>
      <point x="596" y="-242"/>
      <point x="574" y="-240"/>
      <point x="558" y="-227" type="curve" smooth="yes"/>
      <point x="539" y="-212"/>
      <point x="531" y="-188"/>
      <point x="531" y="-139" type="curve" smooth="yes"/>
      <point x="531" y="156" type="line"/>
      <point x="505" y="146" type="line"/>
      <point x="505" y="-140" type="line" smooth="yes"/>
      <point x="505" y="-194"/>
      <point x="516" y="-226"/>
      <point x="539" y="-245" type="curve" smooth="yes"/>
      <point x="559" y="-262"/>
      <point x="583" y="-268"/>
    </contour>
  </outline>
</glyph>
<glyph name="chayagujr" format="2">
  <advance width="1238"/>
  <outline>
    <contour>
      <point x="315" y="-10" type="curve" smooth="yes"/>
      <point x="511" y="-10"/>
      <point x="655" y="160"/>
      <point x="655" y="378" type="curve" smooth="yes"/>
      <point x="655" y="511"/>
      <point x="602" y="602"/>
      <point x="504" y="602" type="curve" smooth="yes"/>
      <point x="425" y="602"/>
      <point x="375" y="546"/>
      <point x="375" y="470" type="curve" smooth="yes"/>
      <point x="375" y="372"/>
      <point x="447" y="310"/>
      <point x="570" y="282" type="curve"/>
      <point x="578" y="307" type="line"/>
      <point x="475" y="328"/>
      <point x="402" y="376"/>
      <point x="402" y="470" type="curve" smooth="yes"/>
      <point x="402" y="531"/>
      <point x="438" y="576"/>
      <point x="504" y="576" type="curve" smooth="yes"/>
      <point x="587" y="576"/>
      <point x="628" y="497"/>
      <point x="628" y="378" type="curve" smooth="yes"/>
      <point x="628" y="174"/>
      <point x="497" y="16"/>
      <point x="315" y="16" type="curve" smooth="yes"/>
      <point x="203" y="16"/>
      <point x="124" y="76"/>
      <point x="124" y="171" type="curve" smooth="yes"/>
      <point x="124" y="260"/>
      <point x="186" y="319"/>
      <point x="282" y="319" type="curve" smooth="yes"/>
      <point x="294" y="319"/>
      <point x="305" y="318"/>
      <point x="316" y="316" type="curve"/>
      <point x="320" y="342" type="line"/>
      <point x="308" y="344"/>
      <point x="296" y="345"/>
      <point x="282" y="345" type="curve" smooth="yes"/>
      <point x="173" y="345"/>
      <point x="97" y="273"/>
      <point x="97" y="171" type="curve" smooth="yes"/>
      <point x="97" y="63"/>
      <point x="191" y="-10"/>
    </contour>
    <contour>
      <point x="174" y="297" type="curve"/>
      <point x="189" y="317" type="line"/>
      <point x="123" y="347"/>
      <point x="81" y="391"/>
      <point x="81" y="459" type="curve" smooth="yes"/>
      <point x="81" y="535"/>
      <point x="138" y="576"/>
      <point x="217" y="576" type="curve" smooth="yes"/>
      <point x="244" y="576"/>
      <point x="265" y="573"/>
      <point x="287" y="568" type="curve"/>
      <point x="293" y="593" type="line"/>
      <point x="268" y="599"/>
      <point x="246" y="602"/>
      <point x="217" y="602" type="curve" smooth="yes"/>
      <point x="123" y="602"/>
      <point x="54" y="550"/>
      <point x="54" y="459" type="curve" smooth="yes"/>
      <point x="54" y="383"/>
      <point x="103" y="331"/>
    </contour>
    <contour>
      <point x="933" y="140" type="curve" smooth="yes"/>
      <point x="1000" y="140"/>
      <point x="1066" y="166"/>
      <point x="1113" y="212" type="curve"/>
      <point x="1115" y="231" type="line"/>
      <point x="1113" y="251" type="line"/>
      <point x="1068" y="197"/>
      <point x="1002" y="166"/>
      <point x="933" y="166" type="curve" smooth="yes"/>
      <point x="849" y="166"/>
      <point x="807" y="204"/>
      <point x="771" y="267" type="curve"/>
      <point x="763" y="253" type="line"/>
      <point x="853" y="289"/>
      <point x="900" y="330"/>
      <point x="900" y="402" type="curve" smooth="yes"/>
      <point x="900" y="431"/>
      <point x="890" y="462"/>
      <point x="864" y="484" type="curve" smooth="yes"/>
      <point x="838" y="506"/>
      <point x="809" y="521"/>
      <point x="726" y="521" type="curve" smooth="yes"/>
      <point x="624" y="521" type="line"/>
      <point x="624" y="495" type="line"/>
      <point x="732" y="495" type="line" smooth="yes"/>
      <point x="800" y="495"/>
      <point x="827" y="483"/>
      <point x="846" y="465" type="curve" smooth="yes"/>
      <point x="865" y="447"/>
      <point x="873" y="426"/>
      <point x="873" y="402" type="curve" smooth="yes"/>
      <point x="873" y="335"/>
      <point x="821" y="303"/>
      <point x="739" y="275" type="curve"/>
      <point x="787" y="174"/>
      <point x="849" y="140"/>
    </contour>
    <contour>
      <point x="1224" y="0" type="curve" smooth="yes"/>
      <point x="1233" y="0" type="line"/>
      <point x="1236" y="26" type="line"/>
      <point x="1203" y="26"/>
      <point x="1180" y="29"/>
      <point x="1162" y="41" type="curve" smooth="yes"/>
      <point x="1140" y="56"/>
      <point x="1130" y="80"/>
      <point x="1130" y="129" type="curve" smooth="yes"/>
      <point x="1130" y="598" type="line"/>
      <point x="1104" y="602" type="line"/>
      <point x="1104" y="128" type="line" smooth="yes"/>
      <point x="1104" y="74"/>
      <point x="1119" y="43"/>
      <point x="1143" y="23" type="curve" smooth="yes"/>
      <point x="1164" y="6"/>
      <point x="1190" y="0"/>
    </contour>
  </outline>
</glyph>
<glyph name="dabagujr" format="2">
  <advance width="577"/>
  <outline>
    <contour>
      <point x="362" y="50" type="curve" smooth="yes"/>
      <point x="440" y="50"/>
      <point x="541" y="87"/>
      <point x="541" y="143" type="curve" smooth="yes"/>
      <point x="541" y="170"/>
      <point x="525" y="190"/>
      <point x="496" y="190" type="curve" smooth="yes"/>
      <point x="467" y="190"/>
      <point x="449" y="171"/>
      <point x="449" y="145" type="curve" smooth="yes"/>
      <point x="449" y="127"/>
      <point x="461" y="108"/>
      <point x="471" y="95" type="curve"/>
      <point x="485" y="106" type="line"/>
      <point x="450" y="84"/>
      <point x="409" y="76"/>
      <point x="362" y="76" type="curve" smooth="yes"/>
      <point x="260" y="76"/>
      <point x="196" y="127"/>
      <point x="196" y="210" type="curve" smooth="yes"/>
      <point x="196" y="290"/>
      <point x="247" y="326"/>
      <point x="339" y="372" type="curve" smooth="yes"/>
      <point x="442" y="423"/>
      <point x="477" y="455"/>
      <point x="477" y="512" type="curve" smooth="yes"/>
      <point x="477" y="547"/>
      <point x="460" y="576"/>
      <point x="434" y="603" type="curve"/>
      <point x="412" y="589" type="line"/>
      <point x="437" y="563"/>
      <point x="450" y="541"/>
      <point x="450" y="512" type="curve" smooth="yes"/>
      <point x="450" y="469"/>
      <point x="419" y="442"/>
      <point x="323" y="394" type="curve" smooth="yes"/>
      <point x="221" y="343"/>
      <point x="169" y="299"/>
      <point x="169" y="210" type="curve" smooth="yes"/>
      <point x="169" y="108"/>
      <point x="247" y="50"/>
    </contour>
    <contour>
      <point x="586" y="-83" type="line"/>
      <point x="609" y="-68" type="line"/>
      <point x="497" y="103" type="line"/>
      <point x="476" y="89" type="line"/>
    </contour>
    <contour>
      <point x="207" y="-121" type="curve" smooth="yes"/>
      <point x="321" y="-121"/>
      <point x="413" y="-62"/>
      <point x="484" y="80" type="curve"/>
      <point x="457" y="82" type="line"/>
      <point x="391" y="-42"/>
      <point x="310" y="-95"/>
      <point x="207" y="-95" type="curve" smooth="yes"/>
      <point x="114" y="-95"/>
      <point x="58" y="-47"/>
      <point x="58" y="29" type="curve" smooth="yes"/>
      <point x="58" y="109"/>
      <point x="118" y="154"/>
      <point x="186" y="175" type="curve"/>
      <point x="182" y="201" type="line"/>
      <point x="102" y="174"/>
      <point x="31" y="123"/>
      <point x="31" y="29" type="curve" smooth="yes"/>
      <point x="31" y="-68"/>
      <point x="105" y="-121"/>
    </contour>
    <contour>
      <point x="316" y="-92" type="line"/>
      <point x="339" y="-80" type="line"/>
      <point x="89" y="139" type="line"/>
      <point x="69" y="124" type="line"/>
    </contour>
  </outline>
</glyph>
<glyph name="dabhagujr" format="2">
  <advance width="532"/>
  <outline>
    <contour>
      <point x="315" y="89" type="curve" smooth="yes"/>
      <point x="392" y="89"/>
      <point x="497" y="123"/>
      <point x="497" y="182" type="curve" smooth="yes"/>
      <point x="497" y="211"/>
      <point x="479" y="229"/>
      <point x="452" y="229" type="curve" smooth="yes"/>
      <point x="423" y="229"/>
      <point x="405" y="211"/>
      <point x="405" y="185" type="curve" smooth="yes"/>
      <point x="405" y="166"/>
      <point x="417" y="147"/>
      <point x="427" y="134" type="curve"/>
      <point x="441" y="145" type="line"/>
      <point x="406" y="123"/>
      <point x="365" y="115"/>
      <point x="313" y="115" type="curve" smooth="yes"/>
      <point x="214" y="115"/>
      <point x="151" y="158"/>
      <point x="151" y="231" type="curve" smooth="yes"/>
      <point x="151" y="301"/>
      <point x="196" y="339"/>
      <point x="289" y="380" type="curve" smooth="yes"/>
      <point x="398" y="428"/>
      <point x="433" y="460"/>
      <point x="433" y="515" type="curve" smooth="yes"/>
      <point x="433" y="547"/>
      <point x="416" y="577"/>
      <point x="390" y="603" type="curve"/>
      <point x="368" y="589" type="line"/>
      <point x="393" y="565"/>
      <point x="406" y="541"/>
      <point x="406" y="515" type="curve" smooth="yes"/>
      <point x="406" y="471"/>
      <point x="376" y="448"/>
      <point x="278" y="404" type="curve" smooth="yes"/>
      <point x="171" y="356"/>
      <point x="124" y="310"/>
      <point x="124" y="231" type="curve" smooth="yes"/>
      <point x="124" y="136"/>
      <point x="204" y="89"/>
    </contour>
    <contour>
      <point x="152" y="-231" type="curve"/>
      <point x="169" y="-210" type="line"/>
      <point x="83" y="-155"/>
      <point x="46" y="-107"/>
      <point x="46" y="-45" type="curve" smooth="yes"/>
      <point x="46" y="6"/>
      <point x="80" y="39"/>
      <point x="127" y="39" type="curve" smooth="yes"/>
      <point x="173" y="39"/>
      <point x="208" y="16"/>
      <point x="255" y="-56" type="curve"/>
      <point x="253" y="-36" type="line"/>
      <point x="230" y="-51" type="line" smooth="yes"/>
      <point x="210" y="-64"/>
      <point x="204" y="-73"/>
      <point x="204" y="-85" type="curve" smooth="yes"/>
      <point x="204" y="-111"/>
      <point x="241" y="-133"/>
      <point x="280" y="-133" type="curve" smooth="yes"/>
      <point x="300" y="-133"/>
      <point x="313" y="-125"/>
      <point x="313" y="-107" type="curve" smooth="yes"/>
      <point x="313" y="-97"/>
      <point x="311" y="-88"/>
      <point x="300" y="-72" type="curve" smooth="yes"/>
      <point x="277" y="-40" type="line"/>
      <point x="272" y="-55" type="line"/>
      <point x="470" y="77" type="line"/>
      <point x="464" y="93" type="line"/>
      <point x="451" y="95" type="line"/>
      <point x="263" y="-30" type="line"/>
      <point x="274" y="-36" type="line"/>
      <point x="228" y="33"/>
      <point x="183" y="65"/>
      <point x="127" y="65" type="curve" smooth="yes"/>
      <point x="66" y="65"/>
      <point x="19" y="23"/>
      <point x="19" y="-45" type="curve" smooth="yes"/>
      <point x="19" y="-122"/>
      <point x="71" y="-175"/>
    </contour>
    <contour>
      <point x="549" y="-81" type="line"/>
      <point x="574" y="-69" type="line"/>
      <point x="453" y="142" type="line"/>
      <point x="431" y="128" type="line"/>
    </contour>
  </outline>
</glyph>
<glyph name="dadagujr" format="2">
  <advance width="438"/>
  <outline>
    <contour>
      <point x="272" y="-10" type="curve" smooth="yes"/>
      <point x="350" y="-10"/>
      <point x="417" y="24"/>
      <point x="417" y="77" type="curve" smooth="yes"/>
      <point x="417" y="105"/>
      <point x="400" y="124"/>
      <point x="376" y="124" type="curve" smooth="yes"/>
      <point x="350" y="124"/>
      <point x="333" y="107"/>
      <point x="333" y="79" type="curve" smooth="yes"/>
      <point x="333" y="63"/>
      <point x="339" y="43"/>
      <point x="346" y="27" type="curve"/>
      <point x="353" y="34" type="line"/>
      <point x="327" y="21"/>
      <point x="305" y="16"/>
      <point x="272" y="16" type="curve" smooth="yes"/>
      <point x="185" y="16"/>
      <point x="116" y="74"/>
      <point x="116" y="168" type="curve" smooth="yes"/>
      <point x="116" y="266"/>
      <point x="194" y="317"/>
      <point x="286" y="317" type="curve" smooth="yes"/>
      <point x="307" y="317"/>
      <point x="330" y="315"/>
      <point x="352" y="310" type="curve"/>
      <point x="357" y="335" type="line"/>
      <point x="334" y="340"/>
      <point x="311" y="343"/>
      <point x="286" y="343" type="curve" smooth="yes"/>
      <point x="180" y="343"/>
      <point x="89" y="280"/>
      <point x="89" y="168" type="curve" smooth="yes"/>
      <point x="89" y="60"/>
      <point x="171" y="-10"/>
    </contour>
    <contour>
      <point x="496" y="-139" type="line"/>
      <point x="503" y="-114" type="line"/>
      <point x="497" y="-113" type="line" smooth="yes"/>
      <point x="452" y="-106"/>
      <point x="410" y="-76"/>
      <point x="374" y="32" type="curve"/>
      <point x="349" y="22" type="line"/>
      <point x="390" y="-87"/>
      <point x="430" y="-130"/>
      <point x="489" y="-138" type="curve" smooth="yes"/>
    </contour>
    <contour>
      <point x="166" y="290" type="curve"/>
      <point x="182" y="310" type="line"/>
      <point x="113" y="344"/>
      <point x="72" y="392"/>
      <point x="72" y="457" type="curve" smooth="yes"/>
      <point x="72" y="534"/>
      <point x="132" y="577"/>
      <point x="216" y="577" type="curve" smooth="yes"/>
      <point x="249" y="577"/>
      <point x="280" y="573"/>
      <point x="312" y="565" type="curve"/>
      <point x="317" y="591" type="line"/>
      <point x="285" y="598"/>
      <point x="252" y="603"/>
      <point x="216" y="603" type="curve" smooth="yes"/>
      <point x="118" y="603"/>
      <point x="45" y="548"/>
      <point x="45" y="457" type="curve" smooth="yes"/>
      <point x="45" y="384"/>
      <point x="94" y="327"/>
    </contour>
  </outline>
</glyph>
<glyph name="dadasquishgujr" format="2">
  <advance width="438"/>
  <outline>
    <contour>
      <point x="269" y="54" type="curve" smooth="yes"/>
      <point x="349" y="54"/>
      <point x="417" y="90"/>
      <point x="417" y="139" type="curve" smooth="yes"/>
      <point x="417" y="167"/>
      <point x="403" y="188"/>
      <point x="376" y="188" type="curve" smooth="yes"/>
      <point x="350" y="188"/>
      <point x="333" y="171"/>
      <point x="333" y="143" type="curve" smooth="yes"/>
      <point x="333" y="125"/>
      <point x="339" y="107"/>
      <point x="345" y="91" type="curve"/>
      <point x="353" y="98" type="line"/>
      <point x="327" y="85"/>
      <point x="306" y="80"/>
      <point x="269" y="80" type="curve" smooth="yes"/>
      <point x="182" y="80"/>
      <point x="116" y="128"/>
      <point x="116" y="212" type="curve" smooth="yes"/>
      <point x="116" y="302"/>
      <point x="195" y="343"/>
      <point x="281" y="343" type="curve" smooth="yes"/>
      <point x="307" y="343"/>
      <point x="330" y="341"/>
      <point x="352" y="337" type="curve"/>
      <point x="357" y="362" type="line"/>
      <point x="337" y="366"/>
      <point x="314" y="369"/>
      <point x="281" y="369" type="curve" smooth="yes"/>
      <point x="181" y="369"/>
      <point x="89" y="316"/>
      <point x="89" y="212" type="curve" smooth="yes"/>
      <point x="89" y="114"/>
      <point x="168" y="54"/>
    </contour>
    <contour>
      <point x="389" y="-25" type="line"/>
      <point x="417" y="-25" type="line"/>
      <point x="371" y="92" type="line"/>
      <point x="349" y="82" type="line"/>
    </contour>
    <contour>
      <point x="166" y="321" type="curve"/>
      <point x="182" y="340" type="line"/>
      <point x="113" y="371"/>
      <point x="72" y="413"/>
      <point x="72" y="471" type="curve" smooth="yes"/>
      <point x="72" y="539"/>
      <point x="129" y="577"/>
      <point x="213" y="577" type="curve" smooth="yes"/>
      <point x="252" y="577"/>
      <point x="283" y="573"/>
      <point x="312" y="567" type="curve"/>
      <point x="317" y="592" type="line"/>
      <point x="285" y="598"/>
      <point x="253" y="603"/>
      <point x="213" y="603" type="curve" smooth="yes"/>
      <point x="114" y="603"/>
      <point x="45" y="552"/>
      <point x="45" y="471" type="curve" smooth="yes"/>
      <point x="45" y="406"/>
      <point x="94" y="354"/>
    </contour>
  </outline>
</glyph>
<glyph name="dadhagujr" format="2">
  <advance width="666"/>
  <outline>
    <contour>
      <point x="451" y="50" type="curve" smooth="yes"/>
      <point x="529" y="50"/>
      <point x="630" y="87"/>
      <point x="630" y="143" type="curve" smooth="yes"/>
      <point x="630" y="170"/>
      <point x="614" y="190"/>
      <point x="585" y="190" type="curve" smooth="yes"/>
      <point x="556" y="190"/>
      <point x="538" y="171"/>
      <point x="538" y="145" type="curve" smooth="yes"/>
      <point x="538" y="127"/>
      <point x="550" y="108"/>
      <point x="560" y="95" type="curve"/>
      <point x="574" y="106" type="line"/>
      <point x="539" y="84"/>
      <point x="498" y="76"/>
      <point x="451" y="76" type="curve" smooth="yes"/>
      <point x="349" y="76"/>
      <point x="285" y="127"/>
      <point x="285" y="210" type="curve" smooth="yes"/>
      <point x="285" y="291"/>
      <point x="336" y="326"/>
      <point x="428" y="372" type="curve" smooth="yes"/>
      <point x="531" y="423"/>
      <point x="566" y="455"/>
      <point x="566" y="512" type="curve" smooth="yes"/>
      <point x="566" y="547"/>
      <point x="549" y="576"/>
      <point x="523" y="603" type="curve"/>
      <point x="501" y="589" type="line"/>
      <point x="526" y="563"/>
      <point x="539" y="541"/>
      <point x="539" y="512" type="curve" smooth="yes"/>
      <point x="539" y="469"/>
      <point x="508" y="442"/>
      <point x="412" y="394" type="curve" smooth="yes"/>
      <point x="310" y="343"/>
      <point x="258" y="299"/>
      <point x="258" y="210" type="curve" smooth="yes"/>
      <point x="258" y="109"/>
      <point x="336" y="50"/>
    </contour>
    <contour>
      <point x="675" y="-83" type="line"/>
      <point x="698" y="-68" type="line"/>
      <point x="586" y="103" type="line"/>
      <point x="565" y="89" type="line"/>
    </contour>
    <contour>
      <point x="242" y="-137" type="curve" smooth="yes"/>
      <point x="381" y="-137"/>
      <point x="472" y="-59"/>
      <point x="569" y="76" type="curve"/>
      <point x="541" y="79" type="line"/>
      <point x="447" y="-43"/>
      <point x="368" y="-111"/>
      <point x="242" y="-111" type="curve" smooth="yes"/>
      <point x="164" y="-111"/>
      <point x="117" y="-77"/>
      <point x="117" y="-14" type="curve" smooth="yes"/>
      <point x="117" y="48"/>
      <point x="164" y="80"/>
      <point x="223" y="80" type="curve" smooth="yes"/>
      <point x="236" y="80"/>
      <point x="246" y="79"/>
      <point x="253" y="78" type="curve"/>
      <point x="255" y="104" type="line"/>
      <point x="247" y="105"/>
      <point x="237" y="106"/>
      <point x="223" y="106" type="curve" smooth="yes"/>
      <point x="142" y="106"/>
      <point x="90" y="52"/>
      <point x="90" y="-12" type="curve" smooth="yes"/>
      <point x="90" y="-91"/>
      <point x="149" y="-137"/>
    </contour>
    <contour>
      <point x="137" y="59" type="curve"/>
      <point x="159" y="75" type="line"/>
      <point x="106" y="102"/>
      <point x="75" y="146"/>
      <point x="75" y="193" type="curve" smooth="yes"/>
      <point x="75" y="260"/>
      <point x="131" y="298"/>
      <point x="209" y="323" type="curve"/>
      <point x="200" y="347" type="line"/>
      <point x="107" y="316"/>
      <point x="48" y="271"/>
      <point x="48" y="193" type="curve" smooth="yes"/>
      <point x="48" y="135"/>
      <point x="82" y="94"/>
    </contour>
  </outline>
</glyph>
<glyph name="dagagujr" format="2">
  <advance width="462"/>
  <outline>
    <contour>
      <point x="247" y="50" type="curve" smooth="yes"/>
      <point x="330" y="50"/>
      <point x="426" y="88"/>
      <point x="426" y="143" type="curve" smooth="yes"/>
      <point x="426" y="172"/>
      <point x="408" y="190"/>
      <point x="381" y="190" type="curve" smooth="yes"/>
      <point x="353" y="190"/>
      <point x="334" y="172"/>
      <point x="334" y="146" type="curve" smooth="yes"/>
      <point x="334" y="125"/>
      <point x="346" y="108"/>
      <point x="356" y="95" type="curve"/>
      <point x="370" y="106" type="line"/>
      <point x="335" y="85"/>
      <point x="294" y="76"/>
      <point x="247" y="76" type="curve" smooth="yes"/>
      <point x="145" y="76"/>
      <point x="81" y="128"/>
      <point x="81" y="210" type="curve" smooth="yes"/>
      <point x="81" y="290"/>
      <point x="132" y="326"/>
      <point x="224" y="372" type="curve" smooth="yes"/>
      <point x="327" y="423"/>
      <point x="362" y="455"/>
      <point x="362" y="512" type="curve" smooth="yes"/>
      <point x="362" y="547"/>
      <point x="345" y="576"/>
      <point x="319" y="603" type="curve"/>
      <point x="297" y="589" type="line"/>
      <point x="322" y="563"/>
      <point x="335" y="541"/>
      <point x="335" y="512" type="curve" smooth="yes"/>
      <point x="335" y="469"/>
      <point x="304" y="442"/>
      <point x="208" y="394" type="curve" smooth="yes"/>
      <point x="106" y="343"/>
      <point x="54" y="299"/>
      <point x="54" y="210" type="curve" smooth="yes"/>
      <point x="54" y="115"/>
      <point x="124" y="50"/>
    </contour>
    <contour>
      <point x="172" y="-162" type="curve" smooth="yes"/>
      <point x="233" y="-162"/>
      <point x="274" y="-123"/>
      <point x="274" y="-55" type="curve" smooth="yes"/>
      <point x="274" y="-8"/>
      <point x="255" y="30"/>
      <point x="225" y="65" type="curve"/>
      <point x="195" y="58" type="line"/>
      <point x="227" y="28"/>
      <point x="247" y="-12"/>
      <point x="247" y="-56" type="curve" smooth="yes"/>
      <point x="247" y="-107"/>
      <point x="218" y="-136"/>
      <point x="172" y="-136" type="curve" smooth="yes"/>
      <point x="137" y="-136"/>
      <point x="108" y="-119"/>
      <point x="85" y="-93" type="curve"/>
      <point x="65" y="-110" type="line"/>
      <point x="98" y="-145"/>
      <point x="132" y="-162"/>
    </contour>
    <contour>
      <point x="471" y="-83" type="line"/>
      <point x="494" y="-68" type="line"/>
      <point x="382" y="103" type="line"/>
      <point x="360" y="89" type="line"/>
    </contour>
  </outline>
</glyph>
<glyph name="dagasquishgujr" format="2">
  <advance width="462"/>
  <outline>
    <contour>
      <point x="247" y="97" type="curve" smooth="yes"/>
      <point x="329" y="97"/>
      <point x="426" y="137"/>
      <point x="426" y="190" type="curve" smooth="yes"/>
      <point x="426" y="219"/>
      <point x="408" y="237"/>
      <point x="381" y="237" type="curve" smooth="yes"/>
      <point x="355" y="237"/>
      <point x="334" y="220"/>
      <point x="334" y="192" type="curve" smooth="yes"/>
      <point x="334" y="174"/>
      <point x="346" y="155"/>
      <point x="356" y="142" type="curve"/>
      <point x="370" y="152" type="line"/>
      <point x="335" y="131"/>
      <point x="294" y="123"/>
      <point x="247" y="123" type="curve" smooth="yes"/>
      <point x="145" y="123"/>
      <point x="81" y="170"/>
      <point x="81" y="242" type="curve" smooth="yes"/>
      <point x="81" y="316"/>
      <point x="135" y="342"/>
      <point x="224" y="386" type="curve" smooth="yes"/>
      <point x="329" y="438"/>
      <point x="362" y="467"/>
      <point x="362" y="522" type="curve" smooth="yes"/>
      <point x="362" y="553"/>
      <point x="347" y="579"/>
      <point x="323" y="603" type="curve"/>
      <point x="301" y="589" type="line"/>
      <point x="323" y="566"/>
      <point x="335" y="547"/>
      <point x="335" y="522" type="curve" smooth="yes"/>
      <point x="335" y="480"/>
      <point x="305" y="457"/>
      <point x="208" y="408" type="curve" smooth="yes"/>
      <point x="109" y="358"/>
      <point x="54" y="325"/>
      <point x="54" y="244" type="curve" smooth="yes"/>
      <point x="54" y="155"/>
      <point x="132" y="97"/>
    </contour>
    <contour>
      <point x="127" y="-95" type="curve" smooth="yes"/>
      <point x="188" y="-95"/>
      <point x="229" y="-54"/>
      <point x="229" y="10" type="curve" smooth="yes"/>
      <point x="229" y="55"/>
      <point x="211" y="93"/>
      <point x="180" y="128" type="curve"/>
      <point x="150" y="121" type="line"/>
      <point x="182" y="91"/>
      <point x="202" y="51"/>
      <point x="202" y="9" type="curve" smooth="yes"/>
      <point x="202" y="-41"/>
      <point x="173" y="-69"/>
      <point x="127" y="-69" type="curve" smooth="yes"/>
      <point x="92" y="-69"/>
      <point x="63" y="-53"/>
      <point x="40" y="-26" type="curve"/>
      <point x="20" y="-43" type="line"/>
      <point x="53" y="-78"/>
      <point x="87" y="-95"/>
    </contour>
    <contour>
      <point x="439" y="-29" type="line"/>
      <point x="464" y="-17" type="line"/>
      <point x="380" y="147" type="line"/>
      <point x="361" y="133" type="line"/>
    </contour>
  </outline>
</glyph>
<glyph name="daghagujr" format="2">
  <advance width="666"/>
  <outline>
    <contour>
      <point x="451" y="50" type="curve" smooth="yes"/>
      <point x="529" y="50"/>
      <point x="630" y="87"/>
      <point x="630" y="143" type="curve" smooth="yes"/>
      <point x="630" y="170"/>
      <point x="614" y="190"/>
      <point x="585" y="190" type="curve" smooth="yes"/>
      <point x="556" y="190"/>
      <point x="538" y="171"/>
      <point x="538" y="145" type="curve" smooth="yes"/>
      <point x="538" y="127"/>
      <point x="550" y="108"/>
      <point x="560" y="95" type="curve"/>
      <point x="574" y="106" type="line"/>
      <point x="539" y="84"/>
      <point x="498" y="76"/>
      <point x="451" y="76" type="curve" smooth="yes"/>
      <point x="349" y="76"/>
      <point x="285" y="127"/>
      <point x="285" y="210" type="curve" smooth="yes"/>
      <point x="285" y="291"/>
      <point x="336" y="326"/>
      <point x="428" y="372" type="curve" smooth="yes"/>
      <point x="531" y="423"/>
      <point x="566" y="455"/>
      <point x="566" y="512" type="curve" smooth="yes"/>
      <point x="566" y="547"/>
      <point x="549" y="576"/>
      <point x="523" y="603" type="curve"/>
      <point x="501" y="589" type="line"/>
      <point x="526" y="563"/>
      <point x="539" y="541"/>
      <point x="539" y="512" type="curve" smooth="yes"/>
      <point x="539" y="469"/>
      <point x="508" y="442"/>
      <point x="412" y="394" type="curve" smooth="yes"/>
      <point x="310" y="343"/>
      <point x="258" y="299"/>
      <point x="258" y="210" type="curve" smooth="yes"/>
      <point x="258" y="109"/>
      <point x="336" y="50"/>
    </contour>
    <contour>
      <point x="675" y="-83" type="line"/>
      <point x="698" y="-68" type="line"/>
      <point x="586" y="103" type="line"/>
      <point x="565" y="89" type="line"/>
    </contour>
    <contour>
      <point x="134" y="63" type="curve"/>
      <point x="149" y="82" type="line"/>
      <point x="99" y="111"/>
      <point x="75" y="146"/>
      <point x="75" y="188" type="curve" smooth="yes"/>
      <point x="75" y="243"/>
      <point x="116" y="275"/>
      <point x="190" y="275" type="curve" smooth="yes"/>
      <point x="224" y="275"/>
      <point x="253" y="271"/>
      <point x="278" y="264" type="curve"/>
      <point x="285" y="288" type="line"/>
      <point x="258" y="296"/>
      <point x="227" y="301"/>
      <point x="190" y="301" type="curve" smooth="yes"/>
      <point x="103" y="301"/>
      <point x="48" y="255"/>
      <point x="48" y="188" type="curve" smooth="yes"/>
      <point x="48" y="138"/>
      <point x="82" y="95"/>
    </contour>
    <contour>
      <point x="242" y="-137" type="curve" smooth="yes"/>
      <point x="381" y="-137"/>
      <point x="472" y="-59"/>
      <point x="569" y="76" type="curve"/>
      <point x="541" y="79" type="line"/>
      <point x="447" y="-43"/>
      <point x="368" y="-111"/>
      <point x="242" y="-111" type="curve" smooth="yes"/>
      <point x="164" y="-111"/>
      <point x="117" y="-77"/>
      <point x="117" y="-14" type="curve" smooth="yes"/>
      <point x="117" y="48"/>
      <point x="164" y="80"/>
      <point x="223" y="80" type="curve" smooth="yes"/>
      <point x="236" y="80"/>
      <point x="246" y="79"/>
      <point x="253" y="78" type="curve"/>
      <point x="255" y="104" type="line"/>
      <point x="247" y="105"/>
      <point x="237" y="106"/>
      <point x="223" y="106" type="curve" smooth="yes"/>
      <point x="142" y="106"/>
      <point x="90" y="52"/>
      <point x="90" y="-12" type="curve" smooth="yes"/>
      <point x="90" y="-91"/>
      <point x="149" y="-137"/>
    </contour>
  </outline>
</glyph>
<glyph name="daghasquishgujr" format="2">
  <advance width="672"/>
  <outline>
    <contour>
      <point x="457" y="97" type="curve" smooth="yes"/>
      <point x="536" y="97"/>
      <point x="636" y="136"/>
      <point x="636" y="190" type="curve" smooth="yes"/>
      <point x="636" y="219"/>
      <point x="618" y="237"/>
      <point x="591" y="237" type="curve" smooth="yes"/>
      <point x="565" y="237"/>
      <point x="544" y="220"/>
      <point x="544" y="192" type="curve" smooth="yes"/>
      <point x="544" y="174"/>
      <point x="556" y="155"/>
      <point x="566" y="142" type="curve"/>
      <point x="580" y="152" type="line"/>
      <point x="545" y="131"/>
      <point x="504" y="123"/>
      <point x="457" y="123" type="curve" smooth="yes"/>
      <point x="355" y="123"/>
      <point x="291" y="170"/>
      <point x="291" y="247" type="curve" smooth="yes"/>
      <point x="291" y="316"/>
      <point x="345" y="342"/>
      <point x="434" y="386" type="curve" smooth="yes"/>
      <point x="539" y="438"/>
      <point x="572" y="467"/>
      <point x="572" y="522" type="curve" smooth="yes"/>
      <point x="572" y="553"/>
      <point x="557" y="579"/>
      <point x="533" y="603" type="curve"/>
      <point x="511" y="589" type="line"/>
      <point x="533" y="566"/>
      <point x="545" y="547"/>
      <point x="545" y="522" type="curve" smooth="yes"/>
      <point x="545" y="480"/>
      <point x="515" y="457"/>
      <point x="418" y="408" type="curve" smooth="yes"/>
      <point x="319" y="358"/>
      <point x="264" y="325"/>
      <point x="264" y="247" type="curve" smooth="yes"/>
      <point x="264" y="158"/>
      <point x="342" y="97"/>
    </contour>
    <contour>
      <point x="248" y="-90" type="curve" smooth="yes"/>
      <point x="387" y="-90"/>
      <point x="478" y="-12"/>
      <point x="575" y="123" type="curve"/>
      <point x="547" y="126" type="line"/>
      <point x="453" y="4"/>
      <point x="374" y="-64"/>
      <point x="248" y="-64" type="curve" smooth="yes"/>
      <point x="170" y="-64"/>
      <point x="123" y="-30"/>
      <point x="123" y="33" type="curve" smooth="yes"/>
      <point x="123" y="95"/>
      <point x="170" y="127"/>
      <point x="229" y="127" type="curve" smooth="yes"/>
      <point x="242" y="127"/>
      <point x="252" y="126"/>
      <point x="259" y="125" type="curve"/>
      <point x="261" y="151" type="line"/>
      <point x="253" y="152"/>
      <point x="243" y="153"/>
      <point x="229" y="153" type="curve" smooth="yes"/>
      <point x="148" y="153"/>
      <point x="96" y="99"/>
      <point x="96" y="35" type="curve" smooth="yes"/>
      <point x="96" y="-44"/>
      <point x="155" y="-90"/>
    </contour>
    <contour>
      <point x="659" y="-29" type="line"/>
      <point x="684" y="-17" type="line"/>
      <point x="590" y="147" type="line"/>
      <point x="571" y="133" type="line"/>
    </contour>
    <contour>
      <point x="140" y="110" type="curve"/>
      <point x="155" y="129" type="line"/>
      <point x="105" y="158"/>
      <point x="81" y="193"/>
      <point x="81" y="235" type="curve" smooth="yes"/>
      <point x="81" y="290"/>
      <point x="122" y="322"/>
      <point x="196" y="322" type="curve" smooth="yes"/>
      <point x="238" y="322"/>
      <point x="266" y="316"/>
      <point x="299" y="307" type="curve"/>
      <point x="306" y="331" type="line"/>
      <point x="271" y="342"/>
      <point x="236" y="348"/>
      <point x="196" y="348" type="curve" smooth="yes"/>
      <point x="109" y="348"/>
      <point x="54" y="302"/>
      <point x="54" y="235" type="curve" smooth="yes"/>
      <point x="54" y="185"/>
      <point x="88" y="142"/>
    </contour>
  </outline>
</glyph>
<glyph name="damastemgujr" format="2">
  <advance width="673"/>
  <outline>
    <contour>
      <point x="190" y="272" type="curve" smooth="yes"/>
      <point x="228" y="272"/>
      <point x="263" y="278"/>
      <point x="291" y="290" type="curve"/>
      <point x="305" y="299" type="line"/>
      <point x="324" y="313"/>
      <point x="337" y="330"/>
      <point x="337" y="354" type="curve" smooth="yes"/>
      <point x="337" y="379"/>
      <point x="323" y="395"/>
      <point x="303" y="395" type="curve" smooth="yes"/>
      <point x="282" y="395"/>
      <point x="268" y="381"/>
      <point x="268" y="355" type="curve" smooth="yes"/>
      <point x="268" y="339"/>
      <point x="274" y="323"/>
      <point x="283" y="308" type="curve"/>
      <point x="294" y="319" type="line"/>
      <point x="267" y="305"/>
      <point x="236" y="298"/>
      <point x="190" y="298" type="curve" smooth="yes"/>
      <point x="119" y="298"/>
      <point x="79" y="323"/>
      <point x="79" y="377" type="curve" smooth="yes"/>
      <point x="79" y="418"/>
      <point x="99" y="440"/>
      <point x="165" y="475" type="curve" smooth="yes"/>
      <point x="182" y="484" type="line" smooth="yes"/>
      <point x="238" y="514"/>
      <point x="273" y="541"/>
      <point x="273" y="590" type="curve" smooth="yes"/>
      <point x="273" y="635"/>
      <point x="244" y="672"/>
      <point x="168" y="672" type="curve" smooth="yes"/>
      <point x="134" y="672"/>
      <point x="106" y="665"/>
      <point x="80" y="656" type="curve"/>
      <point x="87" y="631" type="line"/>
      <point x="112" y="640"/>
      <point x="138" y="646"/>
      <point x="168" y="646" type="curve" smooth="yes"/>
      <point x="229" y="646"/>
      <point x="247" y="622"/>
      <point x="247" y="590" type="curve" smooth="yes"/>
      <point x="247" y="554"/>
      <point x="221" y="533"/>
      <point x="171" y="507" type="curve" smooth="yes"/>
      <point x="154" y="498" type="line" smooth="yes"/>
      <point x="71" y="454"/>
      <point x="52" y="427"/>
      <point x="52" y="377" type="curve" smooth="yes"/>
      <point x="52" y="307"/>
      <point x="107" y="272"/>
    </contour>
    <contour>
      <point x="281" y="91" type="curve" smooth="yes"/>
      <point x="301" y="91"/>
      <point x="313" y="103"/>
      <point x="313" y="132" type="curve" smooth="yes"/>
      <point x="313" y="164" type="line"/>
      <point x="549" y="164" type="line"/>
      <point x="549" y="190" type="line"/>
      <point x="313" y="190" type="line"/>
      <point x="313" y="338" type="line"/>
      <point x="287" y="329" type="line"/>
      <point x="287" y="190" type="line"/>
      <point x="253" y="190" type="line" smooth="yes"/>
      <point x="225" y="190"/>
      <point x="215" y="177"/>
      <point x="215" y="161" type="curve" smooth="yes"/>
      <point x="215" y="134"/>
      <point x="250" y="91"/>
    </contour>
    <contour>
      <point x="539" y="-30" type="line"/>
      <point x="565" y="-30" type="line"/>
      <point x="565" y="598" type="line"/>
      <point x="539" y="602" type="line"/>
    </contour>
  </outline>
</glyph>
